%TF.GenerationSoftware,KiCad,Pcbnew,(6.0.9)*%
%TF.CreationDate,2022-12-08T19:58:19+01:00*%
%TF.ProjectId,battery-case-controller,62617474-6572-4792-9d63-6173652d636f,1*%
%TF.SameCoordinates,Original*%
%TF.FileFunction,Drillmap*%
%TF.FilePolarity,Positive*%
%FSLAX45Y45*%
G04 Gerber Fmt 4.5, Leading zero omitted, Abs format (unit mm)*
G04 Created by KiCad (PCBNEW (6.0.9)) date 2022-12-08 19:58:19*
%MOMM*%
%LPD*%
G01*
G04 APERTURE LIST*
%ADD10C,0.100000*%
%ADD11C,0.200000*%
%ADD12C,0.040000*%
%ADD13C,0.050000*%
%ADD14C,0.060000*%
%ADD15C,0.065000*%
%ADD16C,0.075000*%
%ADD17C,0.220000*%
%ADD18C,0.320000*%
G04 APERTURE END LIST*
D10*
X10000000Y-13000000D02*
X21000000Y-13000000D01*
X10000000Y-7500000D02*
X10000000Y-13000000D01*
X20000000Y-8225000D02*
X20000000Y-7500000D01*
X20000000Y-7500000D02*
X10000000Y-7500000D01*
X21000000Y-13000000D02*
X21000000Y-10500000D01*
X20000000Y-10500000D02*
X21000000Y-10500000D01*
X20000000Y-10500000D02*
X20000000Y-8975000D01*
D11*
D12*
X10130000Y-12880000D02*
X10170000Y-12920000D01*
X10170000Y-12880000D02*
X10130000Y-12920000D01*
X10230000Y-12880000D02*
X10270000Y-12920000D01*
X10270000Y-12880000D02*
X10230000Y-12920000D01*
X10330000Y-11080000D02*
X10370000Y-11120000D01*
X10370000Y-11080000D02*
X10330000Y-11120000D01*
X10330000Y-11180000D02*
X10370000Y-11220000D01*
X10370000Y-11180000D02*
X10330000Y-11220000D01*
X10330000Y-11280000D02*
X10370000Y-11320000D01*
X10370000Y-11280000D02*
X10330000Y-11320000D01*
X10330000Y-11380000D02*
X10370000Y-11420000D01*
X10370000Y-11380000D02*
X10330000Y-11420000D01*
X10330000Y-11480000D02*
X10370000Y-11520000D01*
X10370000Y-11480000D02*
X10330000Y-11520000D01*
X10330000Y-11580000D02*
X10370000Y-11620000D01*
X10370000Y-11580000D02*
X10330000Y-11620000D01*
X10330000Y-11680000D02*
X10370000Y-11720000D01*
X10370000Y-11680000D02*
X10330000Y-11720000D01*
X10330000Y-11780000D02*
X10370000Y-11820000D01*
X10370000Y-11780000D02*
X10330000Y-11820000D01*
X10330000Y-11880000D02*
X10370000Y-11920000D01*
X10370000Y-11880000D02*
X10330000Y-11920000D01*
X10330000Y-11980000D02*
X10370000Y-12020000D01*
X10370000Y-11980000D02*
X10330000Y-12020000D01*
X10330000Y-12080000D02*
X10370000Y-12120000D01*
X10370000Y-12080000D02*
X10330000Y-12120000D01*
X10330000Y-12180000D02*
X10370000Y-12220000D01*
X10370000Y-12180000D02*
X10330000Y-12220000D01*
X10330000Y-12280000D02*
X10370000Y-12320000D01*
X10370000Y-12280000D02*
X10330000Y-12320000D01*
X10330000Y-12380000D02*
X10370000Y-12420000D01*
X10370000Y-12380000D02*
X10330000Y-12420000D01*
X10330000Y-12480000D02*
X10370000Y-12520000D01*
X10370000Y-12480000D02*
X10330000Y-12520000D01*
X10330000Y-12580000D02*
X10370000Y-12620000D01*
X10370000Y-12580000D02*
X10330000Y-12620000D01*
X10330000Y-12680000D02*
X10370000Y-12720000D01*
X10370000Y-12680000D02*
X10330000Y-12720000D01*
X10330000Y-12780000D02*
X10370000Y-12820000D01*
X10370000Y-12780000D02*
X10330000Y-12820000D01*
X10330000Y-12880000D02*
X10370000Y-12920000D01*
X10370000Y-12880000D02*
X10330000Y-12920000D01*
X10405000Y-10380000D02*
X10445000Y-10420000D01*
X10445000Y-10380000D02*
X10405000Y-10420000D01*
X10505000Y-9930000D02*
X10545000Y-9970000D01*
X10545000Y-9930000D02*
X10505000Y-9970000D01*
X10505000Y-10030000D02*
X10545000Y-10070000D01*
X10545000Y-10030000D02*
X10505000Y-10070000D01*
X10505000Y-11080000D02*
X10545000Y-11120000D01*
X10545000Y-11080000D02*
X10505000Y-11120000D01*
X10505000Y-11180000D02*
X10545000Y-11220000D01*
X10545000Y-11180000D02*
X10505000Y-11220000D01*
X10505000Y-11280000D02*
X10545000Y-11320000D01*
X10545000Y-11280000D02*
X10505000Y-11320000D01*
X10505000Y-11380000D02*
X10545000Y-11420000D01*
X10545000Y-11380000D02*
X10505000Y-11420000D01*
X10505000Y-11480000D02*
X10545000Y-11520000D01*
X10545000Y-11480000D02*
X10505000Y-11520000D01*
X10505000Y-11580000D02*
X10545000Y-11620000D01*
X10545000Y-11580000D02*
X10505000Y-11620000D01*
X10505000Y-11680000D02*
X10545000Y-11720000D01*
X10545000Y-11680000D02*
X10505000Y-11720000D01*
X10505000Y-11780000D02*
X10545000Y-11820000D01*
X10545000Y-11780000D02*
X10505000Y-11820000D01*
X10505000Y-11880000D02*
X10545000Y-11920000D01*
X10545000Y-11880000D02*
X10505000Y-11920000D01*
X10505000Y-11980000D02*
X10545000Y-12020000D01*
X10545000Y-11980000D02*
X10505000Y-12020000D01*
X10505000Y-12080000D02*
X10545000Y-12120000D01*
X10545000Y-12080000D02*
X10505000Y-12120000D01*
X10505000Y-12180000D02*
X10545000Y-12220000D01*
X10545000Y-12180000D02*
X10505000Y-12220000D01*
X10505000Y-12280000D02*
X10545000Y-12320000D01*
X10545000Y-12280000D02*
X10505000Y-12320000D01*
X10505000Y-12380000D02*
X10545000Y-12420000D01*
X10545000Y-12380000D02*
X10505000Y-12420000D01*
X10505000Y-12480000D02*
X10545000Y-12520000D01*
X10545000Y-12480000D02*
X10505000Y-12520000D01*
X10505000Y-12580000D02*
X10545000Y-12620000D01*
X10545000Y-12580000D02*
X10505000Y-12620000D01*
X10505000Y-12680000D02*
X10545000Y-12720000D01*
X10545000Y-12680000D02*
X10505000Y-12720000D01*
X10505000Y-12780000D02*
X10545000Y-12820000D01*
X10545000Y-12780000D02*
X10505000Y-12820000D01*
X10505000Y-12880000D02*
X10545000Y-12920000D01*
X10545000Y-12880000D02*
X10505000Y-12920000D01*
X10605000Y-9930000D02*
X10645000Y-9970000D01*
X10645000Y-9930000D02*
X10605000Y-9970000D01*
X10605000Y-12880000D02*
X10645000Y-12920000D01*
X10645000Y-12880000D02*
X10605000Y-12920000D01*
X10730000Y-9930000D02*
X10770000Y-9970000D01*
X10770000Y-9930000D02*
X10730000Y-9970000D01*
X10730000Y-12880000D02*
X10770000Y-12920000D01*
X10770000Y-12880000D02*
X10730000Y-12920000D01*
X11205000Y-8580000D02*
X11245000Y-8620000D01*
X11245000Y-8580000D02*
X11205000Y-8620000D01*
X11205000Y-8830000D02*
X11245000Y-8870000D01*
X11245000Y-8830000D02*
X11205000Y-8870000D01*
X11305000Y-8580000D02*
X11345000Y-8620000D01*
X11345000Y-8580000D02*
X11305000Y-8620000D01*
X11305000Y-8830000D02*
X11345000Y-8870000D01*
X11345000Y-8830000D02*
X11305000Y-8870000D01*
X11355000Y-10930000D02*
X11395000Y-10970000D01*
X11395000Y-10930000D02*
X11355000Y-10970000D01*
X11405000Y-10305000D02*
X11445000Y-10345000D01*
X11445000Y-10305000D02*
X11405000Y-10345000D01*
X11421104Y-11653896D02*
X11461104Y-11693896D01*
X11461104Y-11653896D02*
X11421104Y-11693896D01*
X11555000Y-11555000D02*
X11595000Y-11595000D01*
X11595000Y-11555000D02*
X11555000Y-11595000D01*
X11555000Y-11755000D02*
X11595000Y-11795000D01*
X11595000Y-11755000D02*
X11555000Y-11795000D01*
X11655000Y-11555000D02*
X11695000Y-11595000D01*
X11695000Y-11555000D02*
X11655000Y-11595000D01*
X11655000Y-11755000D02*
X11695000Y-11795000D01*
X11695000Y-11755000D02*
X11655000Y-11795000D01*
X11655000Y-12230000D02*
X11695000Y-12270000D01*
X11695000Y-12230000D02*
X11655000Y-12270000D01*
X11655000Y-12830000D02*
X11695000Y-12870000D01*
X11695000Y-12830000D02*
X11655000Y-12870000D01*
X11655000Y-12930000D02*
X11695000Y-12970000D01*
X11695000Y-12930000D02*
X11655000Y-12970000D01*
X11755000Y-11555000D02*
X11795000Y-11595000D01*
X11795000Y-11555000D02*
X11755000Y-11595000D01*
X11755000Y-11755000D02*
X11795000Y-11795000D01*
X11795000Y-11755000D02*
X11755000Y-11795000D01*
X11755000Y-12230000D02*
X11795000Y-12270000D01*
X11795000Y-12230000D02*
X11755000Y-12270000D01*
X11755000Y-12830000D02*
X11795000Y-12870000D01*
X11795000Y-12830000D02*
X11755000Y-12870000D01*
X11755000Y-12930000D02*
X11795000Y-12970000D01*
X11795000Y-12930000D02*
X11755000Y-12970000D01*
X11855000Y-9980000D02*
X11895000Y-10020000D01*
X11895000Y-9980000D02*
X11855000Y-10020000D01*
X11855000Y-10080000D02*
X11895000Y-10120000D01*
X11895000Y-10080000D02*
X11855000Y-10120000D01*
X11855000Y-10180000D02*
X11895000Y-10220000D01*
X11895000Y-10180000D02*
X11855000Y-10220000D01*
X11855000Y-10280000D02*
X11895000Y-10320000D01*
X11895000Y-10280000D02*
X11855000Y-10320000D01*
X11855000Y-11555000D02*
X11895000Y-11595000D01*
X11895000Y-11555000D02*
X11855000Y-11595000D01*
X11855000Y-11755000D02*
X11895000Y-11795000D01*
X11895000Y-11755000D02*
X11855000Y-11795000D01*
X11855000Y-12230000D02*
X11895000Y-12270000D01*
X11895000Y-12230000D02*
X11855000Y-12270000D01*
X11855000Y-12830000D02*
X11895000Y-12870000D01*
X11895000Y-12830000D02*
X11855000Y-12870000D01*
X11855000Y-12930000D02*
X11895000Y-12970000D01*
X11895000Y-12930000D02*
X11855000Y-12970000D01*
X11910000Y-11190000D02*
X11950000Y-11230000D01*
X11950000Y-11190000D02*
X11910000Y-11230000D01*
X11955000Y-9070000D02*
X11995000Y-9110000D01*
X11995000Y-9070000D02*
X11955000Y-9110000D01*
X11955000Y-10080000D02*
X11995000Y-10120000D01*
X11995000Y-10080000D02*
X11955000Y-10120000D01*
X11955000Y-11555000D02*
X11995000Y-11595000D01*
X11995000Y-11555000D02*
X11955000Y-11595000D01*
X11955000Y-11755000D02*
X11995000Y-11795000D01*
X11995000Y-11755000D02*
X11955000Y-11795000D01*
X11955000Y-12230000D02*
X11995000Y-12270000D01*
X11995000Y-12230000D02*
X11955000Y-12270000D01*
X11955000Y-12830000D02*
X11995000Y-12870000D01*
X11995000Y-12830000D02*
X11955000Y-12870000D01*
X11955000Y-12930000D02*
X11995000Y-12970000D01*
X11995000Y-12930000D02*
X11955000Y-12970000D01*
X11960000Y-11060000D02*
X12000000Y-11100000D01*
X12000000Y-11060000D02*
X11960000Y-11100000D01*
X12032450Y-10906123D02*
X12072450Y-10946123D01*
X12072450Y-10906123D02*
X12032450Y-10946123D01*
X12055000Y-11555000D02*
X12095000Y-11595000D01*
X12095000Y-11555000D02*
X12055000Y-11595000D01*
X12055000Y-12230000D02*
X12095000Y-12270000D01*
X12095000Y-12230000D02*
X12055000Y-12270000D01*
X12055000Y-12830000D02*
X12095000Y-12870000D01*
X12095000Y-12830000D02*
X12055000Y-12870000D01*
X12055000Y-12930000D02*
X12095000Y-12970000D01*
X12095000Y-12930000D02*
X12055000Y-12970000D01*
X12105000Y-11080000D02*
X12145000Y-11120000D01*
X12145000Y-11080000D02*
X12105000Y-11120000D01*
X12155000Y-11355000D02*
X12195000Y-11395000D01*
X12195000Y-11355000D02*
X12155000Y-11395000D01*
X12155000Y-11455000D02*
X12195000Y-11495000D01*
X12195000Y-11455000D02*
X12155000Y-11495000D01*
X12155000Y-11555000D02*
X12195000Y-11595000D01*
X12195000Y-11555000D02*
X12155000Y-11595000D01*
X12155000Y-11680000D02*
X12195000Y-11720000D01*
X12195000Y-11680000D02*
X12155000Y-11720000D01*
X12155000Y-12230000D02*
X12195000Y-12270000D01*
X12195000Y-12230000D02*
X12155000Y-12270000D01*
X12155000Y-12330000D02*
X12195000Y-12370000D01*
X12195000Y-12330000D02*
X12155000Y-12370000D01*
X12155000Y-12430000D02*
X12195000Y-12470000D01*
X12195000Y-12430000D02*
X12155000Y-12470000D01*
X12155000Y-12530000D02*
X12195000Y-12570000D01*
X12195000Y-12530000D02*
X12155000Y-12570000D01*
X12155000Y-12630000D02*
X12195000Y-12670000D01*
X12195000Y-12630000D02*
X12155000Y-12670000D01*
X12155000Y-12730000D02*
X12195000Y-12770000D01*
X12195000Y-12730000D02*
X12155000Y-12770000D01*
X12155000Y-12830000D02*
X12195000Y-12870000D01*
X12195000Y-12830000D02*
X12155000Y-12870000D01*
X12155000Y-12930000D02*
X12195000Y-12970000D01*
X12195000Y-12930000D02*
X12155000Y-12970000D01*
X12195000Y-9150000D02*
X12235000Y-9190000D01*
X12235000Y-9150000D02*
X12195000Y-9190000D01*
X12230000Y-9325000D02*
X12270000Y-9365000D01*
X12270000Y-9325000D02*
X12230000Y-9365000D01*
X12255000Y-11555000D02*
X12295000Y-11595000D01*
X12295000Y-11555000D02*
X12255000Y-11595000D01*
X12255000Y-12230000D02*
X12295000Y-12270000D01*
X12295000Y-12230000D02*
X12255000Y-12270000D01*
X12255000Y-12830000D02*
X12295000Y-12870000D01*
X12295000Y-12830000D02*
X12255000Y-12870000D01*
X12255000Y-12930000D02*
X12295000Y-12970000D01*
X12295000Y-12930000D02*
X12255000Y-12970000D01*
X12355000Y-11555000D02*
X12395000Y-11595000D01*
X12395000Y-11555000D02*
X12355000Y-11595000D01*
X12355000Y-11755000D02*
X12395000Y-11795000D01*
X12395000Y-11755000D02*
X12355000Y-11795000D01*
X12355000Y-12230000D02*
X12395000Y-12270000D01*
X12395000Y-12230000D02*
X12355000Y-12270000D01*
X12355000Y-12830000D02*
X12395000Y-12870000D01*
X12395000Y-12830000D02*
X12355000Y-12870000D01*
X12355000Y-12930000D02*
X12395000Y-12970000D01*
X12395000Y-12930000D02*
X12355000Y-12970000D01*
X12405000Y-10930000D02*
X12445000Y-10970000D01*
X12445000Y-10930000D02*
X12405000Y-10970000D01*
X12455000Y-11180000D02*
X12495000Y-11220000D01*
X12495000Y-11180000D02*
X12455000Y-11220000D01*
X12455000Y-11555000D02*
X12495000Y-11595000D01*
X12495000Y-11555000D02*
X12455000Y-11595000D01*
X12455000Y-11755000D02*
X12495000Y-11795000D01*
X12495000Y-11755000D02*
X12455000Y-11795000D01*
X12455000Y-12230000D02*
X12495000Y-12270000D01*
X12495000Y-12230000D02*
X12455000Y-12270000D01*
X12455000Y-12830000D02*
X12495000Y-12870000D01*
X12495000Y-12830000D02*
X12455000Y-12870000D01*
X12455000Y-12930000D02*
X12495000Y-12970000D01*
X12495000Y-12930000D02*
X12455000Y-12970000D01*
X12555000Y-11555000D02*
X12595000Y-11595000D01*
X12595000Y-11555000D02*
X12555000Y-11595000D01*
X12555000Y-11755000D02*
X12595000Y-11795000D01*
X12595000Y-11755000D02*
X12555000Y-11795000D01*
X12555000Y-12230000D02*
X12595000Y-12270000D01*
X12595000Y-12230000D02*
X12555000Y-12270000D01*
X12555000Y-12830000D02*
X12595000Y-12870000D01*
X12595000Y-12830000D02*
X12555000Y-12870000D01*
X12555000Y-12930000D02*
X12595000Y-12970000D01*
X12595000Y-12930000D02*
X12555000Y-12970000D01*
X12655000Y-11555000D02*
X12695000Y-11595000D01*
X12695000Y-11555000D02*
X12655000Y-11595000D01*
X12655000Y-11755000D02*
X12695000Y-11795000D01*
X12695000Y-11755000D02*
X12655000Y-11795000D01*
X12655000Y-12230000D02*
X12695000Y-12270000D01*
X12695000Y-12230000D02*
X12655000Y-12270000D01*
X12655000Y-12830000D02*
X12695000Y-12870000D01*
X12695000Y-12830000D02*
X12655000Y-12870000D01*
X12655000Y-12930000D02*
X12695000Y-12970000D01*
X12695000Y-12930000D02*
X12655000Y-12970000D01*
X12755000Y-11555000D02*
X12795000Y-11595000D01*
X12795000Y-11555000D02*
X12755000Y-11595000D01*
X12755000Y-11755000D02*
X12795000Y-11795000D01*
X12795000Y-11755000D02*
X12755000Y-11795000D01*
X12755000Y-12230000D02*
X12795000Y-12270000D01*
X12795000Y-12230000D02*
X12755000Y-12270000D01*
X12755000Y-12330000D02*
X12795000Y-12370000D01*
X12795000Y-12330000D02*
X12755000Y-12370000D01*
X12755000Y-12430000D02*
X12795000Y-12470000D01*
X12795000Y-12430000D02*
X12755000Y-12470000D01*
X12755000Y-12530000D02*
X12795000Y-12570000D01*
X12795000Y-12530000D02*
X12755000Y-12570000D01*
X12755000Y-12630000D02*
X12795000Y-12670000D01*
X12795000Y-12630000D02*
X12755000Y-12670000D01*
X12755000Y-12730000D02*
X12795000Y-12770000D01*
X12795000Y-12730000D02*
X12755000Y-12770000D01*
X12755000Y-12830000D02*
X12795000Y-12870000D01*
X12795000Y-12830000D02*
X12755000Y-12870000D01*
X12755000Y-12930000D02*
X12795000Y-12970000D01*
X12795000Y-12930000D02*
X12755000Y-12970000D01*
X13005000Y-11805000D02*
X13045000Y-11845000D01*
X13045000Y-11805000D02*
X13005000Y-11845000D01*
X13055000Y-12930000D02*
X13095000Y-12970000D01*
X13095000Y-12930000D02*
X13055000Y-12970000D01*
X13080000Y-12030000D02*
X13120000Y-12070000D01*
X13120000Y-12030000D02*
X13080000Y-12070000D01*
X13155000Y-12830000D02*
X13195000Y-12870000D01*
X13195000Y-12830000D02*
X13155000Y-12870000D01*
X13155000Y-12930000D02*
X13195000Y-12970000D01*
X13195000Y-12930000D02*
X13155000Y-12970000D01*
X13175000Y-11490000D02*
X13215000Y-11530000D01*
X13215000Y-11490000D02*
X13175000Y-11530000D01*
X13180000Y-12030000D02*
X13220000Y-12070000D01*
X13220000Y-12030000D02*
X13180000Y-12070000D01*
X13255000Y-12830000D02*
X13295000Y-12870000D01*
X13295000Y-12830000D02*
X13255000Y-12870000D01*
X13255000Y-12930000D02*
X13295000Y-12970000D01*
X13295000Y-12930000D02*
X13255000Y-12970000D01*
X13280000Y-12030000D02*
X13320000Y-12070000D01*
X13320000Y-12030000D02*
X13280000Y-12070000D01*
X13355000Y-12830000D02*
X13395000Y-12870000D01*
X13395000Y-12830000D02*
X13355000Y-12870000D01*
X13355000Y-12930000D02*
X13395000Y-12970000D01*
X13395000Y-12930000D02*
X13355000Y-12970000D01*
X13380000Y-12030000D02*
X13420000Y-12070000D01*
X13420000Y-12030000D02*
X13380000Y-12070000D01*
X13430000Y-11930000D02*
X13470000Y-11970000D01*
X13470000Y-11930000D02*
X13430000Y-11970000D01*
X13455000Y-12430000D02*
X13495000Y-12470000D01*
X13495000Y-12430000D02*
X13455000Y-12470000D01*
X13455000Y-12530000D02*
X13495000Y-12570000D01*
X13495000Y-12530000D02*
X13455000Y-12570000D01*
X13455000Y-12630000D02*
X13495000Y-12670000D01*
X13495000Y-12630000D02*
X13455000Y-12670000D01*
X13455000Y-12730000D02*
X13495000Y-12770000D01*
X13495000Y-12730000D02*
X13455000Y-12770000D01*
X13455000Y-12830000D02*
X13495000Y-12870000D01*
X13495000Y-12830000D02*
X13455000Y-12870000D01*
X13455000Y-12930000D02*
X13495000Y-12970000D01*
X13495000Y-12930000D02*
X13455000Y-12970000D01*
X13480000Y-12030000D02*
X13520000Y-12070000D01*
X13520000Y-12030000D02*
X13480000Y-12070000D01*
X13505000Y-11205000D02*
X13545000Y-11245000D01*
X13545000Y-11205000D02*
X13505000Y-11245000D01*
X13555000Y-12830000D02*
X13595000Y-12870000D01*
X13595000Y-12830000D02*
X13555000Y-12870000D01*
X13555000Y-12930000D02*
X13595000Y-12970000D01*
X13595000Y-12930000D02*
X13555000Y-12970000D01*
X13595000Y-8850000D02*
X13635000Y-8890000D01*
X13635000Y-8850000D02*
X13595000Y-8890000D01*
X13655000Y-12830000D02*
X13695000Y-12870000D01*
X13695000Y-12830000D02*
X13655000Y-12870000D01*
X13655000Y-12930000D02*
X13695000Y-12970000D01*
X13695000Y-12930000D02*
X13655000Y-12970000D01*
X13690000Y-9020000D02*
X13730000Y-9060000D01*
X13730000Y-9020000D02*
X13690000Y-9060000D01*
X13705000Y-11930000D02*
X13745000Y-11970000D01*
X13745000Y-11930000D02*
X13705000Y-11970000D01*
X13705000Y-12030000D02*
X13745000Y-12070000D01*
X13745000Y-12030000D02*
X13705000Y-12070000D01*
X13755000Y-12830000D02*
X13795000Y-12870000D01*
X13795000Y-12830000D02*
X13755000Y-12870000D01*
X13755000Y-12930000D02*
X13795000Y-12970000D01*
X13795000Y-12930000D02*
X13755000Y-12970000D01*
X13805000Y-11930000D02*
X13845000Y-11970000D01*
X13845000Y-11930000D02*
X13805000Y-11970000D01*
X13805000Y-12030000D02*
X13845000Y-12070000D01*
X13845000Y-12030000D02*
X13805000Y-12070000D01*
X13815000Y-9735000D02*
X13855000Y-9775000D01*
X13855000Y-9735000D02*
X13815000Y-9775000D01*
X13855000Y-10120000D02*
X13895000Y-10160000D01*
X13895000Y-10120000D02*
X13855000Y-10160000D01*
X13855000Y-12830000D02*
X13895000Y-12870000D01*
X13895000Y-12830000D02*
X13855000Y-12870000D01*
X13855000Y-12930000D02*
X13895000Y-12970000D01*
X13895000Y-12930000D02*
X13855000Y-12970000D01*
X13885000Y-11695000D02*
X13925000Y-11735000D01*
X13925000Y-11695000D02*
X13885000Y-11735000D01*
X13905000Y-12030000D02*
X13945000Y-12070000D01*
X13945000Y-12030000D02*
X13905000Y-12070000D01*
X13955000Y-12830000D02*
X13995000Y-12870000D01*
X13995000Y-12830000D02*
X13955000Y-12870000D01*
X13955000Y-12930000D02*
X13995000Y-12970000D01*
X13995000Y-12930000D02*
X13955000Y-12970000D01*
X14005000Y-12030000D02*
X14045000Y-12070000D01*
X14045000Y-12030000D02*
X14005000Y-12070000D01*
X14049500Y-11570500D02*
X14089500Y-11610500D01*
X14089500Y-11570500D02*
X14049500Y-11610500D01*
X14050000Y-8925050D02*
X14090000Y-8965050D01*
X14090000Y-8925050D02*
X14050000Y-8965050D01*
X14055000Y-12830000D02*
X14095000Y-12870000D01*
X14095000Y-12830000D02*
X14055000Y-12870000D01*
X14055000Y-12930000D02*
X14095000Y-12970000D01*
X14095000Y-12930000D02*
X14055000Y-12970000D01*
X14060000Y-9450000D02*
X14100000Y-9490000D01*
X14100000Y-9450000D02*
X14060000Y-9490000D01*
X14080000Y-11265000D02*
X14120000Y-11305000D01*
X14120000Y-11265000D02*
X14080000Y-11305000D01*
X14100000Y-11365000D02*
X14140000Y-11405000D01*
X14140000Y-11365000D02*
X14100000Y-11405000D01*
X14105000Y-12330000D02*
X14145000Y-12370000D01*
X14145000Y-12330000D02*
X14105000Y-12370000D01*
X14105000Y-12430000D02*
X14145000Y-12470000D01*
X14145000Y-12430000D02*
X14105000Y-12470000D01*
X14105000Y-12530000D02*
X14145000Y-12570000D01*
X14145000Y-12530000D02*
X14105000Y-12570000D01*
X14105000Y-12630000D02*
X14145000Y-12670000D01*
X14145000Y-12630000D02*
X14105000Y-12670000D01*
X14105000Y-12730000D02*
X14145000Y-12770000D01*
X14145000Y-12730000D02*
X14105000Y-12770000D01*
X14155000Y-12830000D02*
X14195000Y-12870000D01*
X14195000Y-12830000D02*
X14155000Y-12870000D01*
X14155000Y-12930000D02*
X14195000Y-12970000D01*
X14195000Y-12930000D02*
X14155000Y-12970000D01*
X14242500Y-9907500D02*
X14282500Y-9947500D01*
X14282500Y-9907500D02*
X14242500Y-9947500D01*
X14245000Y-10005000D02*
X14285000Y-10045000D01*
X14285000Y-10005000D02*
X14245000Y-10045000D01*
X14255000Y-12830000D02*
X14295000Y-12870000D01*
X14295000Y-12830000D02*
X14255000Y-12870000D01*
X14255000Y-12930000D02*
X14295000Y-12970000D01*
X14295000Y-12930000D02*
X14255000Y-12970000D01*
X14320000Y-11810000D02*
X14360000Y-11850000D01*
X14360000Y-11810000D02*
X14320000Y-11850000D01*
X14330000Y-12030000D02*
X14370000Y-12070000D01*
X14370000Y-12030000D02*
X14330000Y-12070000D01*
X14355000Y-12830000D02*
X14395000Y-12870000D01*
X14395000Y-12830000D02*
X14355000Y-12870000D01*
X14355000Y-12930000D02*
X14395000Y-12970000D01*
X14395000Y-12930000D02*
X14355000Y-12970000D01*
X14420000Y-11710000D02*
X14460000Y-11750000D01*
X14460000Y-11710000D02*
X14420000Y-11750000D01*
X14430000Y-12030000D02*
X14470000Y-12070000D01*
X14470000Y-12030000D02*
X14430000Y-12070000D01*
X14455000Y-12830000D02*
X14495000Y-12870000D01*
X14495000Y-12830000D02*
X14455000Y-12870000D01*
X14455000Y-12930000D02*
X14495000Y-12970000D01*
X14495000Y-12930000D02*
X14455000Y-12970000D01*
X14505000Y-10190000D02*
X14545000Y-10230000D01*
X14545000Y-10190000D02*
X14505000Y-10230000D01*
X14530000Y-12030000D02*
X14570000Y-12070000D01*
X14570000Y-12030000D02*
X14530000Y-12070000D01*
X14555000Y-12830000D02*
X14595000Y-12870000D01*
X14595000Y-12830000D02*
X14555000Y-12870000D01*
X14555000Y-12930000D02*
X14595000Y-12970000D01*
X14595000Y-12930000D02*
X14555000Y-12970000D01*
X14569000Y-11443500D02*
X14609000Y-11483500D01*
X14609000Y-11443500D02*
X14569000Y-11483500D01*
X14570000Y-11570000D02*
X14610000Y-11610000D01*
X14610000Y-11570000D02*
X14570000Y-11610000D01*
X14630000Y-12030000D02*
X14670000Y-12070000D01*
X14670000Y-12030000D02*
X14630000Y-12070000D01*
X14655000Y-12830000D02*
X14695000Y-12870000D01*
X14695000Y-12830000D02*
X14655000Y-12870000D01*
X14655000Y-12930000D02*
X14695000Y-12970000D01*
X14695000Y-12930000D02*
X14655000Y-12970000D01*
X14685000Y-9920000D02*
X14725000Y-9960000D01*
X14725000Y-9920000D02*
X14685000Y-9960000D01*
X14720967Y-8260967D02*
X14760967Y-8300967D01*
X14760967Y-8260967D02*
X14720967Y-8300967D01*
X14730000Y-12030000D02*
X14770000Y-12070000D01*
X14770000Y-12030000D02*
X14730000Y-12070000D01*
X14755000Y-12130000D02*
X14795000Y-12170000D01*
X14795000Y-12130000D02*
X14755000Y-12170000D01*
X14755000Y-12330000D02*
X14795000Y-12370000D01*
X14795000Y-12330000D02*
X14755000Y-12370000D01*
X14755000Y-12430000D02*
X14795000Y-12470000D01*
X14795000Y-12430000D02*
X14755000Y-12470000D01*
X14755000Y-12530000D02*
X14795000Y-12570000D01*
X14795000Y-12530000D02*
X14755000Y-12570000D01*
X14755000Y-12630000D02*
X14795000Y-12670000D01*
X14795000Y-12630000D02*
X14755000Y-12670000D01*
X14755000Y-12730000D02*
X14795000Y-12770000D01*
X14795000Y-12730000D02*
X14755000Y-12770000D01*
X14755000Y-12830000D02*
X14795000Y-12870000D01*
X14795000Y-12830000D02*
X14755000Y-12870000D01*
X14755000Y-12930000D02*
X14795000Y-12970000D01*
X14795000Y-12930000D02*
X14755000Y-12970000D01*
X14785659Y-9166084D02*
X14825659Y-9206084D01*
X14825659Y-9166084D02*
X14785659Y-9206084D01*
X14789950Y-9960365D02*
X14829950Y-10000365D01*
X14829950Y-9960365D02*
X14789950Y-10000365D01*
X14790000Y-11820000D02*
X14830000Y-11860000D01*
X14830000Y-11820000D02*
X14790000Y-11860000D01*
X14795000Y-9395000D02*
X14835000Y-9435000D01*
X14835000Y-9395000D02*
X14795000Y-9435000D01*
X14800000Y-8440000D02*
X14840000Y-8480000D01*
X14840000Y-8440000D02*
X14800000Y-8480000D01*
X14800000Y-9265000D02*
X14840000Y-9305000D01*
X14840000Y-9265000D02*
X14800000Y-9305000D01*
X14855000Y-12830000D02*
X14895000Y-12870000D01*
X14895000Y-12830000D02*
X14855000Y-12870000D01*
X14855000Y-12930000D02*
X14895000Y-12970000D01*
X14895000Y-12930000D02*
X14855000Y-12970000D01*
X14955000Y-12030000D02*
X14995000Y-12070000D01*
X14995000Y-12030000D02*
X14955000Y-12070000D01*
X14955000Y-12830000D02*
X14995000Y-12870000D01*
X14995000Y-12830000D02*
X14955000Y-12870000D01*
X14955000Y-12930000D02*
X14995000Y-12970000D01*
X14995000Y-12930000D02*
X14955000Y-12970000D01*
X15055000Y-12030000D02*
X15095000Y-12070000D01*
X15095000Y-12030000D02*
X15055000Y-12070000D01*
X15055000Y-12830000D02*
X15095000Y-12870000D01*
X15095000Y-12830000D02*
X15055000Y-12870000D01*
X15055000Y-12930000D02*
X15095000Y-12970000D01*
X15095000Y-12930000D02*
X15055000Y-12970000D01*
X15085000Y-9865000D02*
X15125000Y-9905000D01*
X15125000Y-9865000D02*
X15085000Y-9905000D01*
X15155000Y-12030000D02*
X15195000Y-12070000D01*
X15195000Y-12030000D02*
X15155000Y-12070000D01*
X15155000Y-12830000D02*
X15195000Y-12870000D01*
X15195000Y-12830000D02*
X15155000Y-12870000D01*
X15155000Y-12930000D02*
X15195000Y-12970000D01*
X15195000Y-12930000D02*
X15155000Y-12970000D01*
X15155050Y-11490000D02*
X15195050Y-11530000D01*
X15195050Y-11490000D02*
X15155050Y-11530000D01*
X15235000Y-9530000D02*
X15275000Y-9570000D01*
X15275000Y-9530000D02*
X15235000Y-9570000D01*
X15255000Y-12030000D02*
X15295000Y-12070000D01*
X15295000Y-12030000D02*
X15255000Y-12070000D01*
X15255000Y-12830000D02*
X15295000Y-12870000D01*
X15295000Y-12830000D02*
X15255000Y-12870000D01*
X15255000Y-12930000D02*
X15295000Y-12970000D01*
X15295000Y-12930000D02*
X15255000Y-12970000D01*
X15295000Y-10020000D02*
X15335000Y-10060000D01*
X15335000Y-10020000D02*
X15295000Y-10060000D01*
X15355000Y-12030000D02*
X15395000Y-12070000D01*
X15395000Y-12030000D02*
X15355000Y-12070000D01*
X15355000Y-12130000D02*
X15395000Y-12170000D01*
X15395000Y-12130000D02*
X15355000Y-12170000D01*
X15380000Y-12530000D02*
X15420000Y-12570000D01*
X15420000Y-12530000D02*
X15380000Y-12570000D01*
X15380000Y-12630000D02*
X15420000Y-12670000D01*
X15420000Y-12630000D02*
X15380000Y-12670000D01*
X15380000Y-12730000D02*
X15420000Y-12770000D01*
X15420000Y-12730000D02*
X15380000Y-12770000D01*
X15380000Y-12830000D02*
X15420000Y-12870000D01*
X15420000Y-12830000D02*
X15380000Y-12870000D01*
X15380000Y-12930000D02*
X15420000Y-12970000D01*
X15420000Y-12930000D02*
X15380000Y-12970000D01*
X15440000Y-11795000D02*
X15480000Y-11835000D01*
X15480000Y-11795000D02*
X15440000Y-11835000D01*
X15455000Y-11930000D02*
X15495000Y-11970000D01*
X15495000Y-11930000D02*
X15455000Y-11970000D01*
X15455000Y-12030000D02*
X15495000Y-12070000D01*
X15495000Y-12030000D02*
X15455000Y-12070000D01*
X15465000Y-8165000D02*
X15505000Y-8205000D01*
X15505000Y-8165000D02*
X15465000Y-8205000D01*
X15480000Y-8340000D02*
X15520000Y-8380000D01*
X15520000Y-8340000D02*
X15480000Y-8380000D01*
X15480000Y-12730000D02*
X15520000Y-12770000D01*
X15520000Y-12730000D02*
X15480000Y-12770000D01*
X15480000Y-12830000D02*
X15520000Y-12870000D01*
X15520000Y-12830000D02*
X15480000Y-12870000D01*
X15480000Y-12930000D02*
X15520000Y-12970000D01*
X15520000Y-12930000D02*
X15480000Y-12970000D01*
X15530000Y-7600000D02*
X15570000Y-7640000D01*
X15570000Y-7600000D02*
X15530000Y-7640000D01*
X15530000Y-10190000D02*
X15570000Y-10230000D01*
X15570000Y-10190000D02*
X15530000Y-10230000D01*
X15555000Y-11930000D02*
X15595000Y-11970000D01*
X15595000Y-11930000D02*
X15555000Y-11970000D01*
X15555000Y-12030000D02*
X15595000Y-12070000D01*
X15595000Y-12030000D02*
X15555000Y-12070000D01*
X15580000Y-12830000D02*
X15620000Y-12870000D01*
X15620000Y-12830000D02*
X15580000Y-12870000D01*
X15580000Y-12930000D02*
X15620000Y-12970000D01*
X15620000Y-12930000D02*
X15580000Y-12970000D01*
X15604545Y-9474796D02*
X15644545Y-9514796D01*
X15644545Y-9474796D02*
X15604545Y-9514796D01*
X15655000Y-11930000D02*
X15695000Y-11970000D01*
X15695000Y-11930000D02*
X15655000Y-11970000D01*
X15655000Y-12030000D02*
X15695000Y-12070000D01*
X15695000Y-12030000D02*
X15655000Y-12070000D01*
X15680000Y-12830000D02*
X15720000Y-12870000D01*
X15720000Y-12830000D02*
X15680000Y-12870000D01*
X15680000Y-12930000D02*
X15720000Y-12970000D01*
X15720000Y-12930000D02*
X15680000Y-12970000D01*
X15720000Y-11185000D02*
X15760000Y-11225000D01*
X15760000Y-11185000D02*
X15720000Y-11225000D01*
X15755000Y-11930000D02*
X15795000Y-11970000D01*
X15795000Y-11930000D02*
X15755000Y-11970000D01*
X15780000Y-12830000D02*
X15820000Y-12870000D01*
X15820000Y-12830000D02*
X15780000Y-12870000D01*
X15780000Y-12930000D02*
X15820000Y-12970000D01*
X15820000Y-12930000D02*
X15780000Y-12970000D01*
X15785000Y-10645000D02*
X15825000Y-10685000D01*
X15825000Y-10645000D02*
X15785000Y-10685000D01*
X15815000Y-9875000D02*
X15855000Y-9915000D01*
X15855000Y-9875000D02*
X15815000Y-9915000D01*
X15820000Y-9290000D02*
X15860000Y-9330000D01*
X15860000Y-9290000D02*
X15820000Y-9330000D01*
X15855000Y-11930000D02*
X15895000Y-11970000D01*
X15895000Y-11930000D02*
X15855000Y-11970000D01*
X15855000Y-12030000D02*
X15895000Y-12070000D01*
X15895000Y-12030000D02*
X15855000Y-12070000D01*
X15870000Y-8885000D02*
X15910000Y-8925000D01*
X15910000Y-8885000D02*
X15870000Y-8925000D01*
X15870000Y-10360000D02*
X15910000Y-10400000D01*
X15910000Y-10360000D02*
X15870000Y-10400000D01*
X15880000Y-12830000D02*
X15920000Y-12870000D01*
X15920000Y-12830000D02*
X15880000Y-12870000D01*
X15880000Y-12930000D02*
X15920000Y-12970000D01*
X15920000Y-12930000D02*
X15880000Y-12970000D01*
X15885000Y-9440000D02*
X15925000Y-9480000D01*
X15925000Y-9440000D02*
X15885000Y-9480000D01*
X15940000Y-9285000D02*
X15980000Y-9325000D01*
X15980000Y-9285000D02*
X15940000Y-9325000D01*
X15980000Y-12830000D02*
X16020000Y-12870000D01*
X16020000Y-12830000D02*
X15980000Y-12870000D01*
X15980000Y-12930000D02*
X16020000Y-12970000D01*
X16020000Y-12930000D02*
X15980000Y-12970000D01*
X16005000Y-11655000D02*
X16045000Y-11695000D01*
X16045000Y-11655000D02*
X16005000Y-11695000D01*
X16045000Y-9735000D02*
X16085000Y-9775000D01*
X16085000Y-9735000D02*
X16045000Y-9775000D01*
X16080000Y-12630000D02*
X16120000Y-12670000D01*
X16120000Y-12630000D02*
X16080000Y-12670000D01*
X16080000Y-12730000D02*
X16120000Y-12770000D01*
X16120000Y-12730000D02*
X16080000Y-12770000D01*
X16080000Y-12830000D02*
X16120000Y-12870000D01*
X16120000Y-12830000D02*
X16080000Y-12870000D01*
X16080000Y-12930000D02*
X16120000Y-12970000D01*
X16120000Y-12930000D02*
X16080000Y-12970000D01*
X16132196Y-9240359D02*
X16172196Y-9280359D01*
X16172196Y-9240359D02*
X16132196Y-9280359D01*
X16140000Y-10175000D02*
X16180000Y-10215000D01*
X16180000Y-10175000D02*
X16140000Y-10215000D01*
X16155000Y-11555000D02*
X16195000Y-11595000D01*
X16195000Y-11555000D02*
X16155000Y-11595000D01*
X16155000Y-11755000D02*
X16195000Y-11795000D01*
X16195000Y-11755000D02*
X16155000Y-11795000D01*
X16170000Y-8895000D02*
X16210000Y-8935000D01*
X16210000Y-8895000D02*
X16170000Y-8935000D01*
X16180000Y-12230000D02*
X16220000Y-12270000D01*
X16220000Y-12230000D02*
X16180000Y-12270000D01*
X16180000Y-12830000D02*
X16220000Y-12870000D01*
X16220000Y-12830000D02*
X16180000Y-12870000D01*
X16180000Y-12930000D02*
X16220000Y-12970000D01*
X16220000Y-12930000D02*
X16180000Y-12970000D01*
X16255000Y-11555000D02*
X16295000Y-11595000D01*
X16295000Y-11555000D02*
X16255000Y-11595000D01*
X16255000Y-11755000D02*
X16295000Y-11795000D01*
X16295000Y-11755000D02*
X16255000Y-11795000D01*
X16280000Y-12230000D02*
X16320000Y-12270000D01*
X16320000Y-12230000D02*
X16280000Y-12270000D01*
X16280000Y-12830000D02*
X16320000Y-12870000D01*
X16320000Y-12830000D02*
X16280000Y-12870000D01*
X16280000Y-12930000D02*
X16320000Y-12970000D01*
X16320000Y-12930000D02*
X16280000Y-12970000D01*
X16355000Y-9530000D02*
X16395000Y-9570000D01*
X16395000Y-9530000D02*
X16355000Y-9570000D01*
X16355000Y-11555000D02*
X16395000Y-11595000D01*
X16395000Y-11555000D02*
X16355000Y-11595000D01*
X16355000Y-11755000D02*
X16395000Y-11795000D01*
X16395000Y-11755000D02*
X16355000Y-11795000D01*
X16380000Y-12230000D02*
X16420000Y-12270000D01*
X16420000Y-12230000D02*
X16380000Y-12270000D01*
X16380000Y-12830000D02*
X16420000Y-12870000D01*
X16420000Y-12830000D02*
X16380000Y-12870000D01*
X16380000Y-12930000D02*
X16420000Y-12970000D01*
X16420000Y-12930000D02*
X16380000Y-12970000D01*
X16390000Y-10350000D02*
X16430000Y-10390000D01*
X16430000Y-10350000D02*
X16390000Y-10390000D01*
X16430000Y-7885000D02*
X16470000Y-7925000D01*
X16470000Y-7885000D02*
X16430000Y-7925000D01*
X16455000Y-11555000D02*
X16495000Y-11595000D01*
X16495000Y-11555000D02*
X16455000Y-11595000D01*
X16455000Y-11755000D02*
X16495000Y-11795000D01*
X16495000Y-11755000D02*
X16455000Y-11795000D01*
X16480000Y-12230000D02*
X16520000Y-12270000D01*
X16520000Y-12230000D02*
X16480000Y-12270000D01*
X16480000Y-12830000D02*
X16520000Y-12870000D01*
X16520000Y-12830000D02*
X16480000Y-12870000D01*
X16480000Y-12930000D02*
X16520000Y-12970000D01*
X16520000Y-12930000D02*
X16480000Y-12970000D01*
X16517839Y-9945050D02*
X16557839Y-9985050D01*
X16557839Y-9945050D02*
X16517839Y-9985050D01*
X16555000Y-11555000D02*
X16595000Y-11595000D01*
X16595000Y-11555000D02*
X16555000Y-11595000D01*
X16555000Y-11755000D02*
X16595000Y-11795000D01*
X16595000Y-11755000D02*
X16555000Y-11795000D01*
X16580000Y-12230000D02*
X16620000Y-12270000D01*
X16620000Y-12230000D02*
X16580000Y-12270000D01*
X16580000Y-12830000D02*
X16620000Y-12870000D01*
X16620000Y-12830000D02*
X16580000Y-12870000D01*
X16580000Y-12930000D02*
X16620000Y-12970000D01*
X16620000Y-12930000D02*
X16580000Y-12970000D01*
X16611581Y-9770862D02*
X16651581Y-9810862D01*
X16651581Y-9770862D02*
X16611581Y-9810862D01*
X16655000Y-10190000D02*
X16695000Y-10230000D01*
X16695000Y-10190000D02*
X16655000Y-10230000D01*
X16655000Y-11555000D02*
X16695000Y-11595000D01*
X16695000Y-11555000D02*
X16655000Y-11595000D01*
X16655000Y-11755000D02*
X16695000Y-11795000D01*
X16695000Y-11755000D02*
X16655000Y-11795000D01*
X16680000Y-12230000D02*
X16720000Y-12270000D01*
X16720000Y-12230000D02*
X16680000Y-12270000D01*
X16680000Y-12830000D02*
X16720000Y-12870000D01*
X16720000Y-12830000D02*
X16680000Y-12870000D01*
X16680000Y-12930000D02*
X16720000Y-12970000D01*
X16720000Y-12930000D02*
X16680000Y-12970000D01*
X16710000Y-7990000D02*
X16750000Y-8030000D01*
X16750000Y-7990000D02*
X16710000Y-8030000D01*
X16730000Y-12330000D02*
X16770000Y-12370000D01*
X16770000Y-12330000D02*
X16730000Y-12370000D01*
X16730000Y-12430000D02*
X16770000Y-12470000D01*
X16770000Y-12430000D02*
X16730000Y-12470000D01*
X16730000Y-12530000D02*
X16770000Y-12570000D01*
X16770000Y-12530000D02*
X16730000Y-12570000D01*
X16730000Y-12630000D02*
X16770000Y-12670000D01*
X16770000Y-12630000D02*
X16730000Y-12670000D01*
X16730000Y-12730000D02*
X16770000Y-12770000D01*
X16770000Y-12730000D02*
X16730000Y-12770000D01*
X16773507Y-9770076D02*
X16813508Y-9810076D01*
X16813508Y-9770076D02*
X16773507Y-9810076D01*
X16780000Y-7860000D02*
X16820000Y-7900000D01*
X16820000Y-7860000D02*
X16780000Y-7900000D01*
X16780000Y-11355000D02*
X16820000Y-11395000D01*
X16820000Y-11355000D02*
X16780000Y-11395000D01*
X16780000Y-11455000D02*
X16820000Y-11495000D01*
X16820000Y-11455000D02*
X16780000Y-11495000D01*
X16780000Y-11555000D02*
X16820000Y-11595000D01*
X16820000Y-11555000D02*
X16780000Y-11595000D01*
X16780000Y-11705000D02*
X16820000Y-11745000D01*
X16820000Y-11705000D02*
X16780000Y-11745000D01*
X16780000Y-12230000D02*
X16820000Y-12270000D01*
X16820000Y-12230000D02*
X16780000Y-12270000D01*
X16780000Y-12830000D02*
X16820000Y-12870000D01*
X16820000Y-12830000D02*
X16780000Y-12870000D01*
X16780000Y-12930000D02*
X16820000Y-12970000D01*
X16820000Y-12930000D02*
X16780000Y-12970000D01*
X16840000Y-10190000D02*
X16880000Y-10230000D01*
X16880000Y-10190000D02*
X16840000Y-10230000D01*
X16867054Y-8823073D02*
X16907054Y-8863073D01*
X16907054Y-8823073D02*
X16867054Y-8863073D01*
X16870000Y-9030000D02*
X16910000Y-9070000D01*
X16910000Y-9030000D02*
X16870000Y-9070000D01*
X16880000Y-9130000D02*
X16920000Y-9170000D01*
X16920000Y-9130000D02*
X16880000Y-9170000D01*
X16880000Y-11555000D02*
X16920000Y-11595000D01*
X16920000Y-11555000D02*
X16880000Y-11595000D01*
X16880000Y-12230000D02*
X16920000Y-12270000D01*
X16920000Y-12230000D02*
X16880000Y-12270000D01*
X16880000Y-12830000D02*
X16920000Y-12870000D01*
X16920000Y-12830000D02*
X16880000Y-12870000D01*
X16880000Y-12930000D02*
X16920000Y-12970000D01*
X16920000Y-12930000D02*
X16880000Y-12970000D01*
X16880428Y-8929572D02*
X16920428Y-8969572D01*
X16920428Y-8929572D02*
X16880428Y-8969572D01*
X16900111Y-8618550D02*
X16940111Y-8658550D01*
X16940111Y-8618550D02*
X16900111Y-8658550D01*
X16912954Y-8734286D02*
X16952954Y-8774286D01*
X16952954Y-8734286D02*
X16912954Y-8774286D01*
X16970000Y-9070000D02*
X17010000Y-9110000D01*
X17010000Y-9070000D02*
X16970000Y-9110000D01*
X16980000Y-11555000D02*
X17020000Y-11595000D01*
X17020000Y-11555000D02*
X16980000Y-11595000D01*
X16980000Y-11755000D02*
X17020000Y-11795000D01*
X17020000Y-11755000D02*
X16980000Y-11795000D01*
X16980000Y-12230000D02*
X17020000Y-12270000D01*
X17020000Y-12230000D02*
X16980000Y-12270000D01*
X16980000Y-12830000D02*
X17020000Y-12870000D01*
X17020000Y-12830000D02*
X16980000Y-12870000D01*
X16980000Y-12930000D02*
X17020000Y-12970000D01*
X17020000Y-12930000D02*
X16980000Y-12970000D01*
X17000000Y-9530000D02*
X17040000Y-9570000D01*
X17040000Y-9530000D02*
X17000000Y-9570000D01*
X17020000Y-8700000D02*
X17060000Y-8740000D01*
X17060000Y-8700000D02*
X17020000Y-8740000D01*
X17080000Y-11555000D02*
X17120000Y-11595000D01*
X17120000Y-11555000D02*
X17080000Y-11595000D01*
X17080000Y-11755000D02*
X17120000Y-11795000D01*
X17120000Y-11755000D02*
X17080000Y-11795000D01*
X17080000Y-12230000D02*
X17120000Y-12270000D01*
X17120000Y-12230000D02*
X17080000Y-12270000D01*
X17080000Y-12830000D02*
X17120000Y-12870000D01*
X17120000Y-12830000D02*
X17080000Y-12870000D01*
X17080000Y-12930000D02*
X17120000Y-12970000D01*
X17120000Y-12930000D02*
X17080000Y-12970000D01*
X17092450Y-9490000D02*
X17132450Y-9530000D01*
X17132450Y-9490000D02*
X17092450Y-9530000D01*
X17107508Y-9765902D02*
X17147508Y-9805902D01*
X17147508Y-9765902D02*
X17107508Y-9805902D01*
X17180000Y-11555000D02*
X17220000Y-11595000D01*
X17220000Y-11555000D02*
X17180000Y-11595000D01*
X17180000Y-11755000D02*
X17220000Y-11795000D01*
X17220000Y-11755000D02*
X17180000Y-11795000D01*
X17180000Y-12230000D02*
X17220000Y-12270000D01*
X17220000Y-12230000D02*
X17180000Y-12270000D01*
X17180000Y-12830000D02*
X17220000Y-12870000D01*
X17220000Y-12830000D02*
X17180000Y-12870000D01*
X17180000Y-12930000D02*
X17220000Y-12970000D01*
X17220000Y-12930000D02*
X17180000Y-12970000D01*
X17210000Y-8290000D02*
X17250000Y-8330000D01*
X17250000Y-8290000D02*
X17210000Y-8330000D01*
X17231230Y-8788770D02*
X17271230Y-8828770D01*
X17271230Y-8788770D02*
X17231230Y-8828770D01*
X17280000Y-11555000D02*
X17320000Y-11595000D01*
X17320000Y-11555000D02*
X17280000Y-11595000D01*
X17280000Y-11755000D02*
X17320000Y-11795000D01*
X17320000Y-11755000D02*
X17280000Y-11795000D01*
X17280000Y-12230000D02*
X17320000Y-12270000D01*
X17320000Y-12230000D02*
X17280000Y-12270000D01*
X17280000Y-12830000D02*
X17320000Y-12870000D01*
X17320000Y-12830000D02*
X17280000Y-12870000D01*
X17280000Y-12930000D02*
X17320000Y-12970000D01*
X17320000Y-12930000D02*
X17280000Y-12970000D01*
X17290000Y-10265000D02*
X17330000Y-10305000D01*
X17330000Y-10265000D02*
X17290000Y-10305000D01*
X17300000Y-9010000D02*
X17340000Y-9050000D01*
X17340000Y-9010000D02*
X17300000Y-9050000D01*
X17340000Y-8790000D02*
X17380000Y-8830000D01*
X17380000Y-8790000D02*
X17340000Y-8830000D01*
X17355000Y-9515000D02*
X17395000Y-9555000D01*
X17395000Y-9515000D02*
X17355000Y-9555000D01*
X17372450Y-9086566D02*
X17412450Y-9126566D01*
X17412450Y-9086566D02*
X17372450Y-9126566D01*
X17380000Y-11555000D02*
X17420000Y-11595000D01*
X17420000Y-11555000D02*
X17380000Y-11595000D01*
X17380000Y-11755000D02*
X17420000Y-11795000D01*
X17420000Y-11755000D02*
X17380000Y-11795000D01*
X17380000Y-12830000D02*
X17420000Y-12870000D01*
X17420000Y-12830000D02*
X17380000Y-12870000D01*
X17380000Y-12930000D02*
X17420000Y-12970000D01*
X17420000Y-12930000D02*
X17380000Y-12970000D01*
X17410000Y-8590000D02*
X17450000Y-8630000D01*
X17450000Y-8590000D02*
X17410000Y-8630000D01*
X17410000Y-8700000D02*
X17450000Y-8740000D01*
X17450000Y-8700000D02*
X17410000Y-8740000D01*
X17430000Y-12330000D02*
X17470000Y-12370000D01*
X17470000Y-12330000D02*
X17430000Y-12370000D01*
X17430000Y-12430000D02*
X17470000Y-12470000D01*
X17470000Y-12430000D02*
X17430000Y-12470000D01*
X17430000Y-12530000D02*
X17470000Y-12570000D01*
X17470000Y-12530000D02*
X17430000Y-12570000D01*
X17430000Y-12630000D02*
X17470000Y-12670000D01*
X17470000Y-12630000D02*
X17430000Y-12670000D01*
X17430000Y-12730000D02*
X17470000Y-12770000D01*
X17470000Y-12730000D02*
X17430000Y-12770000D01*
X17480000Y-12830000D02*
X17520000Y-12870000D01*
X17520000Y-12830000D02*
X17480000Y-12870000D01*
X17480000Y-12930000D02*
X17520000Y-12970000D01*
X17520000Y-12930000D02*
X17480000Y-12970000D01*
X17560000Y-8340000D02*
X17600000Y-8380000D01*
X17600000Y-8340000D02*
X17560000Y-8380000D01*
X17560000Y-10000000D02*
X17600000Y-10040000D01*
X17600000Y-10000000D02*
X17560000Y-10040000D01*
X17580000Y-12830000D02*
X17620000Y-12870000D01*
X17620000Y-12830000D02*
X17580000Y-12870000D01*
X17580000Y-12930000D02*
X17620000Y-12970000D01*
X17620000Y-12930000D02*
X17580000Y-12970000D01*
X17645000Y-9620000D02*
X17685000Y-9660000D01*
X17685000Y-9620000D02*
X17645000Y-9660000D01*
X17680000Y-12030000D02*
X17720000Y-12070000D01*
X17720000Y-12030000D02*
X17680000Y-12070000D01*
X17680000Y-12830000D02*
X17720000Y-12870000D01*
X17720000Y-12830000D02*
X17680000Y-12870000D01*
X17680000Y-12930000D02*
X17720000Y-12970000D01*
X17720000Y-12930000D02*
X17680000Y-12970000D01*
X17748840Y-8772750D02*
X17788840Y-8812750D01*
X17788840Y-8772750D02*
X17748840Y-8812750D01*
X17749950Y-8672806D02*
X17789950Y-8712806D01*
X17789950Y-8672806D02*
X17749950Y-8712806D01*
X17780000Y-12030000D02*
X17820000Y-12070000D01*
X17820000Y-12030000D02*
X17780000Y-12070000D01*
X17780000Y-12830000D02*
X17820000Y-12870000D01*
X17820000Y-12830000D02*
X17780000Y-12870000D01*
X17780000Y-12930000D02*
X17820000Y-12970000D01*
X17820000Y-12930000D02*
X17780000Y-12970000D01*
X17800000Y-11495000D02*
X17840000Y-11535000D01*
X17840000Y-11495000D02*
X17800000Y-11535000D01*
X17840000Y-8965000D02*
X17880000Y-9005000D01*
X17880000Y-8965000D02*
X17840000Y-9005000D01*
X17880000Y-12030000D02*
X17920000Y-12070000D01*
X17920000Y-12030000D02*
X17880000Y-12070000D01*
X17880000Y-12830000D02*
X17920000Y-12870000D01*
X17920000Y-12830000D02*
X17880000Y-12870000D01*
X17880000Y-12930000D02*
X17920000Y-12970000D01*
X17920000Y-12930000D02*
X17880000Y-12970000D01*
X17965000Y-9970000D02*
X18005000Y-10010000D01*
X18005000Y-9970000D02*
X17965000Y-10010000D01*
X17980000Y-12030000D02*
X18020000Y-12070000D01*
X18020000Y-12030000D02*
X17980000Y-12070000D01*
X17980000Y-12330000D02*
X18020000Y-12370000D01*
X18020000Y-12330000D02*
X17980000Y-12370000D01*
X17980000Y-12430000D02*
X18020000Y-12470000D01*
X18020000Y-12430000D02*
X17980000Y-12470000D01*
X17980000Y-12530000D02*
X18020000Y-12570000D01*
X18020000Y-12530000D02*
X17980000Y-12570000D01*
X17980000Y-12630000D02*
X18020000Y-12670000D01*
X18020000Y-12630000D02*
X17980000Y-12670000D01*
X17980000Y-12730000D02*
X18020000Y-12770000D01*
X18020000Y-12730000D02*
X17980000Y-12770000D01*
X17980000Y-12830000D02*
X18020000Y-12870000D01*
X18020000Y-12830000D02*
X17980000Y-12870000D01*
X17980000Y-12930000D02*
X18020000Y-12970000D01*
X18020000Y-12930000D02*
X17980000Y-12970000D01*
X18025000Y-8610000D02*
X18065000Y-8650000D01*
X18065000Y-8610000D02*
X18025000Y-8650000D01*
X18030000Y-12105000D02*
X18070000Y-12145000D01*
X18070000Y-12105000D02*
X18030000Y-12145000D01*
X18030000Y-12205000D02*
X18070000Y-12245000D01*
X18070000Y-12205000D02*
X18030000Y-12245000D01*
X18040000Y-8965000D02*
X18080000Y-9005000D01*
X18080000Y-8965000D02*
X18040000Y-9005000D01*
X18070000Y-9390000D02*
X18110000Y-9430000D01*
X18110000Y-9390000D02*
X18070000Y-9430000D01*
X18080000Y-12030000D02*
X18120000Y-12070000D01*
X18120000Y-12030000D02*
X18080000Y-12070000D01*
X18080000Y-12330000D02*
X18120000Y-12370000D01*
X18120000Y-12330000D02*
X18080000Y-12370000D01*
X18080000Y-12430000D02*
X18120000Y-12470000D01*
X18120000Y-12430000D02*
X18080000Y-12470000D01*
X18080000Y-12530000D02*
X18120000Y-12570000D01*
X18120000Y-12530000D02*
X18080000Y-12570000D01*
X18080000Y-12630000D02*
X18120000Y-12670000D01*
X18120000Y-12630000D02*
X18080000Y-12670000D01*
X18080000Y-12730000D02*
X18120000Y-12770000D01*
X18120000Y-12730000D02*
X18080000Y-12770000D01*
X18080000Y-12830000D02*
X18120000Y-12870000D01*
X18120000Y-12830000D02*
X18080000Y-12870000D01*
X18080000Y-12930000D02*
X18120000Y-12970000D01*
X18120000Y-12930000D02*
X18080000Y-12970000D01*
X18140000Y-10270000D02*
X18180000Y-10310000D01*
X18180000Y-10270000D02*
X18140000Y-10310000D01*
X18143604Y-11633604D02*
X18183604Y-11673604D01*
X18183604Y-11633604D02*
X18143604Y-11673604D01*
X18160000Y-9810000D02*
X18200000Y-9850000D01*
X18200000Y-9810000D02*
X18160000Y-9850000D01*
X18180000Y-12830000D02*
X18220000Y-12870000D01*
X18220000Y-12830000D02*
X18180000Y-12870000D01*
X18180000Y-12930000D02*
X18220000Y-12970000D01*
X18220000Y-12930000D02*
X18180000Y-12970000D01*
X18185440Y-8599265D02*
X18225440Y-8639265D01*
X18225440Y-8599265D02*
X18185440Y-8639265D01*
X18205530Y-9290960D02*
X18245530Y-9330960D01*
X18245530Y-9290960D02*
X18205530Y-9330960D01*
X18240000Y-9465000D02*
X18280000Y-9505000D01*
X18280000Y-9465000D02*
X18240000Y-9505000D01*
X18280000Y-11955000D02*
X18320000Y-11995000D01*
X18320000Y-11955000D02*
X18280000Y-11995000D01*
X18280000Y-12830000D02*
X18320000Y-12870000D01*
X18320000Y-12830000D02*
X18280000Y-12870000D01*
X18280000Y-12930000D02*
X18320000Y-12970000D01*
X18320000Y-12930000D02*
X18280000Y-12970000D01*
X18330000Y-11880000D02*
X18370000Y-11920000D01*
X18370000Y-11880000D02*
X18330000Y-11920000D01*
X18330000Y-12030000D02*
X18370000Y-12070000D01*
X18370000Y-12030000D02*
X18330000Y-12070000D01*
X18350000Y-10350000D02*
X18390000Y-10390000D01*
X18390000Y-10350000D02*
X18350000Y-10390000D01*
X18380000Y-11955000D02*
X18420000Y-11995000D01*
X18420000Y-11955000D02*
X18380000Y-11995000D01*
X18380000Y-12830000D02*
X18420000Y-12870000D01*
X18420000Y-12830000D02*
X18380000Y-12870000D01*
X18380000Y-12930000D02*
X18420000Y-12970000D01*
X18420000Y-12930000D02*
X18380000Y-12970000D01*
X18380346Y-9212450D02*
X18420346Y-9252450D01*
X18420346Y-9212450D02*
X18380346Y-9252450D01*
X18405000Y-10030000D02*
X18445000Y-10070000D01*
X18445000Y-10030000D02*
X18405000Y-10070000D01*
X18430000Y-11880000D02*
X18470000Y-11920000D01*
X18470000Y-11880000D02*
X18430000Y-11920000D01*
X18430000Y-12030000D02*
X18470000Y-12070000D01*
X18470000Y-12030000D02*
X18430000Y-12070000D01*
X18480000Y-12830000D02*
X18520000Y-12870000D01*
X18520000Y-12830000D02*
X18480000Y-12870000D01*
X18480000Y-12930000D02*
X18520000Y-12970000D01*
X18520000Y-12930000D02*
X18480000Y-12970000D01*
X18530000Y-12030000D02*
X18570000Y-12070000D01*
X18570000Y-12030000D02*
X18530000Y-12070000D01*
X18580000Y-11655000D02*
X18620000Y-11695000D01*
X18620000Y-11655000D02*
X18580000Y-11695000D01*
X18630000Y-12030000D02*
X18670000Y-12070000D01*
X18670000Y-12030000D02*
X18630000Y-12070000D01*
X18655000Y-9112450D02*
X18695000Y-9152450D01*
X18695000Y-9112450D02*
X18655000Y-9152450D01*
X18680000Y-12130000D02*
X18720000Y-12170000D01*
X18720000Y-12130000D02*
X18680000Y-12170000D01*
X18680000Y-12230000D02*
X18720000Y-12270000D01*
X18720000Y-12230000D02*
X18680000Y-12270000D01*
X18680000Y-12320000D02*
X18720000Y-12360000D01*
X18720000Y-12320000D02*
X18680000Y-12360000D01*
X18680000Y-12420000D02*
X18720000Y-12460000D01*
X18720000Y-12420000D02*
X18680000Y-12460000D01*
X18680000Y-12520000D02*
X18720000Y-12560000D01*
X18720000Y-12520000D02*
X18680000Y-12560000D01*
X18680000Y-12620000D02*
X18720000Y-12660000D01*
X18720000Y-12620000D02*
X18680000Y-12660000D01*
X18680000Y-12720000D02*
X18720000Y-12760000D01*
X18720000Y-12720000D02*
X18680000Y-12760000D01*
X18680000Y-12820000D02*
X18720000Y-12860000D01*
X18720000Y-12820000D02*
X18680000Y-12860000D01*
X18680000Y-12920000D02*
X18720000Y-12960000D01*
X18720000Y-12920000D02*
X18680000Y-12960000D01*
X18685000Y-9935000D02*
X18725000Y-9975000D01*
X18725000Y-9935000D02*
X18685000Y-9975000D01*
X18720000Y-8260000D02*
X18760000Y-8300000D01*
X18760000Y-8260000D02*
X18720000Y-8300000D01*
X18722001Y-12031709D02*
X18762001Y-12071709D01*
X18762001Y-12031709D02*
X18722001Y-12071709D01*
X18772550Y-9040000D02*
X18812550Y-9080000D01*
X18812550Y-9040000D02*
X18772550Y-9080000D01*
X18780000Y-12820000D02*
X18820000Y-12860000D01*
X18820000Y-12820000D02*
X18780000Y-12860000D01*
X18780000Y-12920000D02*
X18820000Y-12960000D01*
X18820000Y-12920000D02*
X18780000Y-12960000D01*
X18880000Y-12820000D02*
X18920000Y-12860000D01*
X18920000Y-12820000D02*
X18880000Y-12860000D01*
X18880000Y-12920000D02*
X18920000Y-12960000D01*
X18920000Y-12920000D02*
X18880000Y-12960000D01*
X18895000Y-10365000D02*
X18935000Y-10405000D01*
X18935000Y-10365000D02*
X18895000Y-10405000D01*
X18905000Y-11555000D02*
X18945000Y-11595000D01*
X18945000Y-11555000D02*
X18905000Y-11595000D01*
X18905000Y-11755000D02*
X18945000Y-11795000D01*
X18945000Y-11755000D02*
X18905000Y-11795000D01*
X18980000Y-12820000D02*
X19020000Y-12860000D01*
X19020000Y-12820000D02*
X18980000Y-12860000D01*
X18980000Y-12920000D02*
X19020000Y-12960000D01*
X19020000Y-12920000D02*
X18980000Y-12960000D01*
X19005000Y-11555000D02*
X19045000Y-11595000D01*
X19045000Y-11555000D02*
X19005000Y-11595000D01*
X19005000Y-11755000D02*
X19045000Y-11795000D01*
X19045000Y-11755000D02*
X19005000Y-11795000D01*
X19020000Y-10145000D02*
X19060000Y-10185000D01*
X19060000Y-10145000D02*
X19020000Y-10185000D01*
X19075000Y-9690000D02*
X19115000Y-9730000D01*
X19115000Y-9690000D02*
X19075000Y-9730000D01*
X19077572Y-9590083D02*
X19117572Y-9630083D01*
X19117572Y-9590083D02*
X19077572Y-9630083D01*
X19080000Y-12820000D02*
X19120000Y-12860000D01*
X19120000Y-12820000D02*
X19080000Y-12860000D01*
X19080000Y-12920000D02*
X19120000Y-12960000D01*
X19120000Y-12920000D02*
X19080000Y-12960000D01*
X19105000Y-11555000D02*
X19145000Y-11595000D01*
X19145000Y-11555000D02*
X19105000Y-11595000D01*
X19105000Y-11755000D02*
X19145000Y-11795000D01*
X19145000Y-11755000D02*
X19105000Y-11795000D01*
X19180000Y-12820000D02*
X19220000Y-12860000D01*
X19220000Y-12820000D02*
X19180000Y-12860000D01*
X19180000Y-12920000D02*
X19220000Y-12960000D01*
X19220000Y-12920000D02*
X19180000Y-12960000D01*
X19205000Y-11555000D02*
X19245000Y-11595000D01*
X19245000Y-11555000D02*
X19205000Y-11595000D01*
X19205000Y-11755000D02*
X19245000Y-11795000D01*
X19245000Y-11755000D02*
X19205000Y-11795000D01*
X19280000Y-12820000D02*
X19320000Y-12860000D01*
X19320000Y-12820000D02*
X19280000Y-12860000D01*
X19280000Y-12920000D02*
X19320000Y-12960000D01*
X19320000Y-12920000D02*
X19280000Y-12960000D01*
X19305000Y-11555000D02*
X19345000Y-11595000D01*
X19345000Y-11555000D02*
X19305000Y-11595000D01*
X19305000Y-11755000D02*
X19345000Y-11795000D01*
X19345000Y-11755000D02*
X19305000Y-11795000D01*
X19320000Y-12320000D02*
X19360000Y-12360000D01*
X19360000Y-12320000D02*
X19320000Y-12360000D01*
X19320000Y-12420000D02*
X19360000Y-12460000D01*
X19360000Y-12420000D02*
X19320000Y-12460000D01*
X19320000Y-12520000D02*
X19360000Y-12560000D01*
X19360000Y-12520000D02*
X19320000Y-12560000D01*
X19320000Y-12620000D02*
X19360000Y-12660000D01*
X19360000Y-12620000D02*
X19320000Y-12660000D01*
X19320000Y-12720000D02*
X19360000Y-12760000D01*
X19360000Y-12720000D02*
X19320000Y-12760000D01*
X19340000Y-10830000D02*
X19380000Y-10870000D01*
X19380000Y-10830000D02*
X19340000Y-10870000D01*
X19380000Y-12820000D02*
X19420000Y-12860000D01*
X19420000Y-12820000D02*
X19380000Y-12860000D01*
X19380000Y-12920000D02*
X19420000Y-12960000D01*
X19420000Y-12920000D02*
X19380000Y-12960000D01*
X19405000Y-11555000D02*
X19445000Y-11595000D01*
X19445000Y-11555000D02*
X19405000Y-11595000D01*
X19430714Y-8623210D02*
X19470714Y-8663210D01*
X19470714Y-8623210D02*
X19430714Y-8663210D01*
X19434462Y-8519462D02*
X19474462Y-8559462D01*
X19474462Y-8519462D02*
X19434462Y-8559462D01*
X19480000Y-12820000D02*
X19520000Y-12860000D01*
X19520000Y-12820000D02*
X19480000Y-12860000D01*
X19480000Y-12920000D02*
X19520000Y-12960000D01*
X19520000Y-12920000D02*
X19480000Y-12960000D01*
X19505000Y-11355000D02*
X19545000Y-11395000D01*
X19545000Y-11355000D02*
X19505000Y-11395000D01*
X19505000Y-11455000D02*
X19545000Y-11495000D01*
X19545000Y-11455000D02*
X19505000Y-11495000D01*
X19505000Y-11555000D02*
X19545000Y-11595000D01*
X19545000Y-11555000D02*
X19505000Y-11595000D01*
X19580000Y-12820000D02*
X19620000Y-12860000D01*
X19620000Y-12820000D02*
X19580000Y-12860000D01*
X19580000Y-12920000D02*
X19620000Y-12960000D01*
X19620000Y-12920000D02*
X19580000Y-12960000D01*
X19605000Y-11555000D02*
X19645000Y-11595000D01*
X19645000Y-11555000D02*
X19605000Y-11595000D01*
X19680000Y-12820000D02*
X19720000Y-12860000D01*
X19720000Y-12820000D02*
X19680000Y-12860000D01*
X19680000Y-12920000D02*
X19720000Y-12960000D01*
X19720000Y-12920000D02*
X19680000Y-12960000D01*
X19705000Y-11555000D02*
X19745000Y-11595000D01*
X19745000Y-11555000D02*
X19705000Y-11595000D01*
X19705000Y-11755000D02*
X19745000Y-11795000D01*
X19745000Y-11755000D02*
X19705000Y-11795000D01*
X19780000Y-12820000D02*
X19820000Y-12860000D01*
X19820000Y-12820000D02*
X19780000Y-12860000D01*
X19780000Y-12920000D02*
X19820000Y-12960000D01*
X19820000Y-12920000D02*
X19780000Y-12960000D01*
X19805000Y-11555000D02*
X19845000Y-11595000D01*
X19845000Y-11555000D02*
X19805000Y-11595000D01*
X19805000Y-11755000D02*
X19845000Y-11795000D01*
X19845000Y-11755000D02*
X19805000Y-11795000D01*
X19880000Y-12820000D02*
X19920000Y-12860000D01*
X19920000Y-12820000D02*
X19880000Y-12860000D01*
X19880000Y-12920000D02*
X19920000Y-12960000D01*
X19920000Y-12920000D02*
X19880000Y-12960000D01*
X19905000Y-11555000D02*
X19945000Y-11595000D01*
X19945000Y-11555000D02*
X19905000Y-11595000D01*
X19905000Y-11755000D02*
X19945000Y-11795000D01*
X19945000Y-11755000D02*
X19905000Y-11795000D01*
X19940000Y-12320000D02*
X19980000Y-12360000D01*
X19980000Y-12320000D02*
X19940000Y-12360000D01*
X19940000Y-12620000D02*
X19980000Y-12660000D01*
X19980000Y-12620000D02*
X19940000Y-12660000D01*
X19940000Y-12720000D02*
X19980000Y-12760000D01*
X19980000Y-12720000D02*
X19940000Y-12760000D01*
X19980000Y-11199950D02*
X20020000Y-11239950D01*
X20020000Y-11199950D02*
X19980000Y-11239950D01*
X19980000Y-12820000D02*
X20020000Y-12860000D01*
X20020000Y-12820000D02*
X19980000Y-12860000D01*
X19980000Y-12920000D02*
X20020000Y-12960000D01*
X20020000Y-12920000D02*
X19980000Y-12960000D01*
X20005000Y-11555000D02*
X20045000Y-11595000D01*
X20045000Y-11555000D02*
X20005000Y-11595000D01*
X20005000Y-11755000D02*
X20045000Y-11795000D01*
X20045000Y-11755000D02*
X20005000Y-11795000D01*
X20055000Y-10730000D02*
X20095000Y-10770000D01*
X20095000Y-10730000D02*
X20055000Y-10770000D01*
X20105000Y-11555000D02*
X20145000Y-11595000D01*
X20145000Y-11555000D02*
X20105000Y-11595000D01*
X20105000Y-11755000D02*
X20145000Y-11795000D01*
X20145000Y-11755000D02*
X20105000Y-11795000D01*
X20165000Y-10740000D02*
X20205000Y-10780000D01*
X20205000Y-10740000D02*
X20165000Y-10780000D01*
X20172686Y-11109950D02*
X20212686Y-11149950D01*
X20212686Y-11109950D02*
X20172686Y-11149950D01*
X20478500Y-10968500D02*
X20518500Y-11008500D01*
X20518500Y-10968500D02*
X20478500Y-11008500D01*
X20700000Y-11410000D02*
X20740000Y-11450000D01*
X20740000Y-11410000D02*
X20700000Y-11450000D01*
X10155000Y-10750000D02*
G75*
G03*
X10155000Y-10750000I-20000J0D01*
G01*
X10203327Y-10633327D02*
G75*
G03*
X10203327Y-10633327I-20000J0D01*
G01*
X10203327Y-10866673D02*
G75*
G03*
X10203327Y-10866673I-20000J0D01*
G01*
X10205000Y-7825000D02*
G75*
G03*
X10205000Y-7825000I-20000J0D01*
G01*
X10253327Y-7708327D02*
G75*
G03*
X10253327Y-7708327I-20000J0D01*
G01*
X10253327Y-7941673D02*
G75*
G03*
X10253327Y-7941673I-20000J0D01*
G01*
X10320000Y-10585000D02*
G75*
G03*
X10320000Y-10585000I-20000J0D01*
G01*
X10320000Y-10915000D02*
G75*
G03*
X10320000Y-10915000I-20000J0D01*
G01*
X10370000Y-7660000D02*
G75*
G03*
X10370000Y-7660000I-20000J0D01*
G01*
X10370000Y-7990000D02*
G75*
G03*
X10370000Y-7990000I-20000J0D01*
G01*
X10436673Y-10633327D02*
G75*
G03*
X10436673Y-10633327I-20000J0D01*
G01*
X10436673Y-10866673D02*
G75*
G03*
X10436673Y-10866673I-20000J0D01*
G01*
X10485000Y-10750000D02*
G75*
G03*
X10485000Y-10750000I-20000J0D01*
G01*
X10486673Y-7708327D02*
G75*
G03*
X10486673Y-7708327I-20000J0D01*
G01*
X10486673Y-7941673D02*
G75*
G03*
X10486673Y-7941673I-20000J0D01*
G01*
X10535000Y-7825000D02*
G75*
G03*
X10535000Y-7825000I-20000J0D01*
G01*
X13055000Y-10725000D02*
G75*
G03*
X13055000Y-10725000I-20000J0D01*
G01*
X13103327Y-10608327D02*
G75*
G03*
X13103327Y-10608327I-20000J0D01*
G01*
X13103327Y-10841673D02*
G75*
G03*
X13103327Y-10841673I-20000J0D01*
G01*
X13220000Y-10560000D02*
G75*
G03*
X13220000Y-10560000I-20000J0D01*
G01*
X13220000Y-10890000D02*
G75*
G03*
X13220000Y-10890000I-20000J0D01*
G01*
X13336673Y-10608327D02*
G75*
G03*
X13336673Y-10608327I-20000J0D01*
G01*
X13336673Y-10841673D02*
G75*
G03*
X13336673Y-10841673I-20000J0D01*
G01*
X13385000Y-10725000D02*
G75*
G03*
X13385000Y-10725000I-20000J0D01*
G01*
X15030000Y-10725000D02*
G75*
G03*
X15030000Y-10725000I-20000J0D01*
G01*
X15078327Y-10608327D02*
G75*
G03*
X15078327Y-10608327I-20000J0D01*
G01*
X15078327Y-10841673D02*
G75*
G03*
X15078327Y-10841673I-20000J0D01*
G01*
X15195000Y-10560000D02*
G75*
G03*
X15195000Y-10560000I-20000J0D01*
G01*
X15195000Y-10890000D02*
G75*
G03*
X15195000Y-10890000I-20000J0D01*
G01*
X15311673Y-10608327D02*
G75*
G03*
X15311673Y-10608327I-20000J0D01*
G01*
X15311673Y-10841673D02*
G75*
G03*
X15311673Y-10841673I-20000J0D01*
G01*
X15360000Y-10725000D02*
G75*
G03*
X15360000Y-10725000I-20000J0D01*
G01*
X17680000Y-10725000D02*
G75*
G03*
X17680000Y-10725000I-20000J0D01*
G01*
X17728327Y-10608327D02*
G75*
G03*
X17728327Y-10608327I-20000J0D01*
G01*
X17728327Y-10841673D02*
G75*
G03*
X17728327Y-10841673I-20000J0D01*
G01*
X17845000Y-10560000D02*
G75*
G03*
X17845000Y-10560000I-20000J0D01*
G01*
X17845000Y-10890000D02*
G75*
G03*
X17845000Y-10890000I-20000J0D01*
G01*
X17961673Y-10608327D02*
G75*
G03*
X17961673Y-10608327I-20000J0D01*
G01*
X17961673Y-10841673D02*
G75*
G03*
X17961673Y-10841673I-20000J0D01*
G01*
X18010000Y-10725000D02*
G75*
G03*
X18010000Y-10725000I-20000J0D01*
G01*
D13*
X10960000Y-12475000D02*
X10960000Y-12525000D01*
X10935000Y-12500000D02*
X10985000Y-12500000D01*
X11030294Y-12305294D02*
X11030294Y-12355294D01*
X11005294Y-12330294D02*
X11055294Y-12330294D01*
X11030294Y-12644706D02*
X11030294Y-12694706D01*
X11005294Y-12669706D02*
X11055294Y-12669706D01*
X11200000Y-12235000D02*
X11200000Y-12285000D01*
X11175000Y-12260000D02*
X11225000Y-12260000D01*
X11200000Y-12715000D02*
X11200000Y-12765000D01*
X11175000Y-12740000D02*
X11225000Y-12740000D01*
X11369706Y-12305294D02*
X11369706Y-12355294D01*
X11344706Y-12330294D02*
X11394706Y-12330294D01*
X11369706Y-12644706D02*
X11369706Y-12694706D01*
X11344706Y-12669706D02*
X11394706Y-12669706D01*
X11440000Y-12475000D02*
X11440000Y-12525000D01*
X11415000Y-12500000D02*
X11465000Y-12500000D01*
X15525000Y-12397000D02*
X15525000Y-12447000D01*
X15500000Y-12422000D02*
X15550000Y-12422000D01*
X15595294Y-12227294D02*
X15595294Y-12277294D01*
X15570294Y-12252294D02*
X15620294Y-12252294D01*
X15595294Y-12566706D02*
X15595294Y-12616706D01*
X15570294Y-12591706D02*
X15620294Y-12591706D01*
X15765000Y-12157000D02*
X15765000Y-12207000D01*
X15740000Y-12182000D02*
X15790000Y-12182000D01*
X15765000Y-12637000D02*
X15765000Y-12687000D01*
X15740000Y-12662000D02*
X15790000Y-12662000D01*
X15934706Y-12227294D02*
X15934706Y-12277294D01*
X15909706Y-12252294D02*
X15959706Y-12252294D01*
X15934706Y-12566706D02*
X15934706Y-12616706D01*
X15909706Y-12591706D02*
X15959706Y-12591706D01*
X16005000Y-12397000D02*
X16005000Y-12447000D01*
X15980000Y-12422000D02*
X16030000Y-12422000D01*
X20090000Y-12475000D02*
X20090000Y-12525000D01*
X20065000Y-12500000D02*
X20115000Y-12500000D01*
X20160294Y-12305294D02*
X20160294Y-12355294D01*
X20135294Y-12330294D02*
X20185294Y-12330294D01*
X20160294Y-12644706D02*
X20160294Y-12694706D01*
X20135294Y-12669706D02*
X20185294Y-12669706D01*
X20330000Y-12235000D02*
X20330000Y-12285000D01*
X20305000Y-12260000D02*
X20355000Y-12260000D01*
X20330000Y-12715000D02*
X20330000Y-12765000D01*
X20305000Y-12740000D02*
X20355000Y-12740000D01*
X20499706Y-12305294D02*
X20499706Y-12355294D01*
X20474706Y-12330294D02*
X20524706Y-12330294D01*
X20499706Y-12644706D02*
X20499706Y-12694706D01*
X20474706Y-12669706D02*
X20524706Y-12669706D01*
X20570000Y-12475000D02*
X20570000Y-12525000D01*
X20545000Y-12500000D02*
X20595000Y-12500000D01*
D14*
X19876213Y-8203713D02*
X19876213Y-8161287D01*
X19833787Y-8161287D01*
X19833787Y-8203713D01*
X19876213Y-8203713D01*
D11*
X19820000Y-8212500D02*
X19890000Y-8212500D01*
X19820000Y-8152500D02*
X19890000Y-8152500D01*
X19890000Y-8212500D02*
G75*
G03*
X19890000Y-8152500I0J30000D01*
G01*
X19820000Y-8152500D02*
G75*
G03*
X19820000Y-8212500I0J-30000D01*
G01*
D14*
X19876213Y-9038713D02*
X19876213Y-8996287D01*
X19833787Y-8996287D01*
X19833787Y-9038713D01*
X19876213Y-9038713D01*
D11*
X19820000Y-9047500D02*
X19890000Y-9047500D01*
X19820000Y-8987500D02*
X19890000Y-8987500D01*
X19890000Y-9047500D02*
G75*
G03*
X19890000Y-8987500I0J30000D01*
G01*
X19820000Y-8987500D02*
G75*
G03*
X19820000Y-9047500I0J-30000D01*
G01*
D15*
X17672000Y-7720000D02*
X17704500Y-7687500D01*
X17672000Y-7655000D01*
X17639500Y-7687500D01*
X17672000Y-7720000D01*
X17672000Y-7847000D02*
X17704500Y-7814500D01*
X17672000Y-7782000D01*
X17639500Y-7814500D01*
X17672000Y-7847000D01*
X17799000Y-7720000D02*
X17831500Y-7687500D01*
X17799000Y-7655000D01*
X17766500Y-7687500D01*
X17799000Y-7720000D01*
X17799000Y-7847000D02*
X17831500Y-7814500D01*
X17799000Y-7782000D01*
X17766500Y-7814500D01*
X17799000Y-7847000D01*
X17926000Y-7720000D02*
X17958500Y-7687500D01*
X17926000Y-7655000D01*
X17893500Y-7687500D01*
X17926000Y-7720000D01*
X17926000Y-7847000D02*
X17958500Y-7814500D01*
X17926000Y-7782000D01*
X17893500Y-7814500D01*
X17926000Y-7847000D01*
X18053000Y-7720000D02*
X18085500Y-7687500D01*
X18053000Y-7655000D01*
X18020500Y-7687500D01*
X18053000Y-7720000D01*
X18053000Y-7847000D02*
X18085500Y-7814500D01*
X18053000Y-7782000D01*
X18020500Y-7814500D01*
X18053000Y-7847000D01*
X18180000Y-7720000D02*
X18212500Y-7687500D01*
X18180000Y-7655000D01*
X18147500Y-7687500D01*
X18180000Y-7720000D01*
X18180000Y-7847000D02*
X18212500Y-7814500D01*
X18180000Y-7782000D01*
X18147500Y-7814500D01*
X18180000Y-7847000D01*
X19555000Y-8410000D02*
X19587500Y-8377500D01*
X19555000Y-8345000D01*
X19522500Y-8377500D01*
X19555000Y-8410000D01*
D11*
X19545000Y-8410000D02*
X19565000Y-8410000D01*
X19545000Y-8345000D02*
X19565000Y-8345000D01*
X19565000Y-8410000D02*
G75*
G03*
X19565000Y-8345000I0J32500D01*
G01*
X19545000Y-8345000D02*
G75*
G03*
X19545000Y-8410000I0J-32500D01*
G01*
D15*
X19555000Y-8855000D02*
X19587500Y-8822500D01*
X19555000Y-8790000D01*
X19522500Y-8822500D01*
X19555000Y-8855000D01*
D11*
X19545000Y-8855000D02*
X19565000Y-8855000D01*
X19545000Y-8790000D02*
X19565000Y-8790000D01*
X19565000Y-8855000D02*
G75*
G03*
X19565000Y-8790000I0J32500D01*
G01*
X19545000Y-8790000D02*
G75*
G03*
X19545000Y-8855000I0J-32500D01*
G01*
D16*
X10937500Y-7732500D02*
X11012500Y-7807500D01*
X11012500Y-7732500D02*
X10937500Y-7807500D01*
X11012500Y-7770000D02*
G75*
G03*
X11012500Y-7770000I-37500J0D01*
G01*
X11137500Y-7732500D02*
X11212500Y-7807500D01*
X11212500Y-7732500D02*
X11137500Y-7807500D01*
X11212500Y-7770000D02*
G75*
G03*
X11212500Y-7770000I-37500J0D01*
G01*
X11337500Y-7732500D02*
X11412500Y-7807500D01*
X11412500Y-7732500D02*
X11337500Y-7807500D01*
X11412500Y-7770000D02*
G75*
G03*
X11412500Y-7770000I-37500J0D01*
G01*
X11537500Y-7732500D02*
X11612500Y-7807500D01*
X11612500Y-7732500D02*
X11537500Y-7807500D01*
X11612500Y-7770000D02*
G75*
G03*
X11612500Y-7770000I-37500J0D01*
G01*
X11737500Y-7732500D02*
X11812500Y-7807500D01*
X11812500Y-7732500D02*
X11737500Y-7807500D01*
X11812500Y-7770000D02*
G75*
G03*
X11812500Y-7770000I-37500J0D01*
G01*
X12312500Y-7737500D02*
X12387500Y-7812500D01*
X12387500Y-7737500D02*
X12312500Y-7812500D01*
X12387500Y-7775000D02*
G75*
G03*
X12387500Y-7775000I-37500J0D01*
G01*
X12512500Y-7737500D02*
X12587500Y-7812500D01*
X12587500Y-7737500D02*
X12512500Y-7812500D01*
X12587500Y-7775000D02*
G75*
G03*
X12587500Y-7775000I-37500J0D01*
G01*
X12712500Y-7737500D02*
X12787500Y-7812500D01*
X12787500Y-7737500D02*
X12712500Y-7812500D01*
X12787500Y-7775000D02*
G75*
G03*
X12787500Y-7775000I-37500J0D01*
G01*
X12912500Y-7737500D02*
X12987500Y-7812500D01*
X12987500Y-7737500D02*
X12912500Y-7812500D01*
X12987500Y-7775000D02*
G75*
G03*
X12987500Y-7775000I-37500J0D01*
G01*
X13437500Y-7732500D02*
X13512500Y-7807500D01*
X13512500Y-7732500D02*
X13437500Y-7807500D01*
X13512500Y-7770000D02*
G75*
G03*
X13512500Y-7770000I-37500J0D01*
G01*
X13637500Y-7732500D02*
X13712500Y-7807500D01*
X13712500Y-7732500D02*
X13637500Y-7807500D01*
X13712500Y-7770000D02*
G75*
G03*
X13712500Y-7770000I-37500J0D01*
G01*
X13837500Y-7732500D02*
X13912500Y-7807500D01*
X13912500Y-7732500D02*
X13837500Y-7807500D01*
X13912500Y-7770000D02*
G75*
G03*
X13912500Y-7770000I-37500J0D01*
G01*
X14037500Y-7732500D02*
X14112500Y-7807500D01*
X14112500Y-7732500D02*
X14037500Y-7807500D01*
X14112500Y-7770000D02*
G75*
G03*
X14112500Y-7770000I-37500J0D01*
G01*
X14587500Y-7732500D02*
X14662500Y-7807500D01*
X14662500Y-7732500D02*
X14587500Y-7807500D01*
X14662500Y-7770000D02*
G75*
G03*
X14662500Y-7770000I-37500J0D01*
G01*
X14787500Y-7732500D02*
X14862500Y-7807500D01*
X14862500Y-7732500D02*
X14787500Y-7807500D01*
X14862500Y-7770000D02*
G75*
G03*
X14862500Y-7770000I-37500J0D01*
G01*
X14987500Y-7732500D02*
X15062500Y-7807500D01*
X15062500Y-7732500D02*
X14987500Y-7807500D01*
X15062500Y-7770000D02*
G75*
G03*
X15062500Y-7770000I-37500J0D01*
G01*
X15187500Y-7732500D02*
X15262500Y-7807500D01*
X15262500Y-7732500D02*
X15187500Y-7807500D01*
X15262500Y-7770000D02*
G75*
G03*
X15262500Y-7770000I-37500J0D01*
G01*
X16062500Y-10732500D02*
X16137500Y-10807500D01*
X16137500Y-10732500D02*
X16062500Y-10807500D01*
X16137500Y-10770000D02*
G75*
G03*
X16137500Y-10770000I-37500J0D01*
G01*
X16262500Y-10732500D02*
X16337500Y-10807500D01*
X16337500Y-10732500D02*
X16262500Y-10807500D01*
X16337500Y-10770000D02*
G75*
G03*
X16337500Y-10770000I-37500J0D01*
G01*
X16462500Y-10732500D02*
X16537500Y-10807500D01*
X16537500Y-10732500D02*
X16462500Y-10807500D01*
X16537500Y-10770000D02*
G75*
G03*
X16537500Y-10770000I-37500J0D01*
G01*
X16662500Y-10732500D02*
X16737500Y-10807500D01*
X16737500Y-10732500D02*
X16662500Y-10807500D01*
X16737500Y-10770000D02*
G75*
G03*
X16737500Y-10770000I-37500J0D01*
G01*
X16862500Y-10732500D02*
X16937500Y-10807500D01*
X16937500Y-10732500D02*
X16862500Y-10807500D01*
X16937500Y-10770000D02*
G75*
G03*
X16937500Y-10770000I-37500J0D01*
G01*
X18387500Y-10732500D02*
X18462500Y-10807500D01*
X18462500Y-10732500D02*
X18387500Y-10807500D01*
X18462500Y-10770000D02*
G75*
G03*
X18462500Y-10770000I-37500J0D01*
G01*
X18587500Y-10732500D02*
X18662500Y-10807500D01*
X18662500Y-10732500D02*
X18587500Y-10807500D01*
X18662500Y-10770000D02*
G75*
G03*
X18662500Y-10770000I-37500J0D01*
G01*
X18612500Y-7732500D02*
X18687500Y-7807500D01*
X18687500Y-7732500D02*
X18612500Y-7807500D01*
X18687500Y-7770000D02*
G75*
G03*
X18687500Y-7770000I-37500J0D01*
G01*
X18787500Y-10732500D02*
X18862500Y-10807500D01*
X18862500Y-10732500D02*
X18787500Y-10807500D01*
X18862500Y-10770000D02*
G75*
G03*
X18862500Y-10770000I-37500J0D01*
G01*
X18812500Y-7732500D02*
X18887500Y-7807500D01*
X18887500Y-7732500D02*
X18812500Y-7807500D01*
X18887500Y-7770000D02*
G75*
G03*
X18887500Y-7770000I-37500J0D01*
G01*
X18987500Y-10732500D02*
X19062500Y-10807500D01*
X19062500Y-10732500D02*
X18987500Y-10807500D01*
X19062500Y-10770000D02*
G75*
G03*
X19062500Y-10770000I-37500J0D01*
G01*
D17*
X10190000Y-10640000D02*
X10410000Y-10860000D01*
X10410000Y-10640000D02*
X10190000Y-10860000D01*
X10300000Y-10640000D02*
X10300000Y-10860000D01*
X10190000Y-10750000D02*
X10410000Y-10750000D01*
X10240000Y-7715000D02*
X10460000Y-7935000D01*
X10460000Y-7715000D02*
X10240000Y-7935000D01*
X10350000Y-7715000D02*
X10350000Y-7935000D01*
X10240000Y-7825000D02*
X10460000Y-7825000D01*
X13090000Y-10615000D02*
X13310000Y-10835000D01*
X13310000Y-10615000D02*
X13090000Y-10835000D01*
X13200000Y-10615000D02*
X13200000Y-10835000D01*
X13090000Y-10725000D02*
X13310000Y-10725000D01*
X15065000Y-10615000D02*
X15285000Y-10835000D01*
X15285000Y-10615000D02*
X15065000Y-10835000D01*
X15175000Y-10615000D02*
X15175000Y-10835000D01*
X15065000Y-10725000D02*
X15285000Y-10725000D01*
X17715000Y-10615000D02*
X17935000Y-10835000D01*
X17935000Y-10615000D02*
X17715000Y-10835000D01*
X17825000Y-10615000D02*
X17825000Y-10835000D01*
X17715000Y-10725000D02*
X17935000Y-10725000D01*
D18*
X11040000Y-12340000D02*
X11360000Y-12660000D01*
X11360000Y-12340000D02*
X11040000Y-12660000D01*
X11313138Y-12613138D02*
X11313138Y-12386862D01*
X11086862Y-12386862D01*
X11086862Y-12613138D01*
X11313138Y-12613138D01*
X15605000Y-12262000D02*
X15925000Y-12582000D01*
X15925000Y-12262000D02*
X15605000Y-12582000D01*
X15878138Y-12535138D02*
X15878138Y-12308862D01*
X15651862Y-12308862D01*
X15651862Y-12535138D01*
X15878138Y-12535138D01*
X20170000Y-12340000D02*
X20490000Y-12660000D01*
X20490000Y-12340000D02*
X20170000Y-12660000D01*
X20443138Y-12613138D02*
X20443138Y-12386862D01*
X20216862Y-12386862D01*
X20216862Y-12613138D01*
X20443138Y-12613138D01*
D11*
X10252619Y-13315476D02*
X10252619Y-13115476D01*
X10300238Y-13115476D01*
X10328810Y-13125000D01*
X10347857Y-13144048D01*
X10357381Y-13163095D01*
X10366905Y-13201190D01*
X10366905Y-13229762D01*
X10357381Y-13267857D01*
X10347857Y-13286905D01*
X10328810Y-13305952D01*
X10300238Y-13315476D01*
X10252619Y-13315476D01*
X10452619Y-13315476D02*
X10452619Y-13182143D01*
X10452619Y-13220238D02*
X10462143Y-13201190D01*
X10471667Y-13191667D01*
X10490714Y-13182143D01*
X10509762Y-13182143D01*
X10576429Y-13315476D02*
X10576429Y-13182143D01*
X10576429Y-13115476D02*
X10566905Y-13125000D01*
X10576429Y-13134524D01*
X10585952Y-13125000D01*
X10576429Y-13115476D01*
X10576429Y-13134524D01*
X10700238Y-13315476D02*
X10681190Y-13305952D01*
X10671667Y-13286905D01*
X10671667Y-13115476D01*
X10805000Y-13315476D02*
X10785952Y-13305952D01*
X10776429Y-13286905D01*
X10776429Y-13115476D01*
X11033571Y-13315476D02*
X11033571Y-13115476D01*
X11100238Y-13258333D01*
X11166905Y-13115476D01*
X11166905Y-13315476D01*
X11347857Y-13315476D02*
X11347857Y-13210714D01*
X11338333Y-13191667D01*
X11319286Y-13182143D01*
X11281190Y-13182143D01*
X11262143Y-13191667D01*
X11347857Y-13305952D02*
X11328809Y-13315476D01*
X11281190Y-13315476D01*
X11262143Y-13305952D01*
X11252619Y-13286905D01*
X11252619Y-13267857D01*
X11262143Y-13248809D01*
X11281190Y-13239286D01*
X11328809Y-13239286D01*
X11347857Y-13229762D01*
X11443095Y-13182143D02*
X11443095Y-13382143D01*
X11443095Y-13191667D02*
X11462143Y-13182143D01*
X11500238Y-13182143D01*
X11519286Y-13191667D01*
X11528809Y-13201190D01*
X11538333Y-13220238D01*
X11538333Y-13277381D01*
X11528809Y-13296428D01*
X11519286Y-13305952D01*
X11500238Y-13315476D01*
X11462143Y-13315476D01*
X11443095Y-13305952D01*
X11624048Y-13296428D02*
X11633571Y-13305952D01*
X11624048Y-13315476D01*
X11614524Y-13305952D01*
X11624048Y-13296428D01*
X11624048Y-13315476D01*
X11624048Y-13191667D02*
X11633571Y-13201190D01*
X11624048Y-13210714D01*
X11614524Y-13201190D01*
X11624048Y-13191667D01*
X11624048Y-13210714D01*
D12*
X9955000Y-13625000D02*
X9995000Y-13665000D01*
X9995000Y-13625000D02*
X9955000Y-13665000D01*
D11*
X10290714Y-13535476D02*
X10309762Y-13535476D01*
X10328810Y-13545000D01*
X10338333Y-13554524D01*
X10347857Y-13573571D01*
X10357381Y-13611667D01*
X10357381Y-13659286D01*
X10347857Y-13697381D01*
X10338333Y-13716428D01*
X10328810Y-13725952D01*
X10309762Y-13735476D01*
X10290714Y-13735476D01*
X10271667Y-13725952D01*
X10262143Y-13716428D01*
X10252619Y-13697381D01*
X10243095Y-13659286D01*
X10243095Y-13611667D01*
X10252619Y-13573571D01*
X10262143Y-13554524D01*
X10271667Y-13545000D01*
X10290714Y-13535476D01*
X10443095Y-13716428D02*
X10452619Y-13725952D01*
X10443095Y-13735476D01*
X10433571Y-13725952D01*
X10443095Y-13716428D01*
X10443095Y-13735476D01*
X10624048Y-13602143D02*
X10624048Y-13735476D01*
X10576429Y-13525952D02*
X10528810Y-13668809D01*
X10652619Y-13668809D01*
X10766905Y-13535476D02*
X10785952Y-13535476D01*
X10805000Y-13545000D01*
X10814524Y-13554524D01*
X10824048Y-13573571D01*
X10833571Y-13611667D01*
X10833571Y-13659286D01*
X10824048Y-13697381D01*
X10814524Y-13716428D01*
X10805000Y-13725952D01*
X10785952Y-13735476D01*
X10766905Y-13735476D01*
X10747857Y-13725952D01*
X10738333Y-13716428D01*
X10728810Y-13697381D01*
X10719286Y-13659286D01*
X10719286Y-13611667D01*
X10728810Y-13573571D01*
X10738333Y-13554524D01*
X10747857Y-13545000D01*
X10766905Y-13535476D01*
X10957381Y-13535476D02*
X10976429Y-13535476D01*
X10995476Y-13545000D01*
X11005000Y-13554524D01*
X11014524Y-13573571D01*
X11024048Y-13611667D01*
X11024048Y-13659286D01*
X11014524Y-13697381D01*
X11005000Y-13716428D01*
X10995476Y-13725952D01*
X10976429Y-13735476D01*
X10957381Y-13735476D01*
X10938333Y-13725952D01*
X10928810Y-13716428D01*
X10919286Y-13697381D01*
X10909762Y-13659286D01*
X10909762Y-13611667D01*
X10919286Y-13573571D01*
X10928810Y-13554524D01*
X10938333Y-13545000D01*
X10957381Y-13535476D01*
X11109762Y-13735476D02*
X11109762Y-13602143D01*
X11109762Y-13621190D02*
X11119286Y-13611667D01*
X11138333Y-13602143D01*
X11166905Y-13602143D01*
X11185952Y-13611667D01*
X11195476Y-13630714D01*
X11195476Y-13735476D01*
X11195476Y-13630714D02*
X11205000Y-13611667D01*
X11224048Y-13602143D01*
X11252619Y-13602143D01*
X11271667Y-13611667D01*
X11281190Y-13630714D01*
X11281190Y-13735476D01*
X11376428Y-13735476D02*
X11376428Y-13602143D01*
X11376428Y-13621190D02*
X11385952Y-13611667D01*
X11405000Y-13602143D01*
X11433571Y-13602143D01*
X11452619Y-13611667D01*
X11462143Y-13630714D01*
X11462143Y-13735476D01*
X11462143Y-13630714D02*
X11471667Y-13611667D01*
X11490714Y-13602143D01*
X11519286Y-13602143D01*
X11538333Y-13611667D01*
X11547857Y-13630714D01*
X11547857Y-13735476D01*
X11938333Y-13525952D02*
X11766905Y-13783095D01*
X12195476Y-13535476D02*
X12214524Y-13535476D01*
X12233571Y-13545000D01*
X12243095Y-13554524D01*
X12252619Y-13573571D01*
X12262143Y-13611667D01*
X12262143Y-13659286D01*
X12252619Y-13697381D01*
X12243095Y-13716428D01*
X12233571Y-13725952D01*
X12214524Y-13735476D01*
X12195476Y-13735476D01*
X12176428Y-13725952D01*
X12166905Y-13716428D01*
X12157381Y-13697381D01*
X12147857Y-13659286D01*
X12147857Y-13611667D01*
X12157381Y-13573571D01*
X12166905Y-13554524D01*
X12176428Y-13545000D01*
X12195476Y-13535476D01*
X12347857Y-13716428D02*
X12357381Y-13725952D01*
X12347857Y-13735476D01*
X12338333Y-13725952D01*
X12347857Y-13716428D01*
X12347857Y-13735476D01*
X12481190Y-13535476D02*
X12500238Y-13535476D01*
X12519286Y-13545000D01*
X12528809Y-13554524D01*
X12538333Y-13573571D01*
X12547857Y-13611667D01*
X12547857Y-13659286D01*
X12538333Y-13697381D01*
X12528809Y-13716428D01*
X12519286Y-13725952D01*
X12500238Y-13735476D01*
X12481190Y-13735476D01*
X12462143Y-13725952D01*
X12452619Y-13716428D01*
X12443095Y-13697381D01*
X12433571Y-13659286D01*
X12433571Y-13611667D01*
X12443095Y-13573571D01*
X12452619Y-13554524D01*
X12462143Y-13545000D01*
X12481190Y-13535476D01*
X12738333Y-13735476D02*
X12624048Y-13735476D01*
X12681190Y-13735476D02*
X12681190Y-13535476D01*
X12662143Y-13564048D01*
X12643095Y-13583095D01*
X12624048Y-13592619D01*
X12919286Y-13535476D02*
X12824048Y-13535476D01*
X12814524Y-13630714D01*
X12824048Y-13621190D01*
X12843095Y-13611667D01*
X12890714Y-13611667D01*
X12909762Y-13621190D01*
X12919286Y-13630714D01*
X12928809Y-13649762D01*
X12928809Y-13697381D01*
X12919286Y-13716428D01*
X12909762Y-13725952D01*
X12890714Y-13735476D01*
X12843095Y-13735476D01*
X12824048Y-13725952D01*
X12814524Y-13716428D01*
X12995476Y-13535476D02*
X13128809Y-13535476D01*
X13043095Y-13735476D01*
X13195476Y-13535476D02*
X13195476Y-13573571D01*
X13271667Y-13535476D02*
X13271667Y-13573571D01*
X13566905Y-13811667D02*
X13557381Y-13802143D01*
X13538333Y-13773571D01*
X13528809Y-13754524D01*
X13519286Y-13725952D01*
X13509762Y-13678333D01*
X13509762Y-13640238D01*
X13519286Y-13592619D01*
X13528809Y-13564048D01*
X13538333Y-13545000D01*
X13557381Y-13516428D01*
X13566905Y-13506905D01*
X13738333Y-13535476D02*
X13643095Y-13535476D01*
X13633571Y-13630714D01*
X13643095Y-13621190D01*
X13662143Y-13611667D01*
X13709762Y-13611667D01*
X13728809Y-13621190D01*
X13738333Y-13630714D01*
X13747857Y-13649762D01*
X13747857Y-13697381D01*
X13738333Y-13716428D01*
X13728809Y-13725952D01*
X13709762Y-13735476D01*
X13662143Y-13735476D01*
X13643095Y-13725952D01*
X13633571Y-13716428D01*
X13919286Y-13535476D02*
X13881190Y-13535476D01*
X13862143Y-13545000D01*
X13852619Y-13554524D01*
X13833571Y-13583095D01*
X13824048Y-13621190D01*
X13824048Y-13697381D01*
X13833571Y-13716428D01*
X13843095Y-13725952D01*
X13862143Y-13735476D01*
X13900238Y-13735476D01*
X13919286Y-13725952D01*
X13928809Y-13716428D01*
X13938333Y-13697381D01*
X13938333Y-13649762D01*
X13928809Y-13630714D01*
X13919286Y-13621190D01*
X13900238Y-13611667D01*
X13862143Y-13611667D01*
X13843095Y-13621190D01*
X13833571Y-13630714D01*
X13824048Y-13649762D01*
X14109762Y-13602143D02*
X14109762Y-13735476D01*
X14062143Y-13525952D02*
X14014524Y-13668809D01*
X14138333Y-13668809D01*
X14366905Y-13735476D02*
X14366905Y-13535476D01*
X14452619Y-13735476D02*
X14452619Y-13630714D01*
X14443095Y-13611667D01*
X14424048Y-13602143D01*
X14395476Y-13602143D01*
X14376428Y-13611667D01*
X14366905Y-13621190D01*
X14576428Y-13735476D02*
X14557381Y-13725952D01*
X14547857Y-13716428D01*
X14538333Y-13697381D01*
X14538333Y-13640238D01*
X14547857Y-13621190D01*
X14557381Y-13611667D01*
X14576428Y-13602143D01*
X14605000Y-13602143D01*
X14624048Y-13611667D01*
X14633571Y-13621190D01*
X14643095Y-13640238D01*
X14643095Y-13697381D01*
X14633571Y-13716428D01*
X14624048Y-13725952D01*
X14605000Y-13735476D01*
X14576428Y-13735476D01*
X14757381Y-13735476D02*
X14738333Y-13725952D01*
X14728809Y-13706905D01*
X14728809Y-13535476D01*
X14909762Y-13725952D02*
X14890714Y-13735476D01*
X14852619Y-13735476D01*
X14833571Y-13725952D01*
X14824048Y-13706905D01*
X14824048Y-13630714D01*
X14833571Y-13611667D01*
X14852619Y-13602143D01*
X14890714Y-13602143D01*
X14909762Y-13611667D01*
X14919286Y-13630714D01*
X14919286Y-13649762D01*
X14824048Y-13668809D01*
X14995476Y-13725952D02*
X15014524Y-13735476D01*
X15052619Y-13735476D01*
X15071667Y-13725952D01*
X15081190Y-13706905D01*
X15081190Y-13697381D01*
X15071667Y-13678333D01*
X15052619Y-13668809D01*
X15024048Y-13668809D01*
X15005000Y-13659286D01*
X14995476Y-13640238D01*
X14995476Y-13630714D01*
X15005000Y-13611667D01*
X15024048Y-13602143D01*
X15052619Y-13602143D01*
X15071667Y-13611667D01*
X15147857Y-13811667D02*
X15157381Y-13802143D01*
X15176428Y-13773571D01*
X15185952Y-13754524D01*
X15195476Y-13725952D01*
X15205000Y-13678333D01*
X15205000Y-13640238D01*
X15195476Y-13592619D01*
X15185952Y-13564048D01*
X15176428Y-13545000D01*
X15157381Y-13516428D01*
X15147857Y-13506905D01*
D12*
X9995000Y-13909000D02*
G75*
G03*
X9995000Y-13909000I-20000J0D01*
G01*
D11*
X10290714Y-13799476D02*
X10309762Y-13799476D01*
X10328810Y-13809000D01*
X10338333Y-13818524D01*
X10347857Y-13837571D01*
X10357381Y-13875667D01*
X10357381Y-13923286D01*
X10347857Y-13961381D01*
X10338333Y-13980428D01*
X10328810Y-13989952D01*
X10309762Y-13999476D01*
X10290714Y-13999476D01*
X10271667Y-13989952D01*
X10262143Y-13980428D01*
X10252619Y-13961381D01*
X10243095Y-13923286D01*
X10243095Y-13875667D01*
X10252619Y-13837571D01*
X10262143Y-13818524D01*
X10271667Y-13809000D01*
X10290714Y-13799476D01*
X10443095Y-13980428D02*
X10452619Y-13989952D01*
X10443095Y-13999476D01*
X10433571Y-13989952D01*
X10443095Y-13980428D01*
X10443095Y-13999476D01*
X10624048Y-13866143D02*
X10624048Y-13999476D01*
X10576429Y-13789952D02*
X10528810Y-13932809D01*
X10652619Y-13932809D01*
X10766905Y-13799476D02*
X10785952Y-13799476D01*
X10805000Y-13809000D01*
X10814524Y-13818524D01*
X10824048Y-13837571D01*
X10833571Y-13875667D01*
X10833571Y-13923286D01*
X10824048Y-13961381D01*
X10814524Y-13980428D01*
X10805000Y-13989952D01*
X10785952Y-13999476D01*
X10766905Y-13999476D01*
X10747857Y-13989952D01*
X10738333Y-13980428D01*
X10728810Y-13961381D01*
X10719286Y-13923286D01*
X10719286Y-13875667D01*
X10728810Y-13837571D01*
X10738333Y-13818524D01*
X10747857Y-13809000D01*
X10766905Y-13799476D01*
X10957381Y-13799476D02*
X10976429Y-13799476D01*
X10995476Y-13809000D01*
X11005000Y-13818524D01*
X11014524Y-13837571D01*
X11024048Y-13875667D01*
X11024048Y-13923286D01*
X11014524Y-13961381D01*
X11005000Y-13980428D01*
X10995476Y-13989952D01*
X10976429Y-13999476D01*
X10957381Y-13999476D01*
X10938333Y-13989952D01*
X10928810Y-13980428D01*
X10919286Y-13961381D01*
X10909762Y-13923286D01*
X10909762Y-13875667D01*
X10919286Y-13837571D01*
X10928810Y-13818524D01*
X10938333Y-13809000D01*
X10957381Y-13799476D01*
X11109762Y-13999476D02*
X11109762Y-13866143D01*
X11109762Y-13885190D02*
X11119286Y-13875667D01*
X11138333Y-13866143D01*
X11166905Y-13866143D01*
X11185952Y-13875667D01*
X11195476Y-13894714D01*
X11195476Y-13999476D01*
X11195476Y-13894714D02*
X11205000Y-13875667D01*
X11224048Y-13866143D01*
X11252619Y-13866143D01*
X11271667Y-13875667D01*
X11281190Y-13894714D01*
X11281190Y-13999476D01*
X11376428Y-13999476D02*
X11376428Y-13866143D01*
X11376428Y-13885190D02*
X11385952Y-13875667D01*
X11405000Y-13866143D01*
X11433571Y-13866143D01*
X11452619Y-13875667D01*
X11462143Y-13894714D01*
X11462143Y-13999476D01*
X11462143Y-13894714D02*
X11471667Y-13875667D01*
X11490714Y-13866143D01*
X11519286Y-13866143D01*
X11538333Y-13875667D01*
X11547857Y-13894714D01*
X11547857Y-13999476D01*
X11938333Y-13789952D02*
X11766905Y-14047095D01*
X12195476Y-13799476D02*
X12214524Y-13799476D01*
X12233571Y-13809000D01*
X12243095Y-13818524D01*
X12252619Y-13837571D01*
X12262143Y-13875667D01*
X12262143Y-13923286D01*
X12252619Y-13961381D01*
X12243095Y-13980428D01*
X12233571Y-13989952D01*
X12214524Y-13999476D01*
X12195476Y-13999476D01*
X12176428Y-13989952D01*
X12166905Y-13980428D01*
X12157381Y-13961381D01*
X12147857Y-13923286D01*
X12147857Y-13875667D01*
X12157381Y-13837571D01*
X12166905Y-13818524D01*
X12176428Y-13809000D01*
X12195476Y-13799476D01*
X12347857Y-13980428D02*
X12357381Y-13989952D01*
X12347857Y-13999476D01*
X12338333Y-13989952D01*
X12347857Y-13980428D01*
X12347857Y-13999476D01*
X12481190Y-13799476D02*
X12500238Y-13799476D01*
X12519286Y-13809000D01*
X12528809Y-13818524D01*
X12538333Y-13837571D01*
X12547857Y-13875667D01*
X12547857Y-13923286D01*
X12538333Y-13961381D01*
X12528809Y-13980428D01*
X12519286Y-13989952D01*
X12500238Y-13999476D01*
X12481190Y-13999476D01*
X12462143Y-13989952D01*
X12452619Y-13980428D01*
X12443095Y-13961381D01*
X12433571Y-13923286D01*
X12433571Y-13875667D01*
X12443095Y-13837571D01*
X12452619Y-13818524D01*
X12462143Y-13809000D01*
X12481190Y-13799476D01*
X12738333Y-13999476D02*
X12624048Y-13999476D01*
X12681190Y-13999476D02*
X12681190Y-13799476D01*
X12662143Y-13828048D01*
X12643095Y-13847095D01*
X12624048Y-13856619D01*
X12919286Y-13799476D02*
X12824048Y-13799476D01*
X12814524Y-13894714D01*
X12824048Y-13885190D01*
X12843095Y-13875667D01*
X12890714Y-13875667D01*
X12909762Y-13885190D01*
X12919286Y-13894714D01*
X12928809Y-13913762D01*
X12928809Y-13961381D01*
X12919286Y-13980428D01*
X12909762Y-13989952D01*
X12890714Y-13999476D01*
X12843095Y-13999476D01*
X12824048Y-13989952D01*
X12814524Y-13980428D01*
X12995476Y-13799476D02*
X13128809Y-13799476D01*
X13043095Y-13999476D01*
X13195476Y-13799476D02*
X13195476Y-13837571D01*
X13271667Y-13799476D02*
X13271667Y-13837571D01*
X13566905Y-14075667D02*
X13557381Y-14066143D01*
X13538333Y-14037571D01*
X13528809Y-14018524D01*
X13519286Y-13989952D01*
X13509762Y-13942333D01*
X13509762Y-13904238D01*
X13519286Y-13856619D01*
X13528809Y-13828048D01*
X13538333Y-13809000D01*
X13557381Y-13780428D01*
X13566905Y-13770905D01*
X13728809Y-13866143D02*
X13728809Y-13999476D01*
X13681190Y-13789952D02*
X13633571Y-13932809D01*
X13757381Y-13932809D01*
X13871667Y-13799476D02*
X13890714Y-13799476D01*
X13909762Y-13809000D01*
X13919286Y-13818524D01*
X13928809Y-13837571D01*
X13938333Y-13875667D01*
X13938333Y-13923286D01*
X13928809Y-13961381D01*
X13919286Y-13980428D01*
X13909762Y-13989952D01*
X13890714Y-13999476D01*
X13871667Y-13999476D01*
X13852619Y-13989952D01*
X13843095Y-13980428D01*
X13833571Y-13961381D01*
X13824048Y-13923286D01*
X13824048Y-13875667D01*
X13833571Y-13837571D01*
X13843095Y-13818524D01*
X13852619Y-13809000D01*
X13871667Y-13799476D01*
X14176428Y-13999476D02*
X14176428Y-13799476D01*
X14262143Y-13999476D02*
X14262143Y-13894714D01*
X14252619Y-13875667D01*
X14233571Y-13866143D01*
X14205000Y-13866143D01*
X14185952Y-13875667D01*
X14176428Y-13885190D01*
X14385952Y-13999476D02*
X14366905Y-13989952D01*
X14357381Y-13980428D01*
X14347857Y-13961381D01*
X14347857Y-13904238D01*
X14357381Y-13885190D01*
X14366905Y-13875667D01*
X14385952Y-13866143D01*
X14414524Y-13866143D01*
X14433571Y-13875667D01*
X14443095Y-13885190D01*
X14452619Y-13904238D01*
X14452619Y-13961381D01*
X14443095Y-13980428D01*
X14433571Y-13989952D01*
X14414524Y-13999476D01*
X14385952Y-13999476D01*
X14566905Y-13999476D02*
X14547857Y-13989952D01*
X14538333Y-13970905D01*
X14538333Y-13799476D01*
X14719286Y-13989952D02*
X14700238Y-13999476D01*
X14662143Y-13999476D01*
X14643095Y-13989952D01*
X14633571Y-13970905D01*
X14633571Y-13894714D01*
X14643095Y-13875667D01*
X14662143Y-13866143D01*
X14700238Y-13866143D01*
X14719286Y-13875667D01*
X14728809Y-13894714D01*
X14728809Y-13913762D01*
X14633571Y-13932809D01*
X14805000Y-13989952D02*
X14824048Y-13999476D01*
X14862143Y-13999476D01*
X14881190Y-13989952D01*
X14890714Y-13970905D01*
X14890714Y-13961381D01*
X14881190Y-13942333D01*
X14862143Y-13932809D01*
X14833571Y-13932809D01*
X14814524Y-13923286D01*
X14805000Y-13904238D01*
X14805000Y-13894714D01*
X14814524Y-13875667D01*
X14833571Y-13866143D01*
X14862143Y-13866143D01*
X14881190Y-13875667D01*
X14957381Y-14075667D02*
X14966905Y-14066143D01*
X14985952Y-14037571D01*
X14995476Y-14018524D01*
X15005000Y-13989952D01*
X15014524Y-13942333D01*
X15014524Y-13904238D01*
X15005000Y-13856619D01*
X14995476Y-13828048D01*
X14985952Y-13809000D01*
X14966905Y-13780428D01*
X14957381Y-13770905D01*
D13*
X9970000Y-14148000D02*
X9970000Y-14198000D01*
X9945000Y-14173000D02*
X9995000Y-14173000D01*
D11*
X10290714Y-14063476D02*
X10309762Y-14063476D01*
X10328810Y-14073000D01*
X10338333Y-14082524D01*
X10347857Y-14101571D01*
X10357381Y-14139667D01*
X10357381Y-14187286D01*
X10347857Y-14225381D01*
X10338333Y-14244428D01*
X10328810Y-14253952D01*
X10309762Y-14263476D01*
X10290714Y-14263476D01*
X10271667Y-14253952D01*
X10262143Y-14244428D01*
X10252619Y-14225381D01*
X10243095Y-14187286D01*
X10243095Y-14139667D01*
X10252619Y-14101571D01*
X10262143Y-14082524D01*
X10271667Y-14073000D01*
X10290714Y-14063476D01*
X10443095Y-14244428D02*
X10452619Y-14253952D01*
X10443095Y-14263476D01*
X10433571Y-14253952D01*
X10443095Y-14244428D01*
X10443095Y-14263476D01*
X10633571Y-14063476D02*
X10538333Y-14063476D01*
X10528810Y-14158714D01*
X10538333Y-14149190D01*
X10557381Y-14139667D01*
X10605000Y-14139667D01*
X10624048Y-14149190D01*
X10633571Y-14158714D01*
X10643095Y-14177762D01*
X10643095Y-14225381D01*
X10633571Y-14244428D01*
X10624048Y-14253952D01*
X10605000Y-14263476D01*
X10557381Y-14263476D01*
X10538333Y-14253952D01*
X10528810Y-14244428D01*
X10766905Y-14063476D02*
X10785952Y-14063476D01*
X10805000Y-14073000D01*
X10814524Y-14082524D01*
X10824048Y-14101571D01*
X10833571Y-14139667D01*
X10833571Y-14187286D01*
X10824048Y-14225381D01*
X10814524Y-14244428D01*
X10805000Y-14253952D01*
X10785952Y-14263476D01*
X10766905Y-14263476D01*
X10747857Y-14253952D01*
X10738333Y-14244428D01*
X10728810Y-14225381D01*
X10719286Y-14187286D01*
X10719286Y-14139667D01*
X10728810Y-14101571D01*
X10738333Y-14082524D01*
X10747857Y-14073000D01*
X10766905Y-14063476D01*
X10957381Y-14063476D02*
X10976429Y-14063476D01*
X10995476Y-14073000D01*
X11005000Y-14082524D01*
X11014524Y-14101571D01*
X11024048Y-14139667D01*
X11024048Y-14187286D01*
X11014524Y-14225381D01*
X11005000Y-14244428D01*
X10995476Y-14253952D01*
X10976429Y-14263476D01*
X10957381Y-14263476D01*
X10938333Y-14253952D01*
X10928810Y-14244428D01*
X10919286Y-14225381D01*
X10909762Y-14187286D01*
X10909762Y-14139667D01*
X10919286Y-14101571D01*
X10928810Y-14082524D01*
X10938333Y-14073000D01*
X10957381Y-14063476D01*
X11109762Y-14263476D02*
X11109762Y-14130143D01*
X11109762Y-14149190D02*
X11119286Y-14139667D01*
X11138333Y-14130143D01*
X11166905Y-14130143D01*
X11185952Y-14139667D01*
X11195476Y-14158714D01*
X11195476Y-14263476D01*
X11195476Y-14158714D02*
X11205000Y-14139667D01*
X11224048Y-14130143D01*
X11252619Y-14130143D01*
X11271667Y-14139667D01*
X11281190Y-14158714D01*
X11281190Y-14263476D01*
X11376428Y-14263476D02*
X11376428Y-14130143D01*
X11376428Y-14149190D02*
X11385952Y-14139667D01*
X11405000Y-14130143D01*
X11433571Y-14130143D01*
X11452619Y-14139667D01*
X11462143Y-14158714D01*
X11462143Y-14263476D01*
X11462143Y-14158714D02*
X11471667Y-14139667D01*
X11490714Y-14130143D01*
X11519286Y-14130143D01*
X11538333Y-14139667D01*
X11547857Y-14158714D01*
X11547857Y-14263476D01*
X11938333Y-14053952D02*
X11766905Y-14311095D01*
X12195476Y-14063476D02*
X12214524Y-14063476D01*
X12233571Y-14073000D01*
X12243095Y-14082524D01*
X12252619Y-14101571D01*
X12262143Y-14139667D01*
X12262143Y-14187286D01*
X12252619Y-14225381D01*
X12243095Y-14244428D01*
X12233571Y-14253952D01*
X12214524Y-14263476D01*
X12195476Y-14263476D01*
X12176428Y-14253952D01*
X12166905Y-14244428D01*
X12157381Y-14225381D01*
X12147857Y-14187286D01*
X12147857Y-14139667D01*
X12157381Y-14101571D01*
X12166905Y-14082524D01*
X12176428Y-14073000D01*
X12195476Y-14063476D01*
X12347857Y-14244428D02*
X12357381Y-14253952D01*
X12347857Y-14263476D01*
X12338333Y-14253952D01*
X12347857Y-14244428D01*
X12347857Y-14263476D01*
X12481190Y-14063476D02*
X12500238Y-14063476D01*
X12519286Y-14073000D01*
X12528809Y-14082524D01*
X12538333Y-14101571D01*
X12547857Y-14139667D01*
X12547857Y-14187286D01*
X12538333Y-14225381D01*
X12528809Y-14244428D01*
X12519286Y-14253952D01*
X12500238Y-14263476D01*
X12481190Y-14263476D01*
X12462143Y-14253952D01*
X12452619Y-14244428D01*
X12443095Y-14225381D01*
X12433571Y-14187286D01*
X12433571Y-14139667D01*
X12443095Y-14101571D01*
X12452619Y-14082524D01*
X12462143Y-14073000D01*
X12481190Y-14063476D01*
X12738333Y-14263476D02*
X12624048Y-14263476D01*
X12681190Y-14263476D02*
X12681190Y-14063476D01*
X12662143Y-14092048D01*
X12643095Y-14111095D01*
X12624048Y-14120619D01*
X12833571Y-14263476D02*
X12871667Y-14263476D01*
X12890714Y-14253952D01*
X12900238Y-14244428D01*
X12919286Y-14215857D01*
X12928809Y-14177762D01*
X12928809Y-14101571D01*
X12919286Y-14082524D01*
X12909762Y-14073000D01*
X12890714Y-14063476D01*
X12852619Y-14063476D01*
X12833571Y-14073000D01*
X12824048Y-14082524D01*
X12814524Y-14101571D01*
X12814524Y-14149190D01*
X12824048Y-14168238D01*
X12833571Y-14177762D01*
X12852619Y-14187286D01*
X12890714Y-14187286D01*
X12909762Y-14177762D01*
X12919286Y-14168238D01*
X12928809Y-14149190D01*
X12995476Y-14063476D02*
X13128809Y-14063476D01*
X13043095Y-14263476D01*
X13195476Y-14063476D02*
X13195476Y-14101571D01*
X13271667Y-14063476D02*
X13271667Y-14101571D01*
X13566905Y-14339667D02*
X13557381Y-14330143D01*
X13538333Y-14301571D01*
X13528809Y-14282524D01*
X13519286Y-14253952D01*
X13509762Y-14206333D01*
X13509762Y-14168238D01*
X13519286Y-14120619D01*
X13528809Y-14092048D01*
X13538333Y-14073000D01*
X13557381Y-14044428D01*
X13566905Y-14034905D01*
X13633571Y-14082524D02*
X13643095Y-14073000D01*
X13662143Y-14063476D01*
X13709762Y-14063476D01*
X13728809Y-14073000D01*
X13738333Y-14082524D01*
X13747857Y-14101571D01*
X13747857Y-14120619D01*
X13738333Y-14149190D01*
X13624048Y-14263476D01*
X13747857Y-14263476D01*
X13919286Y-14130143D02*
X13919286Y-14263476D01*
X13871667Y-14053952D02*
X13824048Y-14196809D01*
X13947857Y-14196809D01*
X14176428Y-14263476D02*
X14176428Y-14063476D01*
X14262143Y-14263476D02*
X14262143Y-14158714D01*
X14252619Y-14139667D01*
X14233571Y-14130143D01*
X14205000Y-14130143D01*
X14185952Y-14139667D01*
X14176428Y-14149190D01*
X14385952Y-14263476D02*
X14366905Y-14253952D01*
X14357381Y-14244428D01*
X14347857Y-14225381D01*
X14347857Y-14168238D01*
X14357381Y-14149190D01*
X14366905Y-14139667D01*
X14385952Y-14130143D01*
X14414524Y-14130143D01*
X14433571Y-14139667D01*
X14443095Y-14149190D01*
X14452619Y-14168238D01*
X14452619Y-14225381D01*
X14443095Y-14244428D01*
X14433571Y-14253952D01*
X14414524Y-14263476D01*
X14385952Y-14263476D01*
X14566905Y-14263476D02*
X14547857Y-14253952D01*
X14538333Y-14234905D01*
X14538333Y-14063476D01*
X14719286Y-14253952D02*
X14700238Y-14263476D01*
X14662143Y-14263476D01*
X14643095Y-14253952D01*
X14633571Y-14234905D01*
X14633571Y-14158714D01*
X14643095Y-14139667D01*
X14662143Y-14130143D01*
X14700238Y-14130143D01*
X14719286Y-14139667D01*
X14728809Y-14158714D01*
X14728809Y-14177762D01*
X14633571Y-14196809D01*
X14805000Y-14253952D02*
X14824048Y-14263476D01*
X14862143Y-14263476D01*
X14881190Y-14253952D01*
X14890714Y-14234905D01*
X14890714Y-14225381D01*
X14881190Y-14206333D01*
X14862143Y-14196809D01*
X14833571Y-14196809D01*
X14814524Y-14187286D01*
X14805000Y-14168238D01*
X14805000Y-14158714D01*
X14814524Y-14139667D01*
X14833571Y-14130143D01*
X14862143Y-14130143D01*
X14881190Y-14139667D01*
X14957381Y-14339667D02*
X14966905Y-14330143D01*
X14985952Y-14301571D01*
X14995476Y-14282524D01*
X15005000Y-14253952D01*
X15014524Y-14206333D01*
X15014524Y-14168238D01*
X15005000Y-14120619D01*
X14995476Y-14092048D01*
X14985952Y-14073000D01*
X14966905Y-14044428D01*
X14957381Y-14034905D01*
D14*
X9986213Y-14458213D02*
X9986213Y-14415787D01*
X9943787Y-14415787D01*
X9943787Y-14458213D01*
X9986213Y-14458213D01*
D11*
X10290714Y-14327476D02*
X10309762Y-14327476D01*
X10328810Y-14337000D01*
X10338333Y-14346524D01*
X10347857Y-14365571D01*
X10357381Y-14403667D01*
X10357381Y-14451286D01*
X10347857Y-14489381D01*
X10338333Y-14508428D01*
X10328810Y-14517952D01*
X10309762Y-14527476D01*
X10290714Y-14527476D01*
X10271667Y-14517952D01*
X10262143Y-14508428D01*
X10252619Y-14489381D01*
X10243095Y-14451286D01*
X10243095Y-14403667D01*
X10252619Y-14365571D01*
X10262143Y-14346524D01*
X10271667Y-14337000D01*
X10290714Y-14327476D01*
X10443095Y-14508428D02*
X10452619Y-14517952D01*
X10443095Y-14527476D01*
X10433571Y-14517952D01*
X10443095Y-14508428D01*
X10443095Y-14527476D01*
X10624048Y-14327476D02*
X10585952Y-14327476D01*
X10566905Y-14337000D01*
X10557381Y-14346524D01*
X10538333Y-14375095D01*
X10528810Y-14413190D01*
X10528810Y-14489381D01*
X10538333Y-14508428D01*
X10547857Y-14517952D01*
X10566905Y-14527476D01*
X10605000Y-14527476D01*
X10624048Y-14517952D01*
X10633571Y-14508428D01*
X10643095Y-14489381D01*
X10643095Y-14441762D01*
X10633571Y-14422714D01*
X10624048Y-14413190D01*
X10605000Y-14403667D01*
X10566905Y-14403667D01*
X10547857Y-14413190D01*
X10538333Y-14422714D01*
X10528810Y-14441762D01*
X10766905Y-14327476D02*
X10785952Y-14327476D01*
X10805000Y-14337000D01*
X10814524Y-14346524D01*
X10824048Y-14365571D01*
X10833571Y-14403667D01*
X10833571Y-14451286D01*
X10824048Y-14489381D01*
X10814524Y-14508428D01*
X10805000Y-14517952D01*
X10785952Y-14527476D01*
X10766905Y-14527476D01*
X10747857Y-14517952D01*
X10738333Y-14508428D01*
X10728810Y-14489381D01*
X10719286Y-14451286D01*
X10719286Y-14403667D01*
X10728810Y-14365571D01*
X10738333Y-14346524D01*
X10747857Y-14337000D01*
X10766905Y-14327476D01*
X10957381Y-14327476D02*
X10976429Y-14327476D01*
X10995476Y-14337000D01*
X11005000Y-14346524D01*
X11014524Y-14365571D01*
X11024048Y-14403667D01*
X11024048Y-14451286D01*
X11014524Y-14489381D01*
X11005000Y-14508428D01*
X10995476Y-14517952D01*
X10976429Y-14527476D01*
X10957381Y-14527476D01*
X10938333Y-14517952D01*
X10928810Y-14508428D01*
X10919286Y-14489381D01*
X10909762Y-14451286D01*
X10909762Y-14403667D01*
X10919286Y-14365571D01*
X10928810Y-14346524D01*
X10938333Y-14337000D01*
X10957381Y-14327476D01*
X11109762Y-14527476D02*
X11109762Y-14394143D01*
X11109762Y-14413190D02*
X11119286Y-14403667D01*
X11138333Y-14394143D01*
X11166905Y-14394143D01*
X11185952Y-14403667D01*
X11195476Y-14422714D01*
X11195476Y-14527476D01*
X11195476Y-14422714D02*
X11205000Y-14403667D01*
X11224048Y-14394143D01*
X11252619Y-14394143D01*
X11271667Y-14403667D01*
X11281190Y-14422714D01*
X11281190Y-14527476D01*
X11376428Y-14527476D02*
X11376428Y-14394143D01*
X11376428Y-14413190D02*
X11385952Y-14403667D01*
X11405000Y-14394143D01*
X11433571Y-14394143D01*
X11452619Y-14403667D01*
X11462143Y-14422714D01*
X11462143Y-14527476D01*
X11462143Y-14422714D02*
X11471667Y-14403667D01*
X11490714Y-14394143D01*
X11519286Y-14394143D01*
X11538333Y-14403667D01*
X11547857Y-14422714D01*
X11547857Y-14527476D01*
X11938333Y-14317952D02*
X11766905Y-14575095D01*
X12195476Y-14327476D02*
X12214524Y-14327476D01*
X12233571Y-14337000D01*
X12243095Y-14346524D01*
X12252619Y-14365571D01*
X12262143Y-14403667D01*
X12262143Y-14451286D01*
X12252619Y-14489381D01*
X12243095Y-14508428D01*
X12233571Y-14517952D01*
X12214524Y-14527476D01*
X12195476Y-14527476D01*
X12176428Y-14517952D01*
X12166905Y-14508428D01*
X12157381Y-14489381D01*
X12147857Y-14451286D01*
X12147857Y-14403667D01*
X12157381Y-14365571D01*
X12166905Y-14346524D01*
X12176428Y-14337000D01*
X12195476Y-14327476D01*
X12347857Y-14508428D02*
X12357381Y-14517952D01*
X12347857Y-14527476D01*
X12338333Y-14517952D01*
X12347857Y-14508428D01*
X12347857Y-14527476D01*
X12481190Y-14327476D02*
X12500238Y-14327476D01*
X12519286Y-14337000D01*
X12528809Y-14346524D01*
X12538333Y-14365571D01*
X12547857Y-14403667D01*
X12547857Y-14451286D01*
X12538333Y-14489381D01*
X12528809Y-14508428D01*
X12519286Y-14517952D01*
X12500238Y-14527476D01*
X12481190Y-14527476D01*
X12462143Y-14517952D01*
X12452619Y-14508428D01*
X12443095Y-14489381D01*
X12433571Y-14451286D01*
X12433571Y-14403667D01*
X12443095Y-14365571D01*
X12452619Y-14346524D01*
X12462143Y-14337000D01*
X12481190Y-14327476D01*
X12624048Y-14346524D02*
X12633571Y-14337000D01*
X12652619Y-14327476D01*
X12700238Y-14327476D01*
X12719286Y-14337000D01*
X12728809Y-14346524D01*
X12738333Y-14365571D01*
X12738333Y-14384619D01*
X12728809Y-14413190D01*
X12614524Y-14527476D01*
X12738333Y-14527476D01*
X12805000Y-14327476D02*
X12928809Y-14327476D01*
X12862143Y-14403667D01*
X12890714Y-14403667D01*
X12909762Y-14413190D01*
X12919286Y-14422714D01*
X12928809Y-14441762D01*
X12928809Y-14489381D01*
X12919286Y-14508428D01*
X12909762Y-14517952D01*
X12890714Y-14527476D01*
X12833571Y-14527476D01*
X12814524Y-14517952D01*
X12805000Y-14508428D01*
X13100238Y-14327476D02*
X13062143Y-14327476D01*
X13043095Y-14337000D01*
X13033571Y-14346524D01*
X13014524Y-14375095D01*
X13005000Y-14413190D01*
X13005000Y-14489381D01*
X13014524Y-14508428D01*
X13024048Y-14517952D01*
X13043095Y-14527476D01*
X13081190Y-14527476D01*
X13100238Y-14517952D01*
X13109762Y-14508428D01*
X13119286Y-14489381D01*
X13119286Y-14441762D01*
X13109762Y-14422714D01*
X13100238Y-14413190D01*
X13081190Y-14403667D01*
X13043095Y-14403667D01*
X13024048Y-14413190D01*
X13014524Y-14422714D01*
X13005000Y-14441762D01*
X13195476Y-14327476D02*
X13195476Y-14365571D01*
X13271667Y-14327476D02*
X13271667Y-14365571D01*
X13566905Y-14603667D02*
X13557381Y-14594143D01*
X13538333Y-14565571D01*
X13528809Y-14546524D01*
X13519286Y-14517952D01*
X13509762Y-14470333D01*
X13509762Y-14432238D01*
X13519286Y-14384619D01*
X13528809Y-14356048D01*
X13538333Y-14337000D01*
X13557381Y-14308428D01*
X13566905Y-14298905D01*
X13681190Y-14327476D02*
X13700238Y-14327476D01*
X13719286Y-14337000D01*
X13728809Y-14346524D01*
X13738333Y-14365571D01*
X13747857Y-14403667D01*
X13747857Y-14451286D01*
X13738333Y-14489381D01*
X13728809Y-14508428D01*
X13719286Y-14517952D01*
X13700238Y-14527476D01*
X13681190Y-14527476D01*
X13662143Y-14517952D01*
X13652619Y-14508428D01*
X13643095Y-14489381D01*
X13633571Y-14451286D01*
X13633571Y-14403667D01*
X13643095Y-14365571D01*
X13652619Y-14346524D01*
X13662143Y-14337000D01*
X13681190Y-14327476D01*
X13985952Y-14527476D02*
X13985952Y-14327476D01*
X14071667Y-14527476D02*
X14071667Y-14422714D01*
X14062143Y-14403667D01*
X14043095Y-14394143D01*
X14014524Y-14394143D01*
X13995476Y-14403667D01*
X13985952Y-14413190D01*
X14195476Y-14527476D02*
X14176428Y-14517952D01*
X14166905Y-14508428D01*
X14157381Y-14489381D01*
X14157381Y-14432238D01*
X14166905Y-14413190D01*
X14176428Y-14403667D01*
X14195476Y-14394143D01*
X14224048Y-14394143D01*
X14243095Y-14403667D01*
X14252619Y-14413190D01*
X14262143Y-14432238D01*
X14262143Y-14489381D01*
X14252619Y-14508428D01*
X14243095Y-14517952D01*
X14224048Y-14527476D01*
X14195476Y-14527476D01*
X14376428Y-14527476D02*
X14357381Y-14517952D01*
X14347857Y-14498905D01*
X14347857Y-14327476D01*
X14528809Y-14517952D02*
X14509762Y-14527476D01*
X14471667Y-14527476D01*
X14452619Y-14517952D01*
X14443095Y-14498905D01*
X14443095Y-14422714D01*
X14452619Y-14403667D01*
X14471667Y-14394143D01*
X14509762Y-14394143D01*
X14528809Y-14403667D01*
X14538333Y-14422714D01*
X14538333Y-14441762D01*
X14443095Y-14460809D01*
X14614524Y-14517952D02*
X14633571Y-14527476D01*
X14671667Y-14527476D01*
X14690714Y-14517952D01*
X14700238Y-14498905D01*
X14700238Y-14489381D01*
X14690714Y-14470333D01*
X14671667Y-14460809D01*
X14643095Y-14460809D01*
X14624048Y-14451286D01*
X14614524Y-14432238D01*
X14614524Y-14422714D01*
X14624048Y-14403667D01*
X14643095Y-14394143D01*
X14671667Y-14394143D01*
X14690714Y-14403667D01*
X14938333Y-14451286D02*
X15090714Y-14451286D01*
X15014524Y-14527476D02*
X15014524Y-14375095D01*
X15328809Y-14346524D02*
X15338333Y-14337000D01*
X15357381Y-14327476D01*
X15405000Y-14327476D01*
X15424048Y-14337000D01*
X15433571Y-14346524D01*
X15443095Y-14365571D01*
X15443095Y-14384619D01*
X15433571Y-14413190D01*
X15319286Y-14527476D01*
X15443095Y-14527476D01*
X15671667Y-14517952D02*
X15690714Y-14527476D01*
X15728809Y-14527476D01*
X15747857Y-14517952D01*
X15757381Y-14498905D01*
X15757381Y-14489381D01*
X15747857Y-14470333D01*
X15728809Y-14460809D01*
X15700238Y-14460809D01*
X15681190Y-14451286D01*
X15671667Y-14432238D01*
X15671667Y-14422714D01*
X15681190Y-14403667D01*
X15700238Y-14394143D01*
X15728809Y-14394143D01*
X15747857Y-14403667D01*
X15871667Y-14527476D02*
X15852619Y-14517952D01*
X15843095Y-14498905D01*
X15843095Y-14327476D01*
X15976428Y-14527476D02*
X15957381Y-14517952D01*
X15947857Y-14508428D01*
X15938333Y-14489381D01*
X15938333Y-14432238D01*
X15947857Y-14413190D01*
X15957381Y-14403667D01*
X15976428Y-14394143D01*
X16005000Y-14394143D01*
X16024048Y-14403667D01*
X16033571Y-14413190D01*
X16043095Y-14432238D01*
X16043095Y-14489381D01*
X16033571Y-14508428D01*
X16024048Y-14517952D01*
X16005000Y-14527476D01*
X15976428Y-14527476D01*
X16100238Y-14394143D02*
X16176428Y-14394143D01*
X16128809Y-14327476D02*
X16128809Y-14498905D01*
X16138333Y-14517952D01*
X16157381Y-14527476D01*
X16176428Y-14527476D01*
X16233571Y-14517952D02*
X16252619Y-14527476D01*
X16290714Y-14527476D01*
X16309762Y-14517952D01*
X16319286Y-14498905D01*
X16319286Y-14489381D01*
X16309762Y-14470333D01*
X16290714Y-14460809D01*
X16262143Y-14460809D01*
X16243095Y-14451286D01*
X16233571Y-14432238D01*
X16233571Y-14422714D01*
X16243095Y-14403667D01*
X16262143Y-14394143D01*
X16290714Y-14394143D01*
X16309762Y-14403667D01*
X16385952Y-14603667D02*
X16395476Y-14594143D01*
X16414524Y-14565571D01*
X16424048Y-14546524D01*
X16433571Y-14517952D01*
X16443095Y-14470333D01*
X16443095Y-14432238D01*
X16433571Y-14384619D01*
X16424048Y-14356048D01*
X16414524Y-14337000D01*
X16395476Y-14308428D01*
X16385952Y-14298905D01*
D15*
X9962500Y-14733500D02*
X9995000Y-14701000D01*
X9962500Y-14668500D01*
X9930000Y-14701000D01*
X9962500Y-14733500D01*
D11*
X10290714Y-14591476D02*
X10309762Y-14591476D01*
X10328810Y-14601000D01*
X10338333Y-14610524D01*
X10347857Y-14629571D01*
X10357381Y-14667667D01*
X10357381Y-14715286D01*
X10347857Y-14753381D01*
X10338333Y-14772428D01*
X10328810Y-14781952D01*
X10309762Y-14791476D01*
X10290714Y-14791476D01*
X10271667Y-14781952D01*
X10262143Y-14772428D01*
X10252619Y-14753381D01*
X10243095Y-14715286D01*
X10243095Y-14667667D01*
X10252619Y-14629571D01*
X10262143Y-14610524D01*
X10271667Y-14601000D01*
X10290714Y-14591476D01*
X10443095Y-14772428D02*
X10452619Y-14781952D01*
X10443095Y-14791476D01*
X10433571Y-14781952D01*
X10443095Y-14772428D01*
X10443095Y-14791476D01*
X10624048Y-14591476D02*
X10585952Y-14591476D01*
X10566905Y-14601000D01*
X10557381Y-14610524D01*
X10538333Y-14639095D01*
X10528810Y-14677190D01*
X10528810Y-14753381D01*
X10538333Y-14772428D01*
X10547857Y-14781952D01*
X10566905Y-14791476D01*
X10605000Y-14791476D01*
X10624048Y-14781952D01*
X10633571Y-14772428D01*
X10643095Y-14753381D01*
X10643095Y-14705762D01*
X10633571Y-14686714D01*
X10624048Y-14677190D01*
X10605000Y-14667667D01*
X10566905Y-14667667D01*
X10547857Y-14677190D01*
X10538333Y-14686714D01*
X10528810Y-14705762D01*
X10824048Y-14591476D02*
X10728810Y-14591476D01*
X10719286Y-14686714D01*
X10728810Y-14677190D01*
X10747857Y-14667667D01*
X10795476Y-14667667D01*
X10814524Y-14677190D01*
X10824048Y-14686714D01*
X10833571Y-14705762D01*
X10833571Y-14753381D01*
X10824048Y-14772428D01*
X10814524Y-14781952D01*
X10795476Y-14791476D01*
X10747857Y-14791476D01*
X10728810Y-14781952D01*
X10719286Y-14772428D01*
X10957381Y-14591476D02*
X10976429Y-14591476D01*
X10995476Y-14601000D01*
X11005000Y-14610524D01*
X11014524Y-14629571D01*
X11024048Y-14667667D01*
X11024048Y-14715286D01*
X11014524Y-14753381D01*
X11005000Y-14772428D01*
X10995476Y-14781952D01*
X10976429Y-14791476D01*
X10957381Y-14791476D01*
X10938333Y-14781952D01*
X10928810Y-14772428D01*
X10919286Y-14753381D01*
X10909762Y-14715286D01*
X10909762Y-14667667D01*
X10919286Y-14629571D01*
X10928810Y-14610524D01*
X10938333Y-14601000D01*
X10957381Y-14591476D01*
X11109762Y-14791476D02*
X11109762Y-14658143D01*
X11109762Y-14677190D02*
X11119286Y-14667667D01*
X11138333Y-14658143D01*
X11166905Y-14658143D01*
X11185952Y-14667667D01*
X11195476Y-14686714D01*
X11195476Y-14791476D01*
X11195476Y-14686714D02*
X11205000Y-14667667D01*
X11224048Y-14658143D01*
X11252619Y-14658143D01*
X11271667Y-14667667D01*
X11281190Y-14686714D01*
X11281190Y-14791476D01*
X11376428Y-14791476D02*
X11376428Y-14658143D01*
X11376428Y-14677190D02*
X11385952Y-14667667D01*
X11405000Y-14658143D01*
X11433571Y-14658143D01*
X11452619Y-14667667D01*
X11462143Y-14686714D01*
X11462143Y-14791476D01*
X11462143Y-14686714D02*
X11471667Y-14667667D01*
X11490714Y-14658143D01*
X11519286Y-14658143D01*
X11538333Y-14667667D01*
X11547857Y-14686714D01*
X11547857Y-14791476D01*
X11938333Y-14581952D02*
X11766905Y-14839095D01*
X12195476Y-14591476D02*
X12214524Y-14591476D01*
X12233571Y-14601000D01*
X12243095Y-14610524D01*
X12252619Y-14629571D01*
X12262143Y-14667667D01*
X12262143Y-14715286D01*
X12252619Y-14753381D01*
X12243095Y-14772428D01*
X12233571Y-14781952D01*
X12214524Y-14791476D01*
X12195476Y-14791476D01*
X12176428Y-14781952D01*
X12166905Y-14772428D01*
X12157381Y-14753381D01*
X12147857Y-14715286D01*
X12147857Y-14667667D01*
X12157381Y-14629571D01*
X12166905Y-14610524D01*
X12176428Y-14601000D01*
X12195476Y-14591476D01*
X12347857Y-14772428D02*
X12357381Y-14781952D01*
X12347857Y-14791476D01*
X12338333Y-14781952D01*
X12347857Y-14772428D01*
X12347857Y-14791476D01*
X12481190Y-14591476D02*
X12500238Y-14591476D01*
X12519286Y-14601000D01*
X12528809Y-14610524D01*
X12538333Y-14629571D01*
X12547857Y-14667667D01*
X12547857Y-14715286D01*
X12538333Y-14753381D01*
X12528809Y-14772428D01*
X12519286Y-14781952D01*
X12500238Y-14791476D01*
X12481190Y-14791476D01*
X12462143Y-14781952D01*
X12452619Y-14772428D01*
X12443095Y-14753381D01*
X12433571Y-14715286D01*
X12433571Y-14667667D01*
X12443095Y-14629571D01*
X12452619Y-14610524D01*
X12462143Y-14601000D01*
X12481190Y-14591476D01*
X12624048Y-14610524D02*
X12633571Y-14601000D01*
X12652619Y-14591476D01*
X12700238Y-14591476D01*
X12719286Y-14601000D01*
X12728809Y-14610524D01*
X12738333Y-14629571D01*
X12738333Y-14648619D01*
X12728809Y-14677190D01*
X12614524Y-14791476D01*
X12738333Y-14791476D01*
X12919286Y-14591476D02*
X12824048Y-14591476D01*
X12814524Y-14686714D01*
X12824048Y-14677190D01*
X12843095Y-14667667D01*
X12890714Y-14667667D01*
X12909762Y-14677190D01*
X12919286Y-14686714D01*
X12928809Y-14705762D01*
X12928809Y-14753381D01*
X12919286Y-14772428D01*
X12909762Y-14781952D01*
X12890714Y-14791476D01*
X12843095Y-14791476D01*
X12824048Y-14781952D01*
X12814524Y-14772428D01*
X13100238Y-14591476D02*
X13062143Y-14591476D01*
X13043095Y-14601000D01*
X13033571Y-14610524D01*
X13014524Y-14639095D01*
X13005000Y-14677190D01*
X13005000Y-14753381D01*
X13014524Y-14772428D01*
X13024048Y-14781952D01*
X13043095Y-14791476D01*
X13081190Y-14791476D01*
X13100238Y-14781952D01*
X13109762Y-14772428D01*
X13119286Y-14753381D01*
X13119286Y-14705762D01*
X13109762Y-14686714D01*
X13100238Y-14677190D01*
X13081190Y-14667667D01*
X13043095Y-14667667D01*
X13024048Y-14677190D01*
X13014524Y-14686714D01*
X13005000Y-14705762D01*
X13195476Y-14591476D02*
X13195476Y-14629571D01*
X13271667Y-14591476D02*
X13271667Y-14629571D01*
X13566905Y-14867667D02*
X13557381Y-14858143D01*
X13538333Y-14829571D01*
X13528809Y-14810524D01*
X13519286Y-14781952D01*
X13509762Y-14734333D01*
X13509762Y-14696238D01*
X13519286Y-14648619D01*
X13528809Y-14620048D01*
X13538333Y-14601000D01*
X13557381Y-14572428D01*
X13566905Y-14562905D01*
X13747857Y-14791476D02*
X13633571Y-14791476D01*
X13690714Y-14791476D02*
X13690714Y-14591476D01*
X13671667Y-14620048D01*
X13652619Y-14639095D01*
X13633571Y-14648619D01*
X13871667Y-14591476D02*
X13890714Y-14591476D01*
X13909762Y-14601000D01*
X13919286Y-14610524D01*
X13928809Y-14629571D01*
X13938333Y-14667667D01*
X13938333Y-14715286D01*
X13928809Y-14753381D01*
X13919286Y-14772428D01*
X13909762Y-14781952D01*
X13890714Y-14791476D01*
X13871667Y-14791476D01*
X13852619Y-14781952D01*
X13843095Y-14772428D01*
X13833571Y-14753381D01*
X13824048Y-14715286D01*
X13824048Y-14667667D01*
X13833571Y-14629571D01*
X13843095Y-14610524D01*
X13852619Y-14601000D01*
X13871667Y-14591476D01*
X14176428Y-14791476D02*
X14176428Y-14591476D01*
X14262143Y-14791476D02*
X14262143Y-14686714D01*
X14252619Y-14667667D01*
X14233571Y-14658143D01*
X14205000Y-14658143D01*
X14185952Y-14667667D01*
X14176428Y-14677190D01*
X14385952Y-14791476D02*
X14366905Y-14781952D01*
X14357381Y-14772428D01*
X14347857Y-14753381D01*
X14347857Y-14696238D01*
X14357381Y-14677190D01*
X14366905Y-14667667D01*
X14385952Y-14658143D01*
X14414524Y-14658143D01*
X14433571Y-14667667D01*
X14443095Y-14677190D01*
X14452619Y-14696238D01*
X14452619Y-14753381D01*
X14443095Y-14772428D01*
X14433571Y-14781952D01*
X14414524Y-14791476D01*
X14385952Y-14791476D01*
X14566905Y-14791476D02*
X14547857Y-14781952D01*
X14538333Y-14762905D01*
X14538333Y-14591476D01*
X14719286Y-14781952D02*
X14700238Y-14791476D01*
X14662143Y-14791476D01*
X14643095Y-14781952D01*
X14633571Y-14762905D01*
X14633571Y-14686714D01*
X14643095Y-14667667D01*
X14662143Y-14658143D01*
X14700238Y-14658143D01*
X14719286Y-14667667D01*
X14728809Y-14686714D01*
X14728809Y-14705762D01*
X14633571Y-14724809D01*
X14805000Y-14781952D02*
X14824048Y-14791476D01*
X14862143Y-14791476D01*
X14881190Y-14781952D01*
X14890714Y-14762905D01*
X14890714Y-14753381D01*
X14881190Y-14734333D01*
X14862143Y-14724809D01*
X14833571Y-14724809D01*
X14814524Y-14715286D01*
X14805000Y-14696238D01*
X14805000Y-14686714D01*
X14814524Y-14667667D01*
X14833571Y-14658143D01*
X14862143Y-14658143D01*
X14881190Y-14667667D01*
X15128809Y-14715286D02*
X15281190Y-14715286D01*
X15205000Y-14791476D02*
X15205000Y-14639095D01*
X15519286Y-14610524D02*
X15528809Y-14601000D01*
X15547857Y-14591476D01*
X15595476Y-14591476D01*
X15614524Y-14601000D01*
X15624048Y-14610524D01*
X15633571Y-14629571D01*
X15633571Y-14648619D01*
X15624048Y-14677190D01*
X15509762Y-14791476D01*
X15633571Y-14791476D01*
X15862143Y-14781952D02*
X15881190Y-14791476D01*
X15919286Y-14791476D01*
X15938333Y-14781952D01*
X15947857Y-14762905D01*
X15947857Y-14753381D01*
X15938333Y-14734333D01*
X15919286Y-14724809D01*
X15890714Y-14724809D01*
X15871667Y-14715286D01*
X15862143Y-14696238D01*
X15862143Y-14686714D01*
X15871667Y-14667667D01*
X15890714Y-14658143D01*
X15919286Y-14658143D01*
X15938333Y-14667667D01*
X16062143Y-14791476D02*
X16043095Y-14781952D01*
X16033571Y-14762905D01*
X16033571Y-14591476D01*
X16166905Y-14791476D02*
X16147857Y-14781952D01*
X16138333Y-14772428D01*
X16128809Y-14753381D01*
X16128809Y-14696238D01*
X16138333Y-14677190D01*
X16147857Y-14667667D01*
X16166905Y-14658143D01*
X16195476Y-14658143D01*
X16214524Y-14667667D01*
X16224048Y-14677190D01*
X16233571Y-14696238D01*
X16233571Y-14753381D01*
X16224048Y-14772428D01*
X16214524Y-14781952D01*
X16195476Y-14791476D01*
X16166905Y-14791476D01*
X16290714Y-14658143D02*
X16366905Y-14658143D01*
X16319286Y-14591476D02*
X16319286Y-14762905D01*
X16328809Y-14781952D01*
X16347857Y-14791476D01*
X16366905Y-14791476D01*
X16424048Y-14781952D02*
X16443095Y-14791476D01*
X16481190Y-14791476D01*
X16500238Y-14781952D01*
X16509762Y-14762905D01*
X16509762Y-14753381D01*
X16500238Y-14734333D01*
X16481190Y-14724809D01*
X16452619Y-14724809D01*
X16433571Y-14715286D01*
X16424048Y-14696238D01*
X16424048Y-14686714D01*
X16433571Y-14667667D01*
X16452619Y-14658143D01*
X16481190Y-14658143D01*
X16500238Y-14667667D01*
X16576428Y-14867667D02*
X16585952Y-14858143D01*
X16605000Y-14829571D01*
X16614524Y-14810524D01*
X16624048Y-14781952D01*
X16633571Y-14734333D01*
X16633571Y-14696238D01*
X16624048Y-14648619D01*
X16614524Y-14620048D01*
X16605000Y-14601000D01*
X16585952Y-14572428D01*
X16576428Y-14562905D01*
D16*
X9920000Y-14927500D02*
X9995000Y-15002500D01*
X9995000Y-14927500D02*
X9920000Y-15002500D01*
X9995000Y-14965000D02*
G75*
G03*
X9995000Y-14965000I-37500J0D01*
G01*
D11*
X10290714Y-14855476D02*
X10309762Y-14855476D01*
X10328810Y-14865000D01*
X10338333Y-14874524D01*
X10347857Y-14893571D01*
X10357381Y-14931667D01*
X10357381Y-14979286D01*
X10347857Y-15017381D01*
X10338333Y-15036428D01*
X10328810Y-15045952D01*
X10309762Y-15055476D01*
X10290714Y-15055476D01*
X10271667Y-15045952D01*
X10262143Y-15036428D01*
X10252619Y-15017381D01*
X10243095Y-14979286D01*
X10243095Y-14931667D01*
X10252619Y-14893571D01*
X10262143Y-14874524D01*
X10271667Y-14865000D01*
X10290714Y-14855476D01*
X10443095Y-15036428D02*
X10452619Y-15045952D01*
X10443095Y-15055476D01*
X10433571Y-15045952D01*
X10443095Y-15036428D01*
X10443095Y-15055476D01*
X10519286Y-14855476D02*
X10652619Y-14855476D01*
X10566905Y-15055476D01*
X10824048Y-14855476D02*
X10728810Y-14855476D01*
X10719286Y-14950714D01*
X10728810Y-14941190D01*
X10747857Y-14931667D01*
X10795476Y-14931667D01*
X10814524Y-14941190D01*
X10824048Y-14950714D01*
X10833571Y-14969762D01*
X10833571Y-15017381D01*
X10824048Y-15036428D01*
X10814524Y-15045952D01*
X10795476Y-15055476D01*
X10747857Y-15055476D01*
X10728810Y-15045952D01*
X10719286Y-15036428D01*
X10957381Y-14855476D02*
X10976429Y-14855476D01*
X10995476Y-14865000D01*
X11005000Y-14874524D01*
X11014524Y-14893571D01*
X11024048Y-14931667D01*
X11024048Y-14979286D01*
X11014524Y-15017381D01*
X11005000Y-15036428D01*
X10995476Y-15045952D01*
X10976429Y-15055476D01*
X10957381Y-15055476D01*
X10938333Y-15045952D01*
X10928810Y-15036428D01*
X10919286Y-15017381D01*
X10909762Y-14979286D01*
X10909762Y-14931667D01*
X10919286Y-14893571D01*
X10928810Y-14874524D01*
X10938333Y-14865000D01*
X10957381Y-14855476D01*
X11109762Y-15055476D02*
X11109762Y-14922143D01*
X11109762Y-14941190D02*
X11119286Y-14931667D01*
X11138333Y-14922143D01*
X11166905Y-14922143D01*
X11185952Y-14931667D01*
X11195476Y-14950714D01*
X11195476Y-15055476D01*
X11195476Y-14950714D02*
X11205000Y-14931667D01*
X11224048Y-14922143D01*
X11252619Y-14922143D01*
X11271667Y-14931667D01*
X11281190Y-14950714D01*
X11281190Y-15055476D01*
X11376428Y-15055476D02*
X11376428Y-14922143D01*
X11376428Y-14941190D02*
X11385952Y-14931667D01*
X11405000Y-14922143D01*
X11433571Y-14922143D01*
X11452619Y-14931667D01*
X11462143Y-14950714D01*
X11462143Y-15055476D01*
X11462143Y-14950714D02*
X11471667Y-14931667D01*
X11490714Y-14922143D01*
X11519286Y-14922143D01*
X11538333Y-14931667D01*
X11547857Y-14950714D01*
X11547857Y-15055476D01*
X11938333Y-14845952D02*
X11766905Y-15103095D01*
X12195476Y-14855476D02*
X12214524Y-14855476D01*
X12233571Y-14865000D01*
X12243095Y-14874524D01*
X12252619Y-14893571D01*
X12262143Y-14931667D01*
X12262143Y-14979286D01*
X12252619Y-15017381D01*
X12243095Y-15036428D01*
X12233571Y-15045952D01*
X12214524Y-15055476D01*
X12195476Y-15055476D01*
X12176428Y-15045952D01*
X12166905Y-15036428D01*
X12157381Y-15017381D01*
X12147857Y-14979286D01*
X12147857Y-14931667D01*
X12157381Y-14893571D01*
X12166905Y-14874524D01*
X12176428Y-14865000D01*
X12195476Y-14855476D01*
X12347857Y-15036428D02*
X12357381Y-15045952D01*
X12347857Y-15055476D01*
X12338333Y-15045952D01*
X12347857Y-15036428D01*
X12347857Y-15055476D01*
X12481190Y-14855476D02*
X12500238Y-14855476D01*
X12519286Y-14865000D01*
X12528809Y-14874524D01*
X12538333Y-14893571D01*
X12547857Y-14931667D01*
X12547857Y-14979286D01*
X12538333Y-15017381D01*
X12528809Y-15036428D01*
X12519286Y-15045952D01*
X12500238Y-15055476D01*
X12481190Y-15055476D01*
X12462143Y-15045952D01*
X12452619Y-15036428D01*
X12443095Y-15017381D01*
X12433571Y-14979286D01*
X12433571Y-14931667D01*
X12443095Y-14893571D01*
X12452619Y-14874524D01*
X12462143Y-14865000D01*
X12481190Y-14855476D01*
X12624048Y-14874524D02*
X12633571Y-14865000D01*
X12652619Y-14855476D01*
X12700238Y-14855476D01*
X12719286Y-14865000D01*
X12728809Y-14874524D01*
X12738333Y-14893571D01*
X12738333Y-14912619D01*
X12728809Y-14941190D01*
X12614524Y-15055476D01*
X12738333Y-15055476D01*
X12833571Y-15055476D02*
X12871667Y-15055476D01*
X12890714Y-15045952D01*
X12900238Y-15036428D01*
X12919286Y-15007857D01*
X12928809Y-14969762D01*
X12928809Y-14893571D01*
X12919286Y-14874524D01*
X12909762Y-14865000D01*
X12890714Y-14855476D01*
X12852619Y-14855476D01*
X12833571Y-14865000D01*
X12824048Y-14874524D01*
X12814524Y-14893571D01*
X12814524Y-14941190D01*
X12824048Y-14960238D01*
X12833571Y-14969762D01*
X12852619Y-14979286D01*
X12890714Y-14979286D01*
X12909762Y-14969762D01*
X12919286Y-14960238D01*
X12928809Y-14941190D01*
X13109762Y-14855476D02*
X13014524Y-14855476D01*
X13005000Y-14950714D01*
X13014524Y-14941190D01*
X13033571Y-14931667D01*
X13081190Y-14931667D01*
X13100238Y-14941190D01*
X13109762Y-14950714D01*
X13119286Y-14969762D01*
X13119286Y-15017381D01*
X13109762Y-15036428D01*
X13100238Y-15045952D01*
X13081190Y-15055476D01*
X13033571Y-15055476D01*
X13014524Y-15045952D01*
X13005000Y-15036428D01*
X13195476Y-14855476D02*
X13195476Y-14893571D01*
X13271667Y-14855476D02*
X13271667Y-14893571D01*
X13566905Y-15131667D02*
X13557381Y-15122143D01*
X13538333Y-15093571D01*
X13528809Y-15074524D01*
X13519286Y-15045952D01*
X13509762Y-14998333D01*
X13509762Y-14960238D01*
X13519286Y-14912619D01*
X13528809Y-14884048D01*
X13538333Y-14865000D01*
X13557381Y-14836428D01*
X13566905Y-14826905D01*
X13633571Y-14874524D02*
X13643095Y-14865000D01*
X13662143Y-14855476D01*
X13709762Y-14855476D01*
X13728809Y-14865000D01*
X13738333Y-14874524D01*
X13747857Y-14893571D01*
X13747857Y-14912619D01*
X13738333Y-14941190D01*
X13624048Y-15055476D01*
X13747857Y-15055476D01*
X13862143Y-14941190D02*
X13843095Y-14931667D01*
X13833571Y-14922143D01*
X13824048Y-14903095D01*
X13824048Y-14893571D01*
X13833571Y-14874524D01*
X13843095Y-14865000D01*
X13862143Y-14855476D01*
X13900238Y-14855476D01*
X13919286Y-14865000D01*
X13928809Y-14874524D01*
X13938333Y-14893571D01*
X13938333Y-14903095D01*
X13928809Y-14922143D01*
X13919286Y-14931667D01*
X13900238Y-14941190D01*
X13862143Y-14941190D01*
X13843095Y-14950714D01*
X13833571Y-14960238D01*
X13824048Y-14979286D01*
X13824048Y-15017381D01*
X13833571Y-15036428D01*
X13843095Y-15045952D01*
X13862143Y-15055476D01*
X13900238Y-15055476D01*
X13919286Y-15045952D01*
X13928809Y-15036428D01*
X13938333Y-15017381D01*
X13938333Y-14979286D01*
X13928809Y-14960238D01*
X13919286Y-14950714D01*
X13900238Y-14941190D01*
X14176428Y-15055476D02*
X14176428Y-14855476D01*
X14262143Y-15055476D02*
X14262143Y-14950714D01*
X14252619Y-14931667D01*
X14233571Y-14922143D01*
X14205000Y-14922143D01*
X14185952Y-14931667D01*
X14176428Y-14941190D01*
X14385952Y-15055476D02*
X14366905Y-15045952D01*
X14357381Y-15036428D01*
X14347857Y-15017381D01*
X14347857Y-14960238D01*
X14357381Y-14941190D01*
X14366905Y-14931667D01*
X14385952Y-14922143D01*
X14414524Y-14922143D01*
X14433571Y-14931667D01*
X14443095Y-14941190D01*
X14452619Y-14960238D01*
X14452619Y-15017381D01*
X14443095Y-15036428D01*
X14433571Y-15045952D01*
X14414524Y-15055476D01*
X14385952Y-15055476D01*
X14566905Y-15055476D02*
X14547857Y-15045952D01*
X14538333Y-15026905D01*
X14538333Y-14855476D01*
X14719286Y-15045952D02*
X14700238Y-15055476D01*
X14662143Y-15055476D01*
X14643095Y-15045952D01*
X14633571Y-15026905D01*
X14633571Y-14950714D01*
X14643095Y-14931667D01*
X14662143Y-14922143D01*
X14700238Y-14922143D01*
X14719286Y-14931667D01*
X14728809Y-14950714D01*
X14728809Y-14969762D01*
X14633571Y-14988809D01*
X14805000Y-15045952D02*
X14824048Y-15055476D01*
X14862143Y-15055476D01*
X14881190Y-15045952D01*
X14890714Y-15026905D01*
X14890714Y-15017381D01*
X14881190Y-14998333D01*
X14862143Y-14988809D01*
X14833571Y-14988809D01*
X14814524Y-14979286D01*
X14805000Y-14960238D01*
X14805000Y-14950714D01*
X14814524Y-14931667D01*
X14833571Y-14922143D01*
X14862143Y-14922143D01*
X14881190Y-14931667D01*
X14957381Y-15131667D02*
X14966905Y-15122143D01*
X14985952Y-15093571D01*
X14995476Y-15074524D01*
X15005000Y-15045952D01*
X15014524Y-14998333D01*
X15014524Y-14960238D01*
X15005000Y-14912619D01*
X14995476Y-14884048D01*
X14985952Y-14865000D01*
X14966905Y-14836428D01*
X14957381Y-14826905D01*
X9795000Y-15129000D02*
X9995000Y-15329000D01*
X9995000Y-15129000D02*
X9795000Y-15329000D01*
X9895000Y-15129000D02*
X9895000Y-15329000D01*
X9795000Y-15229000D02*
X9995000Y-15229000D01*
X10243095Y-15138524D02*
X10252619Y-15129000D01*
X10271667Y-15119476D01*
X10319286Y-15119476D01*
X10338333Y-15129000D01*
X10347857Y-15138524D01*
X10357381Y-15157571D01*
X10357381Y-15176619D01*
X10347857Y-15205190D01*
X10233571Y-15319476D01*
X10357381Y-15319476D01*
X10443095Y-15300428D02*
X10452619Y-15309952D01*
X10443095Y-15319476D01*
X10433571Y-15309952D01*
X10443095Y-15300428D01*
X10443095Y-15319476D01*
X10528810Y-15138524D02*
X10538333Y-15129000D01*
X10557381Y-15119476D01*
X10605000Y-15119476D01*
X10624048Y-15129000D01*
X10633571Y-15138524D01*
X10643095Y-15157571D01*
X10643095Y-15176619D01*
X10633571Y-15205190D01*
X10519286Y-15319476D01*
X10643095Y-15319476D01*
X10766905Y-15119476D02*
X10785952Y-15119476D01*
X10805000Y-15129000D01*
X10814524Y-15138524D01*
X10824048Y-15157571D01*
X10833571Y-15195667D01*
X10833571Y-15243286D01*
X10824048Y-15281381D01*
X10814524Y-15300428D01*
X10805000Y-15309952D01*
X10785952Y-15319476D01*
X10766905Y-15319476D01*
X10747857Y-15309952D01*
X10738333Y-15300428D01*
X10728810Y-15281381D01*
X10719286Y-15243286D01*
X10719286Y-15195667D01*
X10728810Y-15157571D01*
X10738333Y-15138524D01*
X10747857Y-15129000D01*
X10766905Y-15119476D01*
X10957381Y-15119476D02*
X10976429Y-15119476D01*
X10995476Y-15129000D01*
X11005000Y-15138524D01*
X11014524Y-15157571D01*
X11024048Y-15195667D01*
X11024048Y-15243286D01*
X11014524Y-15281381D01*
X11005000Y-15300428D01*
X10995476Y-15309952D01*
X10976429Y-15319476D01*
X10957381Y-15319476D01*
X10938333Y-15309952D01*
X10928810Y-15300428D01*
X10919286Y-15281381D01*
X10909762Y-15243286D01*
X10909762Y-15195667D01*
X10919286Y-15157571D01*
X10928810Y-15138524D01*
X10938333Y-15129000D01*
X10957381Y-15119476D01*
X11109762Y-15319476D02*
X11109762Y-15186143D01*
X11109762Y-15205190D02*
X11119286Y-15195667D01*
X11138333Y-15186143D01*
X11166905Y-15186143D01*
X11185952Y-15195667D01*
X11195476Y-15214714D01*
X11195476Y-15319476D01*
X11195476Y-15214714D02*
X11205000Y-15195667D01*
X11224048Y-15186143D01*
X11252619Y-15186143D01*
X11271667Y-15195667D01*
X11281190Y-15214714D01*
X11281190Y-15319476D01*
X11376428Y-15319476D02*
X11376428Y-15186143D01*
X11376428Y-15205190D02*
X11385952Y-15195667D01*
X11405000Y-15186143D01*
X11433571Y-15186143D01*
X11452619Y-15195667D01*
X11462143Y-15214714D01*
X11462143Y-15319476D01*
X11462143Y-15214714D02*
X11471667Y-15195667D01*
X11490714Y-15186143D01*
X11519286Y-15186143D01*
X11538333Y-15195667D01*
X11547857Y-15214714D01*
X11547857Y-15319476D01*
X11938333Y-15109952D02*
X11766905Y-15367095D01*
X12195476Y-15119476D02*
X12214524Y-15119476D01*
X12233571Y-15129000D01*
X12243095Y-15138524D01*
X12252619Y-15157571D01*
X12262143Y-15195667D01*
X12262143Y-15243286D01*
X12252619Y-15281381D01*
X12243095Y-15300428D01*
X12233571Y-15309952D01*
X12214524Y-15319476D01*
X12195476Y-15319476D01*
X12176428Y-15309952D01*
X12166905Y-15300428D01*
X12157381Y-15281381D01*
X12147857Y-15243286D01*
X12147857Y-15195667D01*
X12157381Y-15157571D01*
X12166905Y-15138524D01*
X12176428Y-15129000D01*
X12195476Y-15119476D01*
X12347857Y-15300428D02*
X12357381Y-15309952D01*
X12347857Y-15319476D01*
X12338333Y-15309952D01*
X12347857Y-15300428D01*
X12347857Y-15319476D01*
X12481190Y-15119476D02*
X12500238Y-15119476D01*
X12519286Y-15129000D01*
X12528809Y-15138524D01*
X12538333Y-15157571D01*
X12547857Y-15195667D01*
X12547857Y-15243286D01*
X12538333Y-15281381D01*
X12528809Y-15300428D01*
X12519286Y-15309952D01*
X12500238Y-15319476D01*
X12481190Y-15319476D01*
X12462143Y-15309952D01*
X12452619Y-15300428D01*
X12443095Y-15281381D01*
X12433571Y-15243286D01*
X12433571Y-15195667D01*
X12443095Y-15157571D01*
X12452619Y-15138524D01*
X12462143Y-15129000D01*
X12481190Y-15119476D01*
X12662143Y-15205190D02*
X12643095Y-15195667D01*
X12633571Y-15186143D01*
X12624048Y-15167095D01*
X12624048Y-15157571D01*
X12633571Y-15138524D01*
X12643095Y-15129000D01*
X12662143Y-15119476D01*
X12700238Y-15119476D01*
X12719286Y-15129000D01*
X12728809Y-15138524D01*
X12738333Y-15157571D01*
X12738333Y-15167095D01*
X12728809Y-15186143D01*
X12719286Y-15195667D01*
X12700238Y-15205190D01*
X12662143Y-15205190D01*
X12643095Y-15214714D01*
X12633571Y-15224238D01*
X12624048Y-15243286D01*
X12624048Y-15281381D01*
X12633571Y-15300428D01*
X12643095Y-15309952D01*
X12662143Y-15319476D01*
X12700238Y-15319476D01*
X12719286Y-15309952D01*
X12728809Y-15300428D01*
X12738333Y-15281381D01*
X12738333Y-15243286D01*
X12728809Y-15224238D01*
X12719286Y-15214714D01*
X12700238Y-15205190D01*
X12909762Y-15119476D02*
X12871667Y-15119476D01*
X12852619Y-15129000D01*
X12843095Y-15138524D01*
X12824048Y-15167095D01*
X12814524Y-15205190D01*
X12814524Y-15281381D01*
X12824048Y-15300428D01*
X12833571Y-15309952D01*
X12852619Y-15319476D01*
X12890714Y-15319476D01*
X12909762Y-15309952D01*
X12919286Y-15300428D01*
X12928809Y-15281381D01*
X12928809Y-15233762D01*
X12919286Y-15214714D01*
X12909762Y-15205190D01*
X12890714Y-15195667D01*
X12852619Y-15195667D01*
X12833571Y-15205190D01*
X12824048Y-15214714D01*
X12814524Y-15233762D01*
X13100238Y-15119476D02*
X13062143Y-15119476D01*
X13043095Y-15129000D01*
X13033571Y-15138524D01*
X13014524Y-15167095D01*
X13005000Y-15205190D01*
X13005000Y-15281381D01*
X13014524Y-15300428D01*
X13024048Y-15309952D01*
X13043095Y-15319476D01*
X13081190Y-15319476D01*
X13100238Y-15309952D01*
X13109762Y-15300428D01*
X13119286Y-15281381D01*
X13119286Y-15233762D01*
X13109762Y-15214714D01*
X13100238Y-15205190D01*
X13081190Y-15195667D01*
X13043095Y-15195667D01*
X13024048Y-15205190D01*
X13014524Y-15214714D01*
X13005000Y-15233762D01*
X13195476Y-15119476D02*
X13195476Y-15157571D01*
X13271667Y-15119476D02*
X13271667Y-15157571D01*
X13566905Y-15395667D02*
X13557381Y-15386143D01*
X13538333Y-15357571D01*
X13528809Y-15338524D01*
X13519286Y-15309952D01*
X13509762Y-15262333D01*
X13509762Y-15224238D01*
X13519286Y-15176619D01*
X13528809Y-15148048D01*
X13538333Y-15129000D01*
X13557381Y-15100428D01*
X13566905Y-15090905D01*
X13738333Y-15119476D02*
X13643095Y-15119476D01*
X13633571Y-15214714D01*
X13643095Y-15205190D01*
X13662143Y-15195667D01*
X13709762Y-15195667D01*
X13728809Y-15205190D01*
X13738333Y-15214714D01*
X13747857Y-15233762D01*
X13747857Y-15281381D01*
X13738333Y-15300428D01*
X13728809Y-15309952D01*
X13709762Y-15319476D01*
X13662143Y-15319476D01*
X13643095Y-15309952D01*
X13633571Y-15300428D01*
X13985952Y-15319476D02*
X13985952Y-15119476D01*
X14071667Y-15319476D02*
X14071667Y-15214714D01*
X14062143Y-15195667D01*
X14043095Y-15186143D01*
X14014524Y-15186143D01*
X13995476Y-15195667D01*
X13985952Y-15205190D01*
X14195476Y-15319476D02*
X14176428Y-15309952D01*
X14166905Y-15300428D01*
X14157381Y-15281381D01*
X14157381Y-15224238D01*
X14166905Y-15205190D01*
X14176428Y-15195667D01*
X14195476Y-15186143D01*
X14224048Y-15186143D01*
X14243095Y-15195667D01*
X14252619Y-15205190D01*
X14262143Y-15224238D01*
X14262143Y-15281381D01*
X14252619Y-15300428D01*
X14243095Y-15309952D01*
X14224048Y-15319476D01*
X14195476Y-15319476D01*
X14376428Y-15319476D02*
X14357381Y-15309952D01*
X14347857Y-15290905D01*
X14347857Y-15119476D01*
X14528809Y-15309952D02*
X14509762Y-15319476D01*
X14471667Y-15319476D01*
X14452619Y-15309952D01*
X14443095Y-15290905D01*
X14443095Y-15214714D01*
X14452619Y-15195667D01*
X14471667Y-15186143D01*
X14509762Y-15186143D01*
X14528809Y-15195667D01*
X14538333Y-15214714D01*
X14538333Y-15233762D01*
X14443095Y-15252809D01*
X14614524Y-15309952D02*
X14633571Y-15319476D01*
X14671667Y-15319476D01*
X14690714Y-15309952D01*
X14700238Y-15290905D01*
X14700238Y-15281381D01*
X14690714Y-15262333D01*
X14671667Y-15252809D01*
X14643095Y-15252809D01*
X14624048Y-15243286D01*
X14614524Y-15224238D01*
X14614524Y-15214714D01*
X14624048Y-15195667D01*
X14643095Y-15186143D01*
X14671667Y-15186143D01*
X14690714Y-15195667D01*
X14766905Y-15395667D02*
X14776428Y-15386143D01*
X14795476Y-15357571D01*
X14805000Y-15338524D01*
X14814524Y-15309952D01*
X14824048Y-15262333D01*
X14824048Y-15224238D01*
X14814524Y-15176619D01*
X14805000Y-15148048D01*
X14795476Y-15129000D01*
X14776428Y-15100428D01*
X14766905Y-15090905D01*
X9795000Y-15449000D02*
X9995000Y-15649000D01*
X9995000Y-15449000D02*
X9795000Y-15649000D01*
X9965711Y-15619711D02*
X9965711Y-15478289D01*
X9824289Y-15478289D01*
X9824289Y-15619711D01*
X9965711Y-15619711D01*
X10233571Y-15439476D02*
X10357381Y-15439476D01*
X10290714Y-15515667D01*
X10319286Y-15515667D01*
X10338333Y-15525190D01*
X10347857Y-15534714D01*
X10357381Y-15553762D01*
X10357381Y-15601381D01*
X10347857Y-15620428D01*
X10338333Y-15629952D01*
X10319286Y-15639476D01*
X10262143Y-15639476D01*
X10243095Y-15629952D01*
X10233571Y-15620428D01*
X10443095Y-15620428D02*
X10452619Y-15629952D01*
X10443095Y-15639476D01*
X10433571Y-15629952D01*
X10443095Y-15620428D01*
X10443095Y-15639476D01*
X10528810Y-15458524D02*
X10538333Y-15449000D01*
X10557381Y-15439476D01*
X10605000Y-15439476D01*
X10624048Y-15449000D01*
X10633571Y-15458524D01*
X10643095Y-15477571D01*
X10643095Y-15496619D01*
X10633571Y-15525190D01*
X10519286Y-15639476D01*
X10643095Y-15639476D01*
X10766905Y-15439476D02*
X10785952Y-15439476D01*
X10805000Y-15449000D01*
X10814524Y-15458524D01*
X10824048Y-15477571D01*
X10833571Y-15515667D01*
X10833571Y-15563286D01*
X10824048Y-15601381D01*
X10814524Y-15620428D01*
X10805000Y-15629952D01*
X10785952Y-15639476D01*
X10766905Y-15639476D01*
X10747857Y-15629952D01*
X10738333Y-15620428D01*
X10728810Y-15601381D01*
X10719286Y-15563286D01*
X10719286Y-15515667D01*
X10728810Y-15477571D01*
X10738333Y-15458524D01*
X10747857Y-15449000D01*
X10766905Y-15439476D01*
X10957381Y-15439476D02*
X10976429Y-15439476D01*
X10995476Y-15449000D01*
X11005000Y-15458524D01*
X11014524Y-15477571D01*
X11024048Y-15515667D01*
X11024048Y-15563286D01*
X11014524Y-15601381D01*
X11005000Y-15620428D01*
X10995476Y-15629952D01*
X10976429Y-15639476D01*
X10957381Y-15639476D01*
X10938333Y-15629952D01*
X10928810Y-15620428D01*
X10919286Y-15601381D01*
X10909762Y-15563286D01*
X10909762Y-15515667D01*
X10919286Y-15477571D01*
X10928810Y-15458524D01*
X10938333Y-15449000D01*
X10957381Y-15439476D01*
X11109762Y-15639476D02*
X11109762Y-15506143D01*
X11109762Y-15525190D02*
X11119286Y-15515667D01*
X11138333Y-15506143D01*
X11166905Y-15506143D01*
X11185952Y-15515667D01*
X11195476Y-15534714D01*
X11195476Y-15639476D01*
X11195476Y-15534714D02*
X11205000Y-15515667D01*
X11224048Y-15506143D01*
X11252619Y-15506143D01*
X11271667Y-15515667D01*
X11281190Y-15534714D01*
X11281190Y-15639476D01*
X11376428Y-15639476D02*
X11376428Y-15506143D01*
X11376428Y-15525190D02*
X11385952Y-15515667D01*
X11405000Y-15506143D01*
X11433571Y-15506143D01*
X11452619Y-15515667D01*
X11462143Y-15534714D01*
X11462143Y-15639476D01*
X11462143Y-15534714D02*
X11471667Y-15515667D01*
X11490714Y-15506143D01*
X11519286Y-15506143D01*
X11538333Y-15515667D01*
X11547857Y-15534714D01*
X11547857Y-15639476D01*
X11938333Y-15429952D02*
X11766905Y-15687095D01*
X12195476Y-15439476D02*
X12214524Y-15439476D01*
X12233571Y-15449000D01*
X12243095Y-15458524D01*
X12252619Y-15477571D01*
X12262143Y-15515667D01*
X12262143Y-15563286D01*
X12252619Y-15601381D01*
X12243095Y-15620428D01*
X12233571Y-15629952D01*
X12214524Y-15639476D01*
X12195476Y-15639476D01*
X12176428Y-15629952D01*
X12166905Y-15620428D01*
X12157381Y-15601381D01*
X12147857Y-15563286D01*
X12147857Y-15515667D01*
X12157381Y-15477571D01*
X12166905Y-15458524D01*
X12176428Y-15449000D01*
X12195476Y-15439476D01*
X12347857Y-15620428D02*
X12357381Y-15629952D01*
X12347857Y-15639476D01*
X12338333Y-15629952D01*
X12347857Y-15620428D01*
X12347857Y-15639476D01*
X12547857Y-15639476D02*
X12433571Y-15639476D01*
X12490714Y-15639476D02*
X12490714Y-15439476D01*
X12471667Y-15468048D01*
X12452619Y-15487095D01*
X12433571Y-15496619D01*
X12624048Y-15458524D02*
X12633571Y-15449000D01*
X12652619Y-15439476D01*
X12700238Y-15439476D01*
X12719286Y-15449000D01*
X12728809Y-15458524D01*
X12738333Y-15477571D01*
X12738333Y-15496619D01*
X12728809Y-15525190D01*
X12614524Y-15639476D01*
X12738333Y-15639476D01*
X12909762Y-15439476D02*
X12871667Y-15439476D01*
X12852619Y-15449000D01*
X12843095Y-15458524D01*
X12824048Y-15487095D01*
X12814524Y-15525190D01*
X12814524Y-15601381D01*
X12824048Y-15620428D01*
X12833571Y-15629952D01*
X12852619Y-15639476D01*
X12890714Y-15639476D01*
X12909762Y-15629952D01*
X12919286Y-15620428D01*
X12928809Y-15601381D01*
X12928809Y-15553762D01*
X12919286Y-15534714D01*
X12909762Y-15525190D01*
X12890714Y-15515667D01*
X12852619Y-15515667D01*
X12833571Y-15525190D01*
X12824048Y-15534714D01*
X12814524Y-15553762D01*
X13052619Y-15439476D02*
X13071667Y-15439476D01*
X13090714Y-15449000D01*
X13100238Y-15458524D01*
X13109762Y-15477571D01*
X13119286Y-15515667D01*
X13119286Y-15563286D01*
X13109762Y-15601381D01*
X13100238Y-15620428D01*
X13090714Y-15629952D01*
X13071667Y-15639476D01*
X13052619Y-15639476D01*
X13033571Y-15629952D01*
X13024048Y-15620428D01*
X13014524Y-15601381D01*
X13005000Y-15563286D01*
X13005000Y-15515667D01*
X13014524Y-15477571D01*
X13024048Y-15458524D01*
X13033571Y-15449000D01*
X13052619Y-15439476D01*
X13195476Y-15439476D02*
X13195476Y-15477571D01*
X13271667Y-15439476D02*
X13271667Y-15477571D01*
X13566905Y-15715667D02*
X13557381Y-15706143D01*
X13538333Y-15677571D01*
X13528809Y-15658524D01*
X13519286Y-15629952D01*
X13509762Y-15582333D01*
X13509762Y-15544238D01*
X13519286Y-15496619D01*
X13528809Y-15468048D01*
X13538333Y-15449000D01*
X13557381Y-15420428D01*
X13566905Y-15410905D01*
X13624048Y-15439476D02*
X13747857Y-15439476D01*
X13681190Y-15515667D01*
X13709762Y-15515667D01*
X13728809Y-15525190D01*
X13738333Y-15534714D01*
X13747857Y-15553762D01*
X13747857Y-15601381D01*
X13738333Y-15620428D01*
X13728809Y-15629952D01*
X13709762Y-15639476D01*
X13652619Y-15639476D01*
X13633571Y-15629952D01*
X13624048Y-15620428D01*
X13985952Y-15639476D02*
X13985952Y-15439476D01*
X14071667Y-15639476D02*
X14071667Y-15534714D01*
X14062143Y-15515667D01*
X14043095Y-15506143D01*
X14014524Y-15506143D01*
X13995476Y-15515667D01*
X13985952Y-15525190D01*
X14195476Y-15639476D02*
X14176428Y-15629952D01*
X14166905Y-15620428D01*
X14157381Y-15601381D01*
X14157381Y-15544238D01*
X14166905Y-15525190D01*
X14176428Y-15515667D01*
X14195476Y-15506143D01*
X14224048Y-15506143D01*
X14243095Y-15515667D01*
X14252619Y-15525190D01*
X14262143Y-15544238D01*
X14262143Y-15601381D01*
X14252619Y-15620428D01*
X14243095Y-15629952D01*
X14224048Y-15639476D01*
X14195476Y-15639476D01*
X14376428Y-15639476D02*
X14357381Y-15629952D01*
X14347857Y-15610905D01*
X14347857Y-15439476D01*
X14528809Y-15629952D02*
X14509762Y-15639476D01*
X14471667Y-15639476D01*
X14452619Y-15629952D01*
X14443095Y-15610905D01*
X14443095Y-15534714D01*
X14452619Y-15515667D01*
X14471667Y-15506143D01*
X14509762Y-15506143D01*
X14528809Y-15515667D01*
X14538333Y-15534714D01*
X14538333Y-15553762D01*
X14443095Y-15572809D01*
X14614524Y-15629952D02*
X14633571Y-15639476D01*
X14671667Y-15639476D01*
X14690714Y-15629952D01*
X14700238Y-15610905D01*
X14700238Y-15601381D01*
X14690714Y-15582333D01*
X14671667Y-15572809D01*
X14643095Y-15572809D01*
X14624048Y-15563286D01*
X14614524Y-15544238D01*
X14614524Y-15534714D01*
X14624048Y-15515667D01*
X14643095Y-15506143D01*
X14671667Y-15506143D01*
X14690714Y-15515667D01*
X14766905Y-15715667D02*
X14776428Y-15706143D01*
X14795476Y-15677571D01*
X14805000Y-15658524D01*
X14814524Y-15629952D01*
X14824048Y-15582333D01*
X14824048Y-15544238D01*
X14814524Y-15496619D01*
X14805000Y-15468048D01*
X14795476Y-15449000D01*
X14776428Y-15420428D01*
X14766905Y-15410905D01*
M02*
