M48
; DRILL file {KiCad (6.0.9)} date Thu Dec  8 19:58:17 2022
; FORMAT={-:-/ absolute / inch / decimal}
; #@! TF.CreationDate,2022-12-08T19:58:17+01:00
; #@! TF.GenerationSoftware,Kicad,Pcbnew,(6.0.9)
; #@! TF.FileFunction,Plated,1,6,PTH
FMAT,2
INCH
; #@! TA.AperFunction,Plated,PTH,ViaDrill
T1C0.0157
; #@! TA.AperFunction,Plated,PTH,ComponentDrill
T2C0.0157
; #@! TA.AperFunction,Plated,PTH,ComponentDrill
T3C0.0197
; #@! TA.AperFunction,Plated,PTH,ComponentDrill
T4C0.0236
; #@! TA.AperFunction,Plated,PTH,ComponentDrill
T5C0.0256
; #@! TA.AperFunction,Plated,PTH,ComponentDrill
T6C0.0295
; #@! TA.AperFunction,Plated,PTH,ComponentDrill
T7C0.0866
; #@! TA.AperFunction,Plated,PTH,ComponentDrill
T8C0.1260
%
G90
G05
T1
X3.9961Y-5.0787
X4.0354Y-5.0787
X4.0748Y-4.3701
X4.0748Y-4.4094
X4.0748Y-4.4488
X4.0748Y-4.4882
X4.0748Y-4.5276
X4.0748Y-4.5669
X4.0748Y-4.6063
X4.0748Y-4.6457
X4.0748Y-4.685
X4.0748Y-4.7244
X4.0748Y-4.7638
X4.0748Y-4.8031
X4.0748Y-4.8425
X4.0748Y-4.8819
X4.0748Y-4.9213
X4.0748Y-4.9606
X4.0748Y-5.0
X4.0748Y-5.0394
X4.0748Y-5.0787
X4.1043Y-4.0945
X4.1437Y-3.9173
X4.1437Y-3.9567
X4.1437Y-4.3701
X4.1437Y-4.4094
X4.1437Y-4.4488
X4.1437Y-4.4882
X4.1437Y-4.5276
X4.1437Y-4.5669
X4.1437Y-4.6063
X4.1437Y-4.6457
X4.1437Y-4.685
X4.1437Y-4.7244
X4.1437Y-4.7638
X4.1437Y-4.8031
X4.1437Y-4.8425
X4.1437Y-4.8819
X4.1437Y-4.9213
X4.1437Y-4.9606
X4.1437Y-5.0
X4.1437Y-5.0394
X4.1437Y-5.0787
X4.1831Y-3.9173
X4.1831Y-5.0787
X4.2323Y-3.9173
X4.2323Y-5.0787
X4.4193Y-3.3858
X4.4193Y-3.4843
X4.4587Y-3.3858
X4.4587Y-3.4843
X4.4783Y-4.311
X4.498Y-4.065
X4.5044Y-4.596
X4.5571Y-4.5571
X4.5571Y-4.6358
X4.5965Y-4.5571
X4.5965Y-4.6358
X4.5965Y-4.8228
X4.5965Y-5.0591
X4.5965Y-5.0984
X4.6358Y-4.5571
X4.6358Y-4.6358
X4.6358Y-4.8228
X4.6358Y-5.0591
X4.6358Y-5.0984
X4.6752Y-3.937
X4.6752Y-3.9764
X4.6752Y-4.0157
X4.6752Y-4.0551
X4.6752Y-4.5571
X4.6752Y-4.6358
X4.6752Y-4.8228
X4.6752Y-5.0591
X4.6752Y-5.0984
X4.6969Y-4.4134
X4.7146Y-3.5787
X4.7146Y-3.9764
X4.7146Y-4.5571
X4.7146Y-4.6358
X4.7146Y-4.8228
X4.7146Y-5.0591
X4.7146Y-5.0984
X4.7165Y-4.3622
X4.7451Y-4.3016
X4.7539Y-4.5571
X4.7539Y-4.8228
X4.7539Y-5.0591
X4.7539Y-5.0984
X4.7736Y-4.3701
X4.7933Y-4.4783
X4.7933Y-4.5177
X4.7933Y-4.5571
X4.7933Y-4.6063
X4.7933Y-4.8228
X4.7933Y-4.8622
X4.7933Y-4.9016
X4.7933Y-4.9409
X4.7933Y-4.9803
X4.7933Y-5.0197
X4.7933Y-5.0591
X4.7933Y-5.0984
X4.8091Y-3.6102
X4.8228Y-3.6791
X4.8327Y-4.5571
X4.8327Y-4.8228
X4.8327Y-5.0591
X4.8327Y-5.0984
X4.872Y-4.5571
X4.872Y-4.6358
X4.872Y-4.8228
X4.872Y-5.0591
X4.872Y-5.0984
X4.8917Y-4.311
X4.9114Y-4.4094
X4.9114Y-4.5571
X4.9114Y-4.6358
X4.9114Y-4.8228
X4.9114Y-5.0591
X4.9114Y-5.0984
X4.9508Y-4.5571
X4.9508Y-4.6358
X4.9508Y-4.8228
X4.9508Y-5.0591
X4.9508Y-5.0984
X4.9902Y-4.5571
X4.9902Y-4.6358
X4.9902Y-4.8228
X4.9902Y-5.0591
X4.9902Y-5.0984
X5.0295Y-4.5571
X5.0295Y-4.6358
X5.0295Y-4.8228
X5.0295Y-4.8622
X5.0295Y-4.9016
X5.0295Y-4.9409
X5.0295Y-4.9803
X5.0295Y-5.0197
X5.0295Y-5.0591
X5.0295Y-5.0984
X5.128Y-4.6555
X5.1476Y-5.0984
X5.1575Y-4.7441
X5.187Y-5.0591
X5.187Y-5.0984
X5.1949Y-4.5315
X5.1969Y-4.7441
X5.2264Y-5.0591
X5.2264Y-5.0984
X5.2362Y-4.7441
X5.2657Y-5.0591
X5.2657Y-5.0984
X5.2756Y-4.7441
X5.2953Y-4.7047
X5.3051Y-4.9016
X5.3051Y-4.9409
X5.3051Y-4.9803
X5.3051Y-5.0197
X5.3051Y-5.0591
X5.3051Y-5.0984
X5.315Y-4.7441
X5.3248Y-4.4193
X5.3445Y-5.0591
X5.3445Y-5.0984
X5.3602Y-3.4921
X5.3839Y-5.0591
X5.3839Y-5.0984
X5.3976Y-3.5591
X5.4035Y-4.7047
X5.4035Y-4.7441
X5.4232Y-5.0591
X5.4232Y-5.0984
X5.4429Y-4.7047
X5.4429Y-4.7441
X5.4469Y-3.8406
X5.4626Y-3.9921
X5.4626Y-5.0591
X5.4626Y-5.0984
X5.4744Y-4.6122
X5.4823Y-4.7441
X5.502Y-5.0591
X5.502Y-5.0984
X5.5217Y-4.7441
X5.5392Y-4.5632
X5.5394Y-3.5217
X5.5413Y-5.0591
X5.5413Y-5.0984
X5.5433Y-3.7283
X5.5512Y-4.4429
X5.5591Y-4.4823
X5.561Y-4.8622
X5.561Y-4.9016
X5.561Y-4.9409
X5.561Y-4.9803
X5.561Y-5.0197
X5.5807Y-5.0591
X5.5807Y-5.0984
X5.6152Y-3.9085
X5.6161Y-3.9469
X5.6201Y-5.0591
X5.6201Y-5.0984
X5.6457Y-4.6575
X5.6496Y-4.7441
X5.6594Y-5.0591
X5.6594Y-5.0984
X5.685Y-4.6181
X5.689Y-4.7441
X5.6988Y-5.0591
X5.6988Y-5.0984
X5.7185Y-4.0197
X5.7283Y-4.7441
X5.7382Y-5.0591
X5.7382Y-5.0984
X5.7437Y-4.5132
X5.7441Y-4.563
X5.7677Y-4.7441
X5.7776Y-5.0591
X5.7776Y-5.0984
X5.7894Y-3.9134
X5.8035Y-3.2602
X5.8071Y-4.7441
X5.8169Y-4.7835
X5.8169Y-4.8622
X5.8169Y-4.9016
X5.8169Y-4.9409
X5.8169Y-4.9803
X5.8169Y-5.0197
X5.8169Y-5.0591
X5.8169Y-5.0984
X5.829Y-3.6166
X5.8307Y-3.9293
X5.8307Y-4.6614
X5.8327Y-3.7067
X5.8346Y-3.3307
X5.8346Y-3.6555
X5.8563Y-5.0591
X5.8563Y-5.0984
X5.8957Y-4.7441
X5.8957Y-5.0591
X5.8957Y-5.0984
X5.935Y-4.7441
X5.935Y-5.0591
X5.935Y-5.0984
X5.9469Y-3.8917
X5.9744Y-4.7441
X5.9744Y-5.0591
X5.9744Y-5.0984
X5.9744Y-4.5315
X6.0059Y-3.7598
X6.0138Y-4.7441
X6.0138Y-5.0591
X6.0138Y-5.0984
X6.0295Y-3.9528
X6.0531Y-4.7441
X6.0531Y-4.7835
X6.063Y-4.9409
X6.063Y-4.9803
X6.063Y-5.0197
X6.063Y-5.0591
X6.063Y-5.0984
X6.0866Y-4.6516
X6.0925Y-4.7047
X6.0925Y-4.7441
X6.0965Y-3.2224
X6.1024Y-3.2913
X6.1024Y-5.0197
X6.1024Y-5.0591
X6.1024Y-5.0984
X6.122Y-3.0
X6.122Y-4.0197
X6.1319Y-4.7047
X6.1319Y-4.7441
X6.1417Y-5.0591
X6.1417Y-5.0984
X6.1514Y-3.7381
X6.1713Y-4.7047
X6.1713Y-4.7441
X6.1811Y-5.0591
X6.1811Y-5.0984
X6.1969Y-4.4114
X6.2106Y-4.7047
X6.2205Y-5.0591
X6.2205Y-5.0984
X6.2224Y-4.1988
X6.2343Y-3.8957
X6.2362Y-3.6654
X6.25Y-4.7047
X6.25Y-4.7441
X6.2559Y-3.5059
X6.2559Y-4.0866
X6.2598Y-5.0591
X6.2598Y-5.0984
X6.2618Y-3.7244
X6.2835Y-3.6634
X6.2992Y-5.0591
X6.2992Y-5.0984
X6.3091Y-4.5965
X6.3248Y-3.8406
X6.3386Y-4.9803
X6.3386Y-5.0197
X6.3386Y-5.0591
X6.3386Y-5.0984
X6.3591Y-3.6458
X6.3622Y-4.0138
X6.3681Y-4.5571
X6.3681Y-4.6358
X6.374Y-3.5098
X6.378Y-4.8228
X6.378Y-5.0591
X6.378Y-5.0984
X6.4075Y-4.5571
X6.4075Y-4.6358
X6.4173Y-4.8228
X6.4173Y-5.0591
X6.4173Y-5.0984
X6.4469Y-3.7598
X6.4469Y-4.5571
X6.4469Y-4.6358
X6.4567Y-4.8228
X6.4567Y-5.0591
X6.4567Y-5.0984
X6.4606Y-4.0827
X6.4764Y-3.1122
X6.4862Y-4.5571
X6.4862Y-4.6358
X6.4961Y-4.8228
X6.4961Y-5.0591
X6.4961Y-5.0984
X6.511Y-3.9232
X6.5256Y-4.5571
X6.5256Y-4.6358
X6.5354Y-4.8228
X6.5354Y-5.0591
X6.5354Y-5.0984
X6.5479Y-3.8547
X6.565Y-4.0197
X6.565Y-4.5571
X6.565Y-4.6358
X6.5748Y-4.8228
X6.5748Y-5.0591
X6.5748Y-5.0984
X6.5866Y-3.1535
X6.5945Y-4.8622
X6.5945Y-4.9016
X6.5945Y-4.9409
X6.5945Y-4.9803
X6.5945Y-5.0197
X6.6116Y-3.8544
X6.6142Y-3.1024
X6.6142Y-4.4783
X6.6142Y-4.5177
X6.6142Y-4.5571
X6.6142Y-4.6161
X6.6142Y-4.8228
X6.6142Y-5.0591
X6.6142Y-5.0984
X6.6378Y-4.0197
X6.6484Y-3.4815
X6.6496Y-3.563
X6.6535Y-3.6024
X6.6535Y-4.5571
X6.6535Y-4.8228
X6.6535Y-5.0591
X6.6535Y-5.0984
X6.6537Y-3.5235
X6.6615Y-3.401
X6.6665Y-3.4466
X6.689Y-3.5787
X6.6929Y-4.5571
X6.6929Y-4.6358
X6.6929Y-4.8228
X6.6929Y-5.0591
X6.6929Y-5.0984
X6.7008Y-3.7598
X6.7087Y-3.4331
X6.7323Y-4.5571
X6.7323Y-4.6358
X6.7323Y-4.8228
X6.7323Y-5.0591
X6.7323Y-5.0984
X6.7372Y-3.7441
X6.7431Y-3.8527
X6.7717Y-4.5571
X6.7717Y-4.6358
X6.7717Y-4.8228
X6.7717Y-5.0591
X6.7717Y-5.0984
X6.7835Y-3.2717
X6.7918Y-3.468
X6.811Y-4.5571
X6.811Y-4.6358
X6.811Y-4.8228
X6.811Y-5.0591
X6.811Y-5.0984
X6.815Y-4.0492
X6.8189Y-3.5551
X6.8346Y-3.4685
X6.8406Y-3.7539
X6.8474Y-3.5853
X6.8504Y-4.5571
X6.8504Y-4.6358
X6.8504Y-5.0591
X6.8504Y-5.0984
X6.8622Y-3.3898
X6.8622Y-3.4331
X6.8701Y-4.8622
X6.8701Y-4.9016
X6.8701Y-4.9409
X6.8701Y-4.9803
X6.8701Y-5.0197
X6.8898Y-5.0591
X6.8898Y-5.0984
X6.9213Y-3.2913
X6.9213Y-3.9449
X6.9291Y-5.0591
X6.9291Y-5.0984
X6.9547Y-3.7953
X6.9685Y-4.7441
X6.9685Y-5.0591
X6.9685Y-5.0984
X6.9956Y-3.4617
X6.996Y-3.4224
X7.0079Y-4.7441
X7.0079Y-5.0591
X7.0079Y-5.0984
X7.0157Y-4.5335
X7.0315Y-3.5374
X7.0472Y-4.7441
X7.0472Y-5.0591
X7.0472Y-5.0984
X7.0807Y-3.9331
X7.0866Y-4.7441
X7.0866Y-4.8622
X7.0866Y-4.9016
X7.0866Y-4.9409
X7.0866Y-4.9803
X7.0866Y-5.0197
X7.0866Y-5.0591
X7.0866Y-5.0984
X7.1043Y-3.3976
X7.1063Y-4.7736
X7.1063Y-4.813
X7.1102Y-3.5374
X7.122Y-3.7047
X7.126Y-4.7441
X7.126Y-4.8622
X7.126Y-4.9016
X7.126Y-4.9409
X7.126Y-4.9803
X7.126Y-5.0197
X7.126Y-5.0591
X7.126Y-5.0984
X7.1496Y-4.0512
X7.151Y-4.588
X7.1575Y-3.8701
X7.1654Y-5.0591
X7.1654Y-5.0984
X7.1675Y-3.3934
X7.1754Y-3.6657
X7.189Y-3.7343
X7.2047Y-4.7146
X7.2047Y-5.0591
X7.2047Y-5.0984
X7.2244Y-4.685
X7.2244Y-4.7441
X7.2323Y-4.0827
X7.2441Y-4.7146
X7.2441Y-5.0591
X7.2441Y-5.0984
X7.2442Y-3.6348
X7.2539Y-3.9567
X7.2638Y-4.685
X7.2638Y-4.7441
X7.2835Y-5.0591
X7.2835Y-5.0984
X7.3031Y-4.7441
X7.3228Y-4.5965
X7.3425Y-4.7441
X7.3524Y-3.5955
X7.3622Y-4.7835
X7.3622Y-4.8228
X7.3622Y-4.8583
X7.3622Y-4.8976
X7.3622Y-4.937
X7.3622Y-4.9764
X7.3622Y-5.0157
X7.3622Y-5.0551
X7.3622Y-5.0945
X7.3642Y-3.9193
X7.378Y-3.2598
X7.3787Y-4.7448
X7.3986Y-3.5669
X7.4016Y-5.0551
X7.4016Y-5.0945
X7.4409Y-5.0551
X7.4409Y-5.0945
X7.4469Y-4.0886
X7.4508Y-4.5571
X7.4508Y-4.6358
X7.4803Y-5.0551
X7.4803Y-5.0945
X7.4902Y-4.5571
X7.4902Y-4.6358
X7.4961Y-4.002
X7.5177Y-3.8228
X7.5187Y-3.7835
X7.5197Y-5.0551
X7.5197Y-5.0945
X7.5295Y-4.5571
X7.5295Y-4.6358
X7.5591Y-5.0551
X7.5591Y-5.0945
X7.5689Y-4.5571
X7.5689Y-4.6358
X7.5984Y-5.0551
X7.5984Y-5.0945
X7.6083Y-4.5571
X7.6083Y-4.6358
X7.6142Y-4.8583
X7.6142Y-4.8976
X7.6142Y-4.937
X7.6142Y-4.9764
X7.6142Y-5.0157
X7.622Y-4.2717
X7.6378Y-5.0551
X7.6378Y-5.0945
X7.6476Y-4.5571
X7.6578Y-3.4028
X7.6592Y-3.362
X7.6772Y-5.0551
X7.6772Y-5.0945
X7.687Y-4.4783
X7.687Y-4.5177
X7.687Y-4.5571
X7.7165Y-5.0551
X7.7165Y-5.0945
X7.7264Y-4.5571
X7.7559Y-5.0551
X7.7559Y-5.0945
X7.7657Y-4.5571
X7.7657Y-4.6358
X7.7953Y-5.0551
X7.7953Y-5.0945
X7.8051Y-4.5571
X7.8051Y-4.6358
X7.8346Y-5.0551
X7.8346Y-5.0945
X7.8445Y-4.5571
X7.8445Y-4.6358
X7.8583Y-4.8583
X7.8583Y-4.9764
X7.8583Y-5.0157
X7.874Y-4.4173
X7.874Y-5.0551
X7.874Y-5.0945
X7.8839Y-4.5571
X7.8839Y-4.6358
X7.9035Y-4.2323
X7.9232Y-4.5571
X7.9232Y-4.6358
X7.9469Y-4.2362
X7.9499Y-4.3819
X8.0703Y-4.3262
X8.1575Y-4.5
T2
X3.9902Y-4.2323
X4.0092Y-4.1863
X4.0092Y-4.2782
X4.0098Y-3.0807
X4.0289Y-3.0348
X4.0289Y-3.1266
X4.0551Y-4.1673
X4.0551Y-4.2972
X4.0748Y-3.0157
X4.0748Y-3.1457
X4.1011Y-4.1863
X4.1011Y-4.2782
X4.1201Y-4.2323
X4.1207Y-3.0348
X4.1207Y-3.1266
X4.1398Y-3.0807
X5.1319Y-4.2224
X5.1509Y-4.1765
X5.1509Y-4.2684
X5.1969Y-4.1575
X5.1969Y-4.2874
X5.2428Y-4.1765
X5.2428Y-4.2684
X5.2618Y-4.2224
X5.9094Y-4.2224
X5.9285Y-4.1765
X5.9285Y-4.2684
X5.9744Y-4.1575
X5.9744Y-4.2874
X6.0203Y-4.1765
X6.0203Y-4.2684
X6.0394Y-4.2224
X6.9528Y-4.2224
X6.9718Y-4.1765
X6.9718Y-4.2684
X7.0177Y-4.1575
X7.0177Y-4.2874
X7.0637Y-4.1765
X7.0637Y-4.2684
X7.0827Y-4.2224
T3
X4.315Y-4.9213
X4.3426Y-4.8544
X4.3426Y-4.9881
X4.4094Y-4.8268
X4.4094Y-5.0157
X4.4763Y-4.8544
X4.4763Y-4.9881
X4.5039Y-4.9213
X6.1122Y-4.8906
X6.1399Y-4.8237
X6.1399Y-4.9574
X6.2067Y-4.7961
X6.2067Y-4.985
X6.2735Y-4.8237
X6.2735Y-4.9574
X6.3012Y-4.8906
X7.9094Y-4.9213
X7.9371Y-4.8544
X7.9371Y-4.9881
X8.0039Y-4.8268
X8.0039Y-5.0157
X8.0708Y-4.8544
X8.0708Y-4.9881
X8.0984Y-4.9213
T5
X6.9575Y-3.0266
X6.9575Y-3.0766
X7.0075Y-3.0266
X7.0075Y-3.0766
X7.0575Y-3.0266
X7.0575Y-3.0766
X7.1075Y-3.0266
X7.1075Y-3.0766
X7.1575Y-3.0266
X7.1575Y-3.0766
T6
X4.3209Y-3.0591
X4.3996Y-3.0591
X4.4783Y-3.0591
X4.5571Y-3.0591
X4.6358Y-3.0591
X4.8622Y-3.061
X4.9409Y-3.061
X5.0197Y-3.061
X5.0984Y-3.061
X5.3051Y-3.0591
X5.3839Y-3.0591
X5.4626Y-3.0591
X5.5413Y-3.0591
X5.7579Y-3.0591
X5.8366Y-3.0591
X5.9154Y-3.0591
X5.9941Y-3.0591
X6.3386Y-4.2402
X6.4173Y-4.2402
X6.4961Y-4.2402
X6.5748Y-4.2402
X6.6535Y-4.2402
X7.2539Y-4.2402
X7.3327Y-4.2402
X7.3425Y-3.0591
X7.4114Y-4.2402
X7.4213Y-3.0591
X7.4902Y-4.2402
T7
X4.0551Y-4.2323
X4.0748Y-3.0807
X5.1969Y-4.2224
X5.9744Y-4.2224
X7.0177Y-4.2224
T8
X4.4094Y-4.9213
X6.2067Y-4.8906
X8.0039Y-4.9213
T4
G00X7.8031Y-3.2215
M15
G01X7.8307Y-3.2215
M16
G05
G00X7.8031Y-3.5502
M15
G01X7.8307Y-3.5502
M16
G05
T5
G00X7.6949Y-3.2982
M15
G01X7.7028Y-3.2982
M16
G05
G00X7.6949Y-3.4734
M15
G01X7.7028Y-3.4734
M16
G05
T0
M30
