%TF.GenerationSoftware,KiCad,Pcbnew,(6.0.9)*%
%TF.CreationDate,2022-12-08T19:58:19+01:00*%
%TF.ProjectId,battery-case-controller,62617474-6572-4792-9d63-6173652d636f,1*%
%TF.SameCoordinates,Original*%
%TF.FileFunction,Drillmap*%
%TF.FilePolarity,Positive*%
%FSLAX45Y45*%
G04 Gerber Fmt 4.5, Leading zero omitted, Abs format (unit mm)*
G04 Created by KiCad (PCBNEW (6.0.9)) date 2022-12-08 19:58:19*
%MOMM*%
%LPD*%
G01*
G04 APERTURE LIST*
%ADD10C,0.100000*%
%ADD11C,0.200000*%
G04 APERTURE END LIST*
D10*
X10000000Y-13000000D02*
X21000000Y-13000000D01*
X10000000Y-7500000D02*
X10000000Y-13000000D01*
X20000000Y-8225000D02*
X20000000Y-7500000D01*
X20000000Y-7500000D02*
X10000000Y-7500000D01*
X21000000Y-13000000D02*
X21000000Y-10500000D01*
X20000000Y-10500000D02*
X21000000Y-10500000D01*
X20000000Y-10500000D02*
X20000000Y-8975000D01*
D11*
X10252619Y-13315476D02*
X10252619Y-13115476D01*
X10300238Y-13115476D01*
X10328810Y-13125000D01*
X10347857Y-13144048D01*
X10357381Y-13163095D01*
X10366905Y-13201190D01*
X10366905Y-13229762D01*
X10357381Y-13267857D01*
X10347857Y-13286905D01*
X10328810Y-13305952D01*
X10300238Y-13315476D01*
X10252619Y-13315476D01*
X10452619Y-13315476D02*
X10452619Y-13182143D01*
X10452619Y-13220238D02*
X10462143Y-13201190D01*
X10471667Y-13191667D01*
X10490714Y-13182143D01*
X10509762Y-13182143D01*
X10576429Y-13315476D02*
X10576429Y-13182143D01*
X10576429Y-13115476D02*
X10566905Y-13125000D01*
X10576429Y-13134524D01*
X10585952Y-13125000D01*
X10576429Y-13115476D01*
X10576429Y-13134524D01*
X10700238Y-13315476D02*
X10681190Y-13305952D01*
X10671667Y-13286905D01*
X10671667Y-13115476D01*
X10805000Y-13315476D02*
X10785952Y-13305952D01*
X10776429Y-13286905D01*
X10776429Y-13115476D01*
X11033571Y-13315476D02*
X11033571Y-13115476D01*
X11100238Y-13258333D01*
X11166905Y-13115476D01*
X11166905Y-13315476D01*
X11347857Y-13315476D02*
X11347857Y-13210714D01*
X11338333Y-13191667D01*
X11319286Y-13182143D01*
X11281190Y-13182143D01*
X11262143Y-13191667D01*
X11347857Y-13305952D02*
X11328809Y-13315476D01*
X11281190Y-13315476D01*
X11262143Y-13305952D01*
X11252619Y-13286905D01*
X11252619Y-13267857D01*
X11262143Y-13248809D01*
X11281190Y-13239286D01*
X11328809Y-13239286D01*
X11347857Y-13229762D01*
X11443095Y-13182143D02*
X11443095Y-13382143D01*
X11443095Y-13191667D02*
X11462143Y-13182143D01*
X11500238Y-13182143D01*
X11519286Y-13191667D01*
X11528809Y-13201190D01*
X11538333Y-13220238D01*
X11538333Y-13277381D01*
X11528809Y-13296428D01*
X11519286Y-13305952D01*
X11500238Y-13315476D01*
X11462143Y-13315476D01*
X11443095Y-13305952D01*
X11624048Y-13296428D02*
X11633571Y-13305952D01*
X11624048Y-13315476D01*
X11614524Y-13305952D01*
X11624048Y-13296428D01*
X11624048Y-13315476D01*
X11624048Y-13191667D02*
X11633571Y-13201190D01*
X11624048Y-13210714D01*
X11614524Y-13201190D01*
X11624048Y-13191667D01*
X11624048Y-13210714D01*
M02*
