%TF.GenerationSoftware,KiCad,Pcbnew,(6.0.9)*%
%TF.CreationDate,2022-12-08T19:58:11+01:00*%
%TF.ProjectId,battery-case-controller,62617474-6572-4792-9d63-6173652d636f,1*%
%TF.SameCoordinates,Original*%
%TF.FileFunction,Paste,Top*%
%TF.FilePolarity,Positive*%
%FSLAX46Y46*%
G04 Gerber Fmt 4.6, Leading zero omitted, Abs format (unit mm)*
G04 Created by KiCad (PCBNEW (6.0.9)) date 2022-12-08 19:58:11*
%MOMM*%
%LPD*%
G01*
G04 APERTURE LIST*
G04 Aperture macros list*
%AMRoundRect*
0 Rectangle with rounded corners*
0 $1 Rounding radius*
0 $2 $3 $4 $5 $6 $7 $8 $9 X,Y pos of 4 corners*
0 Add a 4 corners polygon primitive as box body*
4,1,4,$2,$3,$4,$5,$6,$7,$8,$9,$2,$3,0*
0 Add four circle primitives for the rounded corners*
1,1,$1+$1,$2,$3*
1,1,$1+$1,$4,$5*
1,1,$1+$1,$6,$7*
1,1,$1+$1,$8,$9*
0 Add four rect primitives between the rounded corners*
20,1,$1+$1,$2,$3,$4,$5,0*
20,1,$1+$1,$4,$5,$6,$7,0*
20,1,$1+$1,$6,$7,$8,$9,0*
20,1,$1+$1,$8,$9,$2,$3,0*%
G04 Aperture macros list end*
%ADD10RoundRect,0.225000X-0.225000X-0.250000X0.225000X-0.250000X0.225000X0.250000X-0.225000X0.250000X0*%
%ADD11RoundRect,0.200000X0.275000X-0.200000X0.275000X0.200000X-0.275000X0.200000X-0.275000X-0.200000X0*%
%ADD12RoundRect,0.225000X0.225000X0.250000X-0.225000X0.250000X-0.225000X-0.250000X0.225000X-0.250000X0*%
%ADD13RoundRect,0.200000X-0.275000X0.200000X-0.275000X-0.200000X0.275000X-0.200000X0.275000X0.200000X0*%
%ADD14RoundRect,0.225000X-0.250000X0.225000X-0.250000X-0.225000X0.250000X-0.225000X0.250000X0.225000X0*%
%ADD15RoundRect,0.250000X-0.475000X0.250000X-0.475000X-0.250000X0.475000X-0.250000X0.475000X0.250000X0*%
%ADD16R,2.000000X2.400000*%
%ADD17RoundRect,0.200000X-0.200000X-0.275000X0.200000X-0.275000X0.200000X0.275000X-0.200000X0.275000X0*%
%ADD18RoundRect,0.150000X0.150000X-0.587500X0.150000X0.587500X-0.150000X0.587500X-0.150000X-0.587500X0*%
%ADD19RoundRect,0.100000X0.637500X0.100000X-0.637500X0.100000X-0.637500X-0.100000X0.637500X-0.100000X0*%
%ADD20R,0.500000X0.750000*%
%ADD21R,1.500000X1.500000*%
%ADD22R,0.400000X0.750000*%
%ADD23RoundRect,0.250000X-0.250000X-0.475000X0.250000X-0.475000X0.250000X0.475000X-0.250000X0.475000X0*%
%ADD24RoundRect,0.250000X-2.450000X0.650000X-2.450000X-0.650000X2.450000X-0.650000X2.450000X0.650000X0*%
%ADD25RoundRect,0.250000X-1.425000X0.362500X-1.425000X-0.362500X1.425000X-0.362500X1.425000X0.362500X0*%
%ADD26RoundRect,0.250000X-0.650000X-2.450000X0.650000X-2.450000X0.650000X2.450000X-0.650000X2.450000X0*%
%ADD27RoundRect,0.150000X-0.825000X-0.150000X0.825000X-0.150000X0.825000X0.150000X-0.825000X0.150000X0*%
%ADD28R,1.200000X3.700000*%
%ADD29RoundRect,0.250000X0.250000X0.475000X-0.250000X0.475000X-0.250000X-0.475000X0.250000X-0.475000X0*%
%ADD30RoundRect,0.225000X0.250000X-0.225000X0.250000X0.225000X-0.250000X0.225000X-0.250000X-0.225000X0*%
%ADD31R,2.500000X1.800000*%
%ADD32RoundRect,0.218750X-0.256250X0.218750X-0.256250X-0.218750X0.256250X-0.218750X0.256250X0.218750X0*%
%ADD33R,1.800000X2.500000*%
%ADD34RoundRect,0.100000X-0.637500X-0.100000X0.637500X-0.100000X0.637500X0.100000X-0.637500X0.100000X0*%
%ADD35RoundRect,0.200000X0.200000X0.275000X-0.200000X0.275000X-0.200000X-0.275000X0.200000X-0.275000X0*%
%ADD36R,7.500000X1.800000*%
%ADD37R,0.850000X0.300000*%
%ADD38R,1.350000X0.400000*%
%ADD39R,1.900000X2.900000*%
%ADD40RoundRect,0.150000X-0.512500X-0.150000X0.512500X-0.150000X0.512500X0.150000X-0.512500X0.150000X0*%
%ADD41RoundRect,0.150000X0.150000X-0.825000X0.150000X0.825000X-0.150000X0.825000X-0.150000X-0.825000X0*%
%ADD42RoundRect,0.100000X-0.100000X0.712500X-0.100000X-0.712500X0.100000X-0.712500X0.100000X0.712500X0*%
%ADD43RoundRect,0.250000X0.362500X1.425000X-0.362500X1.425000X-0.362500X-1.425000X0.362500X-1.425000X0*%
%ADD44RoundRect,0.075000X-0.662500X-0.075000X0.662500X-0.075000X0.662500X0.075000X-0.662500X0.075000X0*%
%ADD45RoundRect,0.075000X-0.075000X-0.662500X0.075000X-0.662500X0.075000X0.662500X-0.075000X0.662500X0*%
G04 APERTURE END LIST*
D10*
%TO.C,C65*%
X181425000Y-90500000D03*
X182975000Y-90500000D03*
%TD*%
D11*
%TO.C,R35*%
X142500000Y-119325000D03*
X142500000Y-117675000D03*
%TD*%
D10*
%TO.C,C82*%
X181425000Y-85500000D03*
X182975000Y-85500000D03*
%TD*%
D12*
%TO.C,C72*%
X125575000Y-88000000D03*
X124025000Y-88000000D03*
%TD*%
D10*
%TO.C,C96*%
X167425000Y-81360000D03*
X168975000Y-81360000D03*
%TD*%
D11*
%TO.C,R48*%
X140000000Y-119325000D03*
X140000000Y-117675000D03*
%TD*%
D13*
%TO.C,R89*%
X171500000Y-76175000D03*
X171500000Y-77825000D03*
%TD*%
D14*
%TO.C,C89*%
X172100000Y-97125000D03*
X172100000Y-98675000D03*
%TD*%
D15*
%TO.C,C94*%
X175800000Y-97160000D03*
X175800000Y-99060000D03*
%TD*%
D16*
%TO.C,X31*%
X161100000Y-86860000D03*
X164800000Y-86860000D03*
%TD*%
D11*
%TO.C,R44*%
X136000000Y-119325000D03*
X136000000Y-117675000D03*
%TD*%
D17*
%TO.C,R63*%
X102575000Y-95800000D03*
X104225000Y-95800000D03*
%TD*%
D18*
%TO.C,D40*%
X136800000Y-84187500D03*
X138700000Y-84187500D03*
X137750000Y-82312500D03*
%TD*%
D12*
%TO.C,C54*%
X162175000Y-95200000D03*
X160625000Y-95200000D03*
%TD*%
D11*
%TO.C,R84*%
X150250000Y-83575000D03*
X150250000Y-81925000D03*
%TD*%
D14*
%TO.C,C86*%
X166750000Y-102975000D03*
X166750000Y-104525000D03*
%TD*%
%TO.C,C59*%
X206000000Y-107975000D03*
X206000000Y-109525000D03*
%TD*%
D12*
%TO.C,C81*%
X139575000Y-94700000D03*
X138025000Y-94700000D03*
%TD*%
D19*
%TO.C,U37*%
X189662500Y-97715000D03*
X189662500Y-97065000D03*
X189662500Y-96415000D03*
X189662500Y-95765000D03*
X183937500Y-95765000D03*
X183937500Y-96415000D03*
X183937500Y-97065000D03*
X183937500Y-97715000D03*
%TD*%
D20*
%TO.C,Q40*%
X184385000Y-127255000D03*
X181845000Y-127255000D03*
X185655000Y-127255000D03*
D21*
X182900000Y-125850000D03*
X184600000Y-125850000D03*
X184600000Y-124150000D03*
X182900000Y-124150000D03*
D20*
X183115000Y-127255000D03*
D22*
X185655000Y-121450000D03*
X184385000Y-121450000D03*
X183115000Y-121450000D03*
X181845000Y-121450000D03*
%TD*%
D20*
%TO.C,Q41*%
X189615000Y-127255000D03*
D21*
X191100000Y-124150000D03*
D20*
X188345000Y-127255000D03*
D21*
X191100000Y-125850000D03*
X189400000Y-124150000D03*
X189400000Y-125850000D03*
D20*
X190885000Y-127255000D03*
X192155000Y-127255000D03*
D22*
X192155000Y-121450000D03*
X190885000Y-121450000D03*
X189615000Y-121450000D03*
X188345000Y-121450000D03*
%TD*%
D18*
%TO.C,U40*%
X135950000Y-99187500D03*
X137850000Y-99187500D03*
X136900000Y-97312500D03*
%TD*%
D10*
%TO.C,C52*%
X153925000Y-95550000D03*
X155475000Y-95550000D03*
%TD*%
D21*
%TO.C,Q35*%
X130650000Y-124150000D03*
D20*
X129595000Y-127255000D03*
X130865000Y-127255000D03*
X132135000Y-127255000D03*
D21*
X132350000Y-124150000D03*
X132350000Y-125850000D03*
X130650000Y-125850000D03*
D20*
X133405000Y-127255000D03*
D22*
X133405000Y-121450000D03*
X132135000Y-121450000D03*
X130865000Y-121450000D03*
X129595000Y-121450000D03*
%TD*%
D13*
%TO.C,R71*%
X184500000Y-102925000D03*
X184500000Y-104575000D03*
%TD*%
D23*
%TO.C,C69*%
X113050000Y-89750000D03*
X114950000Y-89750000D03*
%TD*%
D10*
%TO.C,C74*%
X143625000Y-101250000D03*
X145175000Y-101250000D03*
%TD*%
%TO.C,C97*%
X176725000Y-83500000D03*
X178275000Y-83500000D03*
%TD*%
D11*
%TO.C,R39*%
X160250000Y-119400000D03*
X160250000Y-117750000D03*
%TD*%
D13*
%TO.C,R76*%
X186250000Y-102925000D03*
X186250000Y-104575000D03*
%TD*%
D24*
%TO.C,C44*%
X118000000Y-114200000D03*
X118000000Y-119300000D03*
%TD*%
D25*
%TO.C,R53*%
X178250000Y-113537500D03*
X178250000Y-119462500D03*
%TD*%
D11*
%TO.C,R46*%
X114250000Y-119825000D03*
X114250000Y-118175000D03*
%TD*%
D13*
%TO.C,R87*%
X164500000Y-76175000D03*
X164500000Y-77825000D03*
%TD*%
D25*
%TO.C,R37*%
X151750000Y-113500000D03*
X151750000Y-119425000D03*
%TD*%
D14*
%TO.C,C98*%
X177500000Y-94025000D03*
X177500000Y-95575000D03*
%TD*%
D10*
%TO.C,C63*%
X184225000Y-99540000D03*
X185775000Y-99540000D03*
%TD*%
D13*
%TO.C,R70*%
X172000000Y-102925000D03*
X172000000Y-104575000D03*
%TD*%
%TO.C,R88*%
X168000000Y-76175000D03*
X168000000Y-77825000D03*
%TD*%
D10*
%TO.C,C79*%
X136125000Y-101250000D03*
X137675000Y-101250000D03*
%TD*%
D14*
%TO.C,C85*%
X161500000Y-102975000D03*
X161500000Y-104525000D03*
%TD*%
D13*
%TO.C,R74*%
X165000000Y-102925000D03*
X165000000Y-104575000D03*
%TD*%
D26*
%TO.C,C35*%
X101700000Y-125500000D03*
X106800000Y-125500000D03*
%TD*%
D27*
%TO.C,U34*%
X117950000Y-108250000D03*
X117950000Y-109520000D03*
X117950000Y-110790000D03*
X117950000Y-112060000D03*
X122900000Y-112060000D03*
X122900000Y-110790000D03*
X122900000Y-109520000D03*
X122900000Y-108250000D03*
%TD*%
D24*
%TO.C,C45*%
X125500000Y-114200000D03*
X125500000Y-119300000D03*
%TD*%
D14*
%TO.C,C39*%
X137000000Y-113225000D03*
X137000000Y-114775000D03*
%TD*%
D28*
%TO.C,L32*%
X127925849Y-90172304D03*
X130725849Y-90172304D03*
%TD*%
D17*
%TO.C,R33*%
X158425000Y-112000000D03*
X160075000Y-112000000D03*
%TD*%
D14*
%TO.C,C62*%
X181750000Y-95825000D03*
X181750000Y-97375000D03*
%TD*%
D29*
%TO.C,C75*%
X132000000Y-93800000D03*
X130100000Y-93800000D03*
%TD*%
D14*
%TO.C,C36*%
X148250000Y-112475000D03*
X148250000Y-114025000D03*
%TD*%
D30*
%TO.C,C78*%
X134150000Y-99025000D03*
X134150000Y-97475000D03*
%TD*%
D27*
%TO.C,U36*%
X198775000Y-107345000D03*
X198775000Y-108615000D03*
X198775000Y-109885000D03*
X198775000Y-111155000D03*
X203725000Y-111155000D03*
X203725000Y-109885000D03*
X203725000Y-108615000D03*
X203725000Y-107345000D03*
%TD*%
D31*
%TO.C,D35*%
X112250000Y-92750000D03*
X116250000Y-92750000D03*
%TD*%
D10*
%TO.C,C67*%
X102475000Y-98975000D03*
X104025000Y-98975000D03*
%TD*%
D32*
%TO.C,D36*%
X162500000Y-76212500D03*
X162500000Y-77787500D03*
%TD*%
D31*
%TO.C,D37*%
X124800000Y-85300000D03*
X128800000Y-85300000D03*
%TD*%
D33*
%TO.C,D33*%
X207250000Y-112250000D03*
X207250000Y-116250000D03*
%TD*%
D11*
%TO.C,R56*%
X185750000Y-119325000D03*
X185750000Y-117675000D03*
%TD*%
D24*
%TO.C,C56*%
X199000000Y-114200000D03*
X199000000Y-119300000D03*
%TD*%
D26*
%TO.C,C71*%
X111700000Y-98000000D03*
X116800000Y-98000000D03*
%TD*%
D15*
%TO.C,C95*%
X179500000Y-95950000D03*
X179500000Y-94050000D03*
%TD*%
D21*
%TO.C,Q31*%
X145350000Y-125850000D03*
X145350000Y-124150000D03*
X143650000Y-125850000D03*
D20*
X143865000Y-127255000D03*
D21*
X143650000Y-124150000D03*
D20*
X146405000Y-127255000D03*
X145135000Y-127255000D03*
X142595000Y-127255000D03*
D22*
X146405000Y-121450000D03*
X145135000Y-121450000D03*
X143865000Y-121450000D03*
X142595000Y-121450000D03*
%TD*%
D11*
%TO.C,R79*%
X140750000Y-83575000D03*
X140750000Y-81925000D03*
%TD*%
D20*
%TO.C,Q38*%
X125635000Y-127255000D03*
D21*
X125850000Y-125850000D03*
X124150000Y-124150000D03*
X125850000Y-124150000D03*
D20*
X123095000Y-127255000D03*
X124365000Y-127255000D03*
X126905000Y-127255000D03*
D21*
X124150000Y-125850000D03*
D22*
X126905000Y-121450000D03*
X125635000Y-121450000D03*
X124365000Y-121450000D03*
X123095000Y-121450000D03*
%TD*%
D11*
%TO.C,R38*%
X168000000Y-119825000D03*
X168000000Y-118175000D03*
%TD*%
D32*
%TO.C,D39*%
X158500000Y-76212500D03*
X158500000Y-77787500D03*
%TD*%
D17*
%TO.C,R65*%
X119822304Y-87972304D03*
X121472304Y-87972304D03*
%TD*%
D15*
%TO.C,C80*%
X123850000Y-93450000D03*
X123850000Y-95350000D03*
%TD*%
D11*
%TO.C,R36*%
X149000000Y-119325000D03*
X149000000Y-117675000D03*
%TD*%
D14*
%TO.C,C47*%
X127000000Y-108725000D03*
X127000000Y-110275000D03*
%TD*%
%TO.C,C58*%
X207750000Y-107975000D03*
X207750000Y-109525000D03*
%TD*%
D34*
%TO.C,U35*%
X149637500Y-91725000D03*
X149637500Y-92375000D03*
X149637500Y-93025000D03*
X149637500Y-93675000D03*
X155362500Y-93675000D03*
X155362500Y-93025000D03*
X155362500Y-92375000D03*
X155362500Y-91725000D03*
%TD*%
D14*
%TO.C,C64*%
X168800000Y-97125000D03*
X168800000Y-98675000D03*
%TD*%
D35*
%TO.C,FB33*%
X141975000Y-101250000D03*
X140325000Y-101250000D03*
%TD*%
D17*
%TO.C,R49*%
X157305000Y-90035000D03*
X158955000Y-90035000D03*
%TD*%
D32*
%TO.C,D43*%
X173500000Y-76212500D03*
X173500000Y-77787500D03*
%TD*%
D14*
%TO.C,C50*%
X113850000Y-110475000D03*
X113850000Y-112025000D03*
%TD*%
D21*
%TO.C,Q33*%
X171600000Y-124150000D03*
D20*
X171385000Y-127255000D03*
D21*
X171600000Y-125850000D03*
X169900000Y-125850000D03*
D20*
X168845000Y-127255000D03*
X170115000Y-127255000D03*
D21*
X169900000Y-124150000D03*
D20*
X172655000Y-127255000D03*
D22*
X172655000Y-121450000D03*
X171385000Y-121450000D03*
X170115000Y-121450000D03*
X168845000Y-121450000D03*
%TD*%
D11*
%TO.C,R80*%
X146500000Y-83575000D03*
X146500000Y-81925000D03*
%TD*%
D13*
%TO.C,R61*%
X160500000Y-76175000D03*
X160500000Y-77825000D03*
%TD*%
D35*
%TO.C,R31*%
X183025000Y-83800000D03*
X181375000Y-83800000D03*
%TD*%
D17*
%TO.C,R58*%
X181375000Y-88800000D03*
X183025000Y-88800000D03*
%TD*%
D36*
%TO.C,L31*%
X106250000Y-93050000D03*
X106250000Y-87450000D03*
%TD*%
D10*
%TO.C,C91*%
X163925000Y-84110000D03*
X165475000Y-84110000D03*
%TD*%
D35*
%TO.C,R67*%
X121447304Y-89722304D03*
X119797304Y-89722304D03*
%TD*%
D14*
%TO.C,C88*%
X163700000Y-97125000D03*
X163700000Y-98675000D03*
%TD*%
%TO.C,C38*%
X135250000Y-113225000D03*
X135250000Y-114775000D03*
%TD*%
D24*
%TO.C,C34*%
X171750000Y-114200000D03*
X171750000Y-119300000D03*
%TD*%
D35*
%TO.C,R62*%
X104075000Y-100725000D03*
X102425000Y-100725000D03*
%TD*%
D10*
%TO.C,C68*%
X105475000Y-104000000D03*
X107025000Y-104000000D03*
%TD*%
D13*
%TO.C,R86*%
X153750000Y-81925000D03*
X153750000Y-83575000D03*
%TD*%
%TO.C,R69*%
X163250000Y-102925000D03*
X163250000Y-104575000D03*
%TD*%
D11*
%TO.C,R55*%
X195250000Y-119825000D03*
X195250000Y-118175000D03*
%TD*%
D13*
%TO.C,R75*%
X170250000Y-102925000D03*
X170250000Y-104575000D03*
%TD*%
D30*
%TO.C,C40*%
X157150000Y-98975000D03*
X157150000Y-97425000D03*
%TD*%
D17*
%TO.C,R34*%
X155625000Y-118050000D03*
X157275000Y-118050000D03*
%TD*%
D11*
%TO.C,FB32*%
X139900000Y-99325000D03*
X139900000Y-97675000D03*
%TD*%
%TO.C,R72*%
X190000000Y-104575000D03*
X190000000Y-102925000D03*
%TD*%
D14*
%TO.C,C48*%
X125300000Y-108725000D03*
X125300000Y-110275000D03*
%TD*%
D24*
%TO.C,C33*%
X164250000Y-114200000D03*
X164250000Y-119300000D03*
%TD*%
D20*
%TO.C,Q42*%
X198655000Y-127255000D03*
D21*
X197600000Y-125850000D03*
X197600000Y-124150000D03*
D20*
X194845000Y-127255000D03*
X196115000Y-127255000D03*
X197385000Y-127255000D03*
D21*
X195900000Y-124150000D03*
X195900000Y-125850000D03*
D22*
X198655000Y-121450000D03*
X197385000Y-121450000D03*
X196115000Y-121450000D03*
X194845000Y-121450000D03*
%TD*%
D20*
%TO.C,Q32*%
X149095000Y-127255000D03*
X150365000Y-127255000D03*
D21*
X151850000Y-125850000D03*
D20*
X151635000Y-127255000D03*
X152905000Y-127255000D03*
D21*
X150150000Y-125850000D03*
X150150000Y-124150000D03*
X151850000Y-124150000D03*
D22*
X152905000Y-121450000D03*
X151635000Y-121450000D03*
X150365000Y-121450000D03*
X149095000Y-121450000D03*
%TD*%
D10*
%TO.C,C87*%
X181425000Y-87200000D03*
X182975000Y-87200000D03*
%TD*%
D25*
%TO.C,R45*%
X132000000Y-113537500D03*
X132000000Y-119462500D03*
%TD*%
D18*
%TO.C,U39*%
X143450000Y-99187500D03*
X145350000Y-99187500D03*
X144400000Y-97312500D03*
%TD*%
D37*
%TO.C,J42*%
X198550000Y-89500000D03*
X198550000Y-82500000D03*
D38*
X195875000Y-84700000D03*
X195875000Y-85350000D03*
X195875000Y-86000000D03*
X195875000Y-86650000D03*
X195875000Y-87300000D03*
D39*
X198550000Y-86000000D03*
%TD*%
D11*
%TO.C,R40*%
X146500000Y-119325000D03*
X146500000Y-117675000D03*
%TD*%
D20*
%TO.C,Q37*%
X119135000Y-127255000D03*
D21*
X117650000Y-124150000D03*
X117650000Y-125850000D03*
X119350000Y-125850000D03*
D20*
X117865000Y-127255000D03*
D21*
X119350000Y-124150000D03*
D20*
X116595000Y-127255000D03*
X120405000Y-127255000D03*
D22*
X120405000Y-121450000D03*
X119135000Y-121450000D03*
X117865000Y-121450000D03*
X116595000Y-121450000D03*
%TD*%
D35*
%TO.C,R64*%
X104075000Y-102475000D03*
X102425000Y-102475000D03*
%TD*%
D40*
%TO.C,U41*%
X123438349Y-89722304D03*
X123438349Y-90672304D03*
X123438349Y-91622304D03*
X125713349Y-91622304D03*
X125713349Y-90672304D03*
X125713349Y-89722304D03*
%TD*%
D20*
%TO.C,Q34*%
X166155000Y-127255000D03*
X162345000Y-127255000D03*
D21*
X165100000Y-124150000D03*
X165100000Y-125850000D03*
X163400000Y-124150000D03*
X163400000Y-125850000D03*
D20*
X164885000Y-127255000D03*
X163615000Y-127255000D03*
D22*
X166155000Y-121450000D03*
X164885000Y-121450000D03*
X163615000Y-121450000D03*
X162345000Y-121450000D03*
%TD*%
D11*
%TO.C,R85*%
X152000000Y-83575000D03*
X152000000Y-81925000D03*
%TD*%
D35*
%TO.C,R32*%
X160075000Y-113750000D03*
X158425000Y-113750000D03*
%TD*%
D14*
%TO.C,C83*%
X182700000Y-102925000D03*
X182700000Y-104475000D03*
%TD*%
D41*
%TO.C,U42*%
X136895000Y-92175000D03*
X138165000Y-92175000D03*
X139435000Y-92175000D03*
X140705000Y-92175000D03*
X140705000Y-87225000D03*
X139435000Y-87225000D03*
X138165000Y-87225000D03*
X136895000Y-87225000D03*
%TD*%
D26*
%TO.C,C46*%
X101700000Y-119250000D03*
X106800000Y-119250000D03*
%TD*%
D11*
%TO.C,R52*%
X181500000Y-119325000D03*
X181500000Y-117675000D03*
%TD*%
D35*
%TO.C,R50*%
X160575000Y-93500000D03*
X162225000Y-93500000D03*
%TD*%
D10*
%TO.C,C32*%
X181425000Y-92200000D03*
X182975000Y-92200000D03*
%TD*%
D34*
%TO.C,U33*%
X155262500Y-97275000D03*
X155262500Y-97925000D03*
X155262500Y-98575000D03*
X155262500Y-99225000D03*
X149537500Y-99225000D03*
X149537500Y-98575000D03*
X149537500Y-97925000D03*
X149537500Y-97275000D03*
%TD*%
D14*
%TO.C,C90*%
X170450000Y-97125000D03*
X170450000Y-98675000D03*
%TD*%
D42*
%TO.C,U38*%
X107725000Y-97862500D03*
X107075000Y-97862500D03*
X106425000Y-97862500D03*
X105775000Y-97862500D03*
X105775000Y-102087500D03*
X106425000Y-102087500D03*
X107075000Y-102087500D03*
X107725000Y-102087500D03*
%TD*%
D24*
%TO.C,C55*%
X191500000Y-114200000D03*
X191500000Y-119300000D03*
%TD*%
D30*
%TO.C,C73*%
X141650000Y-99275000D03*
X141650000Y-97725000D03*
%TD*%
D27*
%TO.C,U32*%
X139275000Y-112095000D03*
X139275000Y-113365000D03*
X139275000Y-114635000D03*
X139275000Y-115905000D03*
X144225000Y-115905000D03*
X144225000Y-114635000D03*
X144225000Y-113365000D03*
X144225000Y-112095000D03*
%TD*%
D31*
%TO.C,D31*%
X143750000Y-109250000D03*
X139750000Y-109250000D03*
%TD*%
D17*
%TO.C,R41*%
X157175000Y-95550000D03*
X158825000Y-95550000D03*
%TD*%
D12*
%TO.C,C42*%
X162175000Y-91800000D03*
X160625000Y-91800000D03*
%TD*%
D14*
%TO.C,C93*%
X173800000Y-97125000D03*
X173800000Y-98675000D03*
%TD*%
D43*
%TO.C,R60*%
X112962500Y-83750000D03*
X107037500Y-83750000D03*
%TD*%
D14*
%TO.C,C60*%
X194750000Y-108475000D03*
X194750000Y-110025000D03*
%TD*%
%TO.C,C43*%
X165400000Y-97125000D03*
X165400000Y-98675000D03*
%TD*%
%TO.C,C84*%
X168550000Y-102975000D03*
X168550000Y-104525000D03*
%TD*%
D30*
%TO.C,C51*%
X157430000Y-93510000D03*
X157430000Y-91960000D03*
%TD*%
D13*
%TO.C,R82*%
X188250000Y-81925000D03*
X188250000Y-83575000D03*
%TD*%
D12*
%TO.C,C66*%
X107375000Y-95800000D03*
X105825000Y-95800000D03*
%TD*%
D13*
%TO.C,R81*%
X186500000Y-81925000D03*
X186500000Y-83575000D03*
%TD*%
D11*
%TO.C,R83*%
X148250000Y-83575000D03*
X148250000Y-81925000D03*
%TD*%
D13*
%TO.C,R68*%
X158000000Y-102925000D03*
X158000000Y-104575000D03*
%TD*%
D11*
%TO.C,R54*%
X187500000Y-117675000D03*
X187500000Y-119325000D03*
%TD*%
D23*
%TO.C,C70*%
X113050000Y-87250000D03*
X114950000Y-87250000D03*
%TD*%
D29*
%TO.C,C76*%
X132000000Y-96050000D03*
X130100000Y-96050000D03*
%TD*%
D44*
%TO.C,U43*%
X167537500Y-86110000D03*
X167537500Y-86610000D03*
X167537500Y-87110000D03*
X167537500Y-87610000D03*
X167537500Y-88110000D03*
X167537500Y-88610000D03*
X167537500Y-89110000D03*
X167537500Y-89610000D03*
X167537500Y-90110000D03*
X167537500Y-90610000D03*
X167537500Y-91110000D03*
X167537500Y-91610000D03*
D45*
X168950000Y-93022500D03*
X169450000Y-93022500D03*
X169950000Y-93022500D03*
X170450000Y-93022500D03*
X170950000Y-93022500D03*
X171450000Y-93022500D03*
X171950000Y-93022500D03*
X172450000Y-93022500D03*
X172950000Y-93022500D03*
X173450000Y-93022500D03*
X173950000Y-93022500D03*
X174450000Y-93022500D03*
D44*
X175862500Y-91610000D03*
X175862500Y-91110000D03*
X175862500Y-90610000D03*
X175862500Y-90110000D03*
X175862500Y-89610000D03*
X175862500Y-89110000D03*
X175862500Y-88610000D03*
X175862500Y-88110000D03*
X175862500Y-87610000D03*
X175862500Y-87110000D03*
X175862500Y-86610000D03*
X175862500Y-86110000D03*
D45*
X174450000Y-84697500D03*
X173950000Y-84697500D03*
X173450000Y-84697500D03*
X172950000Y-84697500D03*
X172450000Y-84697500D03*
X171950000Y-84697500D03*
X171450000Y-84697500D03*
X170950000Y-84697500D03*
X170450000Y-84697500D03*
X169950000Y-84697500D03*
X169450000Y-84697500D03*
X168950000Y-84697500D03*
%TD*%
D13*
%TO.C,R73*%
X159750000Y-102925000D03*
X159750000Y-104575000D03*
%TD*%
D11*
%TO.C,R51*%
X175500000Y-119325000D03*
X175500000Y-117675000D03*
%TD*%
%TO.C,R66*%
X156750000Y-77825000D03*
X156750000Y-76175000D03*
%TD*%
D32*
%TO.C,D41*%
X166250000Y-77787500D03*
X166250000Y-76212500D03*
%TD*%
D14*
%TO.C,C61*%
X196500000Y-108475000D03*
X196500000Y-110025000D03*
%TD*%
D11*
%TO.C,R47*%
X121750000Y-119825000D03*
X121750000Y-118175000D03*
%TD*%
D13*
%TO.C,R78*%
X188250000Y-102925000D03*
X188250000Y-104575000D03*
%TD*%
D10*
%TO.C,C41*%
X153975000Y-100850000D03*
X155525000Y-100850000D03*
%TD*%
D11*
%TO.C,R77*%
X135150000Y-88350000D03*
X135150000Y-86700000D03*
%TD*%
D29*
%TO.C,C77*%
X131950000Y-98300000D03*
X130050000Y-98300000D03*
%TD*%
D26*
%TO.C,C57*%
X101700000Y-113250000D03*
X106800000Y-113250000D03*
%TD*%
D11*
%TO.C,R43*%
X129250000Y-119825000D03*
X129250000Y-118175000D03*
%TD*%
D21*
%TO.C,Q39*%
X176400000Y-124150000D03*
X178100000Y-125850000D03*
X176400000Y-125850000D03*
D20*
X179155000Y-127255000D03*
X177885000Y-127255000D03*
X175345000Y-127255000D03*
D21*
X178100000Y-124150000D03*
D20*
X176615000Y-127255000D03*
D22*
X179155000Y-121450000D03*
X177885000Y-121450000D03*
X176615000Y-121450000D03*
X175345000Y-121450000D03*
%TD*%
D14*
%TO.C,C49*%
X115500000Y-110475000D03*
X115500000Y-112025000D03*
%TD*%
D31*
%TO.C,D34*%
X112250000Y-103000000D03*
X116250000Y-103000000D03*
%TD*%
D32*
%TO.C,D42*%
X169750000Y-76212500D03*
X169750000Y-77787500D03*
%TD*%
D12*
%TO.C,C53*%
X162175000Y-90100000D03*
X160625000Y-90100000D03*
%TD*%
D10*
%TO.C,C31*%
X181425000Y-82100000D03*
X182975000Y-82100000D03*
%TD*%
D11*
%TO.C,R59*%
X109500000Y-98575000D03*
X109500000Y-96925000D03*
%TD*%
D33*
%TO.C,D38*%
X127050000Y-94300000D03*
X127050000Y-98300000D03*
%TD*%
D31*
%TO.C,D32*%
X126250000Y-105500000D03*
X122250000Y-105500000D03*
%TD*%
D10*
%TO.C,C92*%
X163925000Y-82610000D03*
X165475000Y-82610000D03*
%TD*%
D21*
%TO.C,Q36*%
X138850000Y-124150000D03*
D20*
X136095000Y-127255000D03*
D21*
X137150000Y-125850000D03*
X137150000Y-124150000D03*
D20*
X137365000Y-127255000D03*
D21*
X138850000Y-125850000D03*
D20*
X138635000Y-127255000D03*
X139905000Y-127255000D03*
D22*
X139905000Y-121450000D03*
X138635000Y-121450000D03*
X137365000Y-121450000D03*
X136095000Y-121450000D03*
%TD*%
D14*
%TO.C,C37*%
X146500000Y-112475000D03*
X146500000Y-114025000D03*
%TD*%
D35*
%TO.C,R57*%
X182425000Y-99540000D03*
X180775000Y-99540000D03*
%TD*%
D13*
%TO.C,FB31*%
X119800000Y-101975000D03*
X119800000Y-103625000D03*
%TD*%
%TO.C,R42*%
X167100000Y-97075000D03*
X167100000Y-98725000D03*
%TD*%
M02*
