%TF.GenerationSoftware,KiCad,Pcbnew,(6.0.9)*%
%TF.CreationDate,2022-12-08T19:58:11+01:00*%
%TF.ProjectId,battery-case-controller,62617474-6572-4792-9d63-6173652d636f,1*%
%TF.SameCoordinates,Original*%
%TF.FileFunction,Soldermask,Bot*%
%TF.FilePolarity,Negative*%
%FSLAX46Y46*%
G04 Gerber Fmt 4.6, Leading zero omitted, Abs format (unit mm)*
G04 Created by KiCad (PCBNEW (6.0.9)) date 2022-12-08 19:58:11*
%MOMM*%
%LPD*%
G01*
G04 APERTURE LIST*
G04 Aperture macros list*
%AMRoundRect*
0 Rectangle with rounded corners*
0 $1 Rounding radius*
0 $2 $3 $4 $5 $6 $7 $8 $9 X,Y pos of 4 corners*
0 Add a 4 corners polygon primitive as box body*
4,1,4,$2,$3,$4,$5,$6,$7,$8,$9,$2,$3,0*
0 Add four circle primitives for the rounded corners*
1,1,$1+$1,$2,$3*
1,1,$1+$1,$4,$5*
1,1,$1+$1,$6,$7*
1,1,$1+$1,$8,$9*
0 Add four rect primitives between the rounded corners*
20,1,$1+$1,$2,$3,$4,$5,0*
20,1,$1+$1,$4,$5,$6,$7,0*
20,1,$1+$1,$6,$7,$8,$9,0*
20,1,$1+$1,$8,$9,$2,$3,0*%
G04 Aperture macros list end*
%ADD10C,0.700000*%
%ADD11C,4.400000*%
%ADD12RoundRect,0.250000X-0.350000X-0.625000X0.350000X-0.625000X0.350000X0.625000X-0.350000X0.625000X0*%
%ADD13O,1.200000X1.750000*%
%ADD14C,0.800000*%
%ADD15C,6.400000*%
%ADD16O,1.250000X1.050000*%
%ADD17O,1.900000X1.000000*%
%ADD18R,1.000000X1.000000*%
%ADD19O,1.000000X1.000000*%
G04 APERTURE END LIST*
D10*
%TO.C,J39*%
X104166726Y-108666726D03*
X103000000Y-105850000D03*
X104650000Y-107500000D03*
X103000000Y-109150000D03*
X101833274Y-108666726D03*
X101833274Y-106333274D03*
D11*
X103000000Y-107500000D03*
D10*
X101350000Y-107500000D03*
X104166726Y-106333274D03*
%TD*%
D12*
%TO.C,J36*%
X184250000Y-107700000D03*
D13*
X186250000Y-107700000D03*
X188250000Y-107700000D03*
X190250000Y-107700000D03*
%TD*%
D12*
%TO.C,J32*%
X109750000Y-77700000D03*
D13*
X111750000Y-77700000D03*
X113750000Y-77700000D03*
X115750000Y-77700000D03*
X117750000Y-77700000D03*
%TD*%
D14*
%TO.C,M33*%
X204997056Y-126697056D03*
X203300000Y-122600000D03*
X204997056Y-123302944D03*
X200900000Y-125000000D03*
X201602944Y-123302944D03*
D15*
X203300000Y-125000000D03*
D14*
X203300000Y-127400000D03*
X201602944Y-126697056D03*
X205700000Y-125000000D03*
%TD*%
D12*
%TO.C,J41*%
X134750000Y-77700000D03*
D13*
X136750000Y-77700000D03*
X138750000Y-77700000D03*
X140750000Y-77700000D03*
%TD*%
D12*
%TO.C,U31*%
X186500000Y-77700000D03*
D13*
X188500000Y-77700000D03*
%TD*%
D12*
%TO.C,J34*%
X161000000Y-107700000D03*
D13*
X163000000Y-107700000D03*
X165000000Y-107700000D03*
X167000000Y-107700000D03*
X169000000Y-107700000D03*
%TD*%
%TO.C,J40*%
X129500000Y-77750000D03*
X127500000Y-77750000D03*
X125500000Y-77750000D03*
D12*
X123500000Y-77750000D03*
%TD*%
D16*
%TO.C,J42*%
X195550000Y-88225000D03*
D17*
X198550000Y-81825000D03*
D16*
X195550000Y-83775000D03*
D17*
X198550000Y-90175000D03*
%TD*%
D14*
%TO.C,M31*%
X112000000Y-127400000D03*
D15*
X112000000Y-125000000D03*
D14*
X113697056Y-123302944D03*
X109600000Y-125000000D03*
X113697056Y-126697056D03*
X110302944Y-126697056D03*
X110302944Y-123302944D03*
X114400000Y-125000000D03*
X112000000Y-122600000D03*
%TD*%
D18*
%TO.C,J43*%
X181800000Y-76875000D03*
D19*
X181800000Y-78145000D03*
X180530000Y-76875000D03*
X180530000Y-78145000D03*
X179260000Y-76875000D03*
X179260000Y-78145000D03*
X177990000Y-76875000D03*
X177990000Y-78145000D03*
X176720000Y-76875000D03*
X176720000Y-78145000D03*
%TD*%
D10*
%TO.C,J37*%
X177083274Y-106083274D03*
D11*
X178250000Y-107250000D03*
D10*
X176600000Y-107250000D03*
X178250000Y-108900000D03*
X177083274Y-108416726D03*
X179900000Y-107250000D03*
X178250000Y-105600000D03*
X179416726Y-106083274D03*
X179416726Y-108416726D03*
%TD*%
%TO.C,J35*%
X150583274Y-108416726D03*
D11*
X151750000Y-107250000D03*
D10*
X152916726Y-108416726D03*
X152916726Y-106083274D03*
X153400000Y-107250000D03*
X151750000Y-108900000D03*
X151750000Y-105600000D03*
X150100000Y-107250000D03*
X150583274Y-106083274D03*
%TD*%
D12*
%TO.C,J38*%
X146250000Y-77700000D03*
D13*
X148250000Y-77700000D03*
X150250000Y-77700000D03*
X152250000Y-77700000D03*
%TD*%
D11*
%TO.C,J33*%
X132000000Y-107250000D03*
D10*
X133166726Y-108416726D03*
X133650000Y-107250000D03*
X130350000Y-107250000D03*
X130833274Y-108416726D03*
X130833274Y-106083274D03*
X132000000Y-105600000D03*
X133166726Y-106083274D03*
X132000000Y-108900000D03*
%TD*%
D14*
%TO.C,M32*%
X155250000Y-124220000D03*
X159347056Y-125917056D03*
X155952944Y-125917056D03*
X159347056Y-122522944D03*
X157650000Y-121820000D03*
D15*
X157650000Y-124220000D03*
D14*
X155952944Y-122522944D03*
X157650000Y-126620000D03*
X160050000Y-124220000D03*
%TD*%
D10*
%TO.C,J31*%
X105150000Y-78250000D03*
X103500000Y-79900000D03*
D11*
X103500000Y-78250000D03*
D10*
X101850000Y-78250000D03*
X104666726Y-79416726D03*
X103500000Y-76600000D03*
X102333274Y-79416726D03*
X102333274Y-77083274D03*
X104666726Y-77083274D03*
%TD*%
M02*
